<?xml version="1.0" encoding="UTF-8" standalone="no"?><!DOCTYPE svg PUBLIC "-//W3C//DTD SVG 1.1//EN" "http://www.w3.org/Graphics/SVG/1.1/DTD/svg11.dtd"><svg width="100%" height="100%" viewBox="0 0 428 292" version="1.1" xmlns="http://www.w3.org/2000/svg" xmlns:xlink="http://www.w3.org/1999/xlink" xml:space="preserve" xmlns:serif="http://www.serif.com/" style="fill-rule:evenodd;clip-rule:evenodd;stroke-linejoin:round;stroke-miterlimit:2;"><path d="M202.959,91.262c-0.001,0 0.199,-0.014 0.529,-0.049c-0.184,0.014 -0.368,0.029 -0.551,0.049l0.022,0Z" style="fill:#fff;fill-rule:nonzero;"/><path d="M133.679,220.067c-4.59,0.446 -8.678,-2.918 -9.124,-7.52c-0.446,-4.589 2.908,-8.677 7.52,-9.112c4.59,-0.456 8.667,2.908 9.112,7.508c0.456,4.591 -2.907,8.667 -7.508,9.124m-0.98,-22.569c-7.965,0.768 -13.803,7.853 -13.023,15.819c0.769,7.964 7.854,13.791 15.819,13.022c7.965,-0.768 13.803,-7.854 13.023,-15.819c-0.78,-7.966 -7.854,-13.802 -15.819,-13.022" style="fill:#fff;fill-rule:nonzero;"/><path d="M131.918,144.217c-0.144,3.331 -2.985,5.932 -6.338,5.787c-3.342,-0.15 -5.949,-2.98 -5.792,-6.322c0.133,-3.363 2.984,-5.96 6.326,-5.809c3.354,0.15 5.95,2.985 5.804,6.344m-16.843,0.128c-0.257,5.799 4.255,10.717 10.06,10.968c5.815,0.261 10.728,-4.25 10.984,-10.042c0.256,-5.811 -4.245,-10.734 -10.06,-10.985c-5.803,-0.251 -10.716,4.244 -10.984,10.059" style="fill:#fff;fill-rule:nonzero;"/><path d="M166.497,119.959c-1.381,2.129 -4.233,2.746 -6.348,1.376c-2.141,-1.376 -2.753,-4.211 -1.371,-6.35c1.359,-2.139 4.2,-2.746 6.327,-1.382c2.139,1.382 2.764,4.223 1.392,6.356m-11.061,-6.327c-2.385,3.692 -1.305,8.617 2.395,11.006c3.698,2.367 8.622,1.309 10.995,-2.395c2.383,-3.688 1.315,-8.617 -2.384,-10.995c-3.687,-2.385 -8.611,-1.309 -11.006,2.384" style="fill:#fff;fill-rule:nonzero;"/><path d="M283.38,211.289c0.457,-4.579 4.556,-7.943 9.145,-7.497c4.602,0.466 7.956,4.556 7.499,9.157c-0.456,4.589 -4.545,7.943 -9.148,7.485c-4.588,-0.445 -7.954,-4.544 -7.496,-9.145m21.523,2.429c0.8,-7.966 -5.024,-15.062 -12.988,-15.853c-7.966,-0.78 -15.063,5.035 -15.855,13.001c-0.789,7.976 5.026,15.061 12.99,15.863c7.966,0.78 15.074,-5.046 15.853,-13.011" style="fill:#fff;fill-rule:nonzero;"/><path d="M264.721,124.254c-0.145,-3.354 2.462,-6.183 5.815,-6.334c3.354,-0.133 6.183,2.468 6.316,5.821c0.145,3.348 -2.461,6.183 -5.803,6.328c-3.354,0.144 -6.183,-2.473 -6.328,-5.815m16.844,0.167c-0.257,-5.809 -5.158,-10.327 -10.974,-10.082c-5.815,0.239 -10.316,5.136 -10.07,10.957c0.234,5.809 5.147,10.321 10.962,10.081c5.804,-0.245 10.314,-5.152 10.082,-10.956" style="fill:#fff;fill-rule:nonzero;"/><path d="M313.359,137.761c2.127,-1.371 4.968,-0.752 6.339,1.404c1.369,2.128 0.746,4.969 -1.394,6.339c-2.128,1.365 -4.979,0.74 -6.348,-1.387c-1.361,-2.14 -0.737,-4.98 1.403,-6.356m7.251,11.046c3.709,-2.379 4.79,-7.303 2.419,-11.001c-2.385,-3.698 -7.297,-4.785 -10.998,-2.406c-3.709,2.367 -4.788,7.291 -2.416,11.001c2.373,3.692 7.296,4.773 10.995,2.406" style="fill:#fff;fill-rule:nonzero;"/><path d="M359.98,83.085c-1.149,-6.488 -0.636,-11.552 1.525,-15.167c1.722,-2.604 4.351,-4.702 7.82,-6.325l15.352,87.09l-12.733,2.246l-11.964,-67.844Zm-48.14,-14.137c-0.678,-1.013 -0.966,-1.771 -0.966,-1.771c0.156,-0.039 0.312,-0.072 0.457,-0.116c0.056,-0.016 0.112,-0.039 0.167,-0.055c2.882,-0.82 5.693,-2.105 8.315,-3.718c3.605,-2.222 6.84,-5.07 9.297,-8.314c0.234,-0.301 -0.078,-0.775 -0.446,-0.613c-4.612,2.144 -8.822,5.386 -13.668,7.023c-1.432,0.484 -2.836,0.95 -4.259,1.292c-1.609,0.388 -3.244,0.619 -4.975,0.519c-0.793,-0.056 -1.494,-0.257 -2.185,-0.501c-0,-0 -6.449,-3.944 -5.803,-0.112c0.418,1.91 1.814,3.17 3.61,3.955c0.879,0.384 1.85,0.663 2.862,0.83c-0.045,0.049 -0.079,0.094 -0.146,0.156c-0.155,0.173 -0.311,0.345 -0.5,0.501c-0.101,0.1 -0.211,0.178 -0.324,0.273c-0.145,0.134 -0.301,0.261 -0.48,0.389c-0.11,0.091 -0.232,0.162 -0.356,0.246c-0.177,0.112 -0.321,0.218 -0.489,0.317c-0.133,0.072 -0.278,0.135 -0.413,0.212c-0.166,0.09 -0.322,0.173 -0.478,0.246c-0.145,0.06 -0.301,0.127 -0.435,0.183c-0.167,0.066 -0.347,0.129 -0.514,0.184c-0.144,0.044 -0.31,0.1 -0.455,0.144c-0.167,0.045 -0.335,0.079 -0.491,0.124c-0.167,0.033 -0.321,0.072 -0.489,0.1c-0.167,0.039 -0.335,0.049 -0.501,0.083c-0.167,0.027 -0.324,0.044 -0.514,0.061c-0.145,0.023 -0.311,0.023 -0.467,0.039c-0.19,0.006 -0.357,0.006 -0.546,0.017c-0.144,0.006 -0.29,-0.005 -0.457,-0c-0.188,-0.011 -0.368,-0.011 -0.568,-0.023c-0.133,-0.01 -0.28,-0.028 -0.413,-0.038c-0.211,-0.029 -0.4,-0.034 -0.611,-0.067c-0.112,-0.011 -0.222,-0.05 -0.335,-0.056c-0.223,-0.034 -0.446,-0.083 -0.68,-0.134c-0.032,-0.004 -0.078,-0.01 -0.121,-0.027c-0.915,-0.196 -1.817,-0.49 -2.662,-0.87c-0.518,-0.223 -1.013,-0.483 -1.499,-0.761c-3.926,-2.243 -6.639,-6.159 -5.675,-10.542c0.214,-0.968 0.59,-1.957 1.19,-2.956c0.313,-0.512 -0.089,-1.108 -0.691,-0.93c-0.222,0.078 -0.41,0.167 -0.624,0.24c-1.833,1.024 -3.07,2.771 -3.877,4.353c-0.935,1.831 -1.292,3.439 -1.292,3.439c-1.325,2.858 -5.882,5.675 -5.882,5.675c-3.497,1.594 -7.33,1.477 -10.55,-2.355c-0.735,-0.885 -2.46,-1.215 -3.186,-0.051c-2.184,3.594 -4.734,7.211 -7.694,9.878c-1.933,1.741 -4.041,3.073 -6.339,3.729c-2.381,0.68 -4.965,0.634 -7.767,-0.449c0.234,-0.273 0.377,-0.568 0.488,-0.879c0.001,-0.001 0.001,-0.001 0.001,-0.002c0.001,0 0.002,0.001 0.005,0.001c2.156,0.512 4.886,0.472 6.945,-0.535c0.513,-0.25 0.988,-0.557 1.397,-0.936c0.485,-0.449 0.886,-0.99 1.169,-1.638c0.164,-0.384 -0.079,-0.885 -0.513,-0.941c-0.901,-0.11 -1.773,0.013 -2.636,0.207c-1.97,0.444 -3.89,1.289 -5.965,0.829c-3.689,-0.825 -3.62,-3.95 -4.756,-6.956c-0.056,-0.157 -0.291,-0.151 -0.357,-0c-1.149,2.327 -0.581,5.536 1.114,7.691c-0.824,0.664 -1.649,1.326 -2.629,1.348c-0.325,0.006 -0.646,-0.1 -0.959,-0.279c-0.256,-0.134 -0.491,-0.328 -0.735,-0.556c-0.01,-0.018 -0.034,-0.04 -0.046,-0.062c-0.445,-0.446 -0.824,-1.019 -1.145,-1.637c-0.023,-0.073 -0.046,-0.134 -0.079,-0.184c-0.144,-0.301 -0.268,-0.602 -0.367,-0.919c-0.101,-0.301 -0.19,-0.652 -0.269,-1.003c-0.012,-0.05 -0.012,-0.094 -0.032,-0.139c-0.067,-0.346 -0.113,-0.708 -0.156,-1.081c-0.145,-1.51 1.504,-3.002 0.857,-4.311c-3.308,-6.695 -0.211,-10.288 3.376,-12.266c4.678,-2.589 9.892,-2.055 14.984,-2.143c0.167,0.122 0.333,0.25 0.523,0.366c0.168,0.084 0.368,0.09 0.545,0.079c-0.087,2.885 0.523,5.671 2.774,6.528c0.491,0.184 0.937,0.089 1.271,-0.201c2.261,-1.475 0.491,-4.611 0.491,-4.611c-0.324,-1.86 -0.191,-3.744 0.165,-5.576c0.703,-3.593 3.31,-8.005 6.64,-9.759c0.312,-0.161 0.246,-0.691 -0.156,-0.624c-3.53,0.579 -6.094,1.967 -7.997,4.456c-0,0 -4.001,-5.414 2.395,-12.287c5.234,-5.632 10.96,-5.264 17.713,-4.144c-0.024,1.091 0.155,2.172 0.5,3.18c-0,-0 1.751,4.768 4.122,4.088c2.373,-0.679 -1.281,-7.563 0.29,-10.683c0.544,-1.543 1.349,-3.041 2.686,-4.494c3.865,-4.134 8.921,-7.075 14.323,-8.718c11.509,-3.498 25.012,-2.395 30.124,9.463c0,0.368 0.012,0.757 0.067,1.137c-1.805,-0.246 -3.665,-0.307 -5.569,-0.34c-0.414,-0.017 -0.368,0.585 -0.012,0.668c3.309,0.841 6.73,2.3 9.692,4.016c1.371,0.786 3.376,2.089 3.53,3.844c0.179,1.81 -0.489,3.52 -0.7,5.292c-0.078,0.623 0.579,0.941 1.071,0.64c4.377,-2.651 3.663,-8.578 -0.292,-11.286c-1.103,-0.768 -2.249,-1.325 -3.43,-1.771c0.412,-0.517 0.635,-1.219 0.412,-2.021c-0.157,-0.607 -0.367,-1.203 -0.579,-1.772c1.114,-1.698 2.528,-3.007 4.991,-3.432c3.674,-0.617 7.484,-0.037 10.884,1.467c6.716,2.974 12.398,9.285 7.285,16.242c-0,-0 -0.892,0.501 -0.512,2.161c0.434,1.319 2.205,2.2 3.42,1.052c7.641,0.194 16.977,7.185 13.367,15.708c-0.012,-0.339 -0,-0.685 -0.022,-0.991c-0.268,-4.947 -3.777,-9.152 -8.566,-10.21c-0.257,-0.062 -0.502,0.301 -0.301,0.523c2.662,2.98 4.812,5.938 5.147,10.06c0.122,1.549 -0.246,2.902 -0.792,4.15c-0.278,0.535 -0.647,1.038 -1.081,1.513c-4.576,5.014 -16.866,6.763 -16.866,6.763l0.567,-2.417c0.138,-0.508 0.247,-1.019 0.338,-1.532c0.779,-4.355 -0.144,-8.806 -3.613,-12.749c-0.746,-0.825 -2.516,-0.446 -2.236,0.879c0.963,4.536 1.177,8.89 0.258,12.857c-0.048,0.203 -0.084,0.41 -0.137,0.612c-0.078,0.284 -0.179,0.557 -0.257,0.829c-0.144,0.458 -0.31,0.926 -0.489,1.354c-0.011,0.034 -0.023,0.062 -0.035,0.079c-0.176,0.428 -0.355,0.863 -0.567,1.276c-0.034,0.055 -0.055,0.1 -0.089,0.15c-0.188,0.4 -0.4,0.79 -0.646,1.169c-0.034,0.067 -0.079,0.128 -0.113,0.189c-0.234,0.385 -0.489,0.747 -0.755,1.12c-1.281,1.771 -2.775,3.71 -5.081,4.868c-11.858,5.921 -17.426,0.536 -19.465,-2.518m-88.025,-1.731c0.064,-0.774 0.124,-1.551 0.144,-2.333c0.104,0.304 0.236,0.592 0.422,0.861c-0.227,0.471 -0.413,0.964 -0.566,1.472m-8.758,13.318c-4.512,5.511 -9.282,7.512 -13.931,7.231c-6.374,-0.385 -12.52,-5.073 -17.462,-11.009c-1.481,-1.781 -2.854,-3.67 -4.093,-5.591c-1.598,-2.475 -2.974,-4.996 -4.066,-7.386c-0.003,-0.003 -0.005,-0.008 -0.006,-0.012c0.033,0.009 0.067,0.019 0.1,0.029c0.288,0.08 0.571,0.173 0.88,0.222c0.372,0.071 0.778,0.116 1.202,0.145c3.349,0.219 7.984,-0.94 8.556,-4.496c0.067,-0.444 -0.367,-0.862 -0.79,-0.88c-2.852,-0.122 -5.29,1.911 -8.322,1.666c-2.038,-0.167 -3.743,-0.707 -5.235,-1.626c-0.145,-0.14 -0.312,-0.239 -0.491,-0.323c-1.203,-0.836 -2.25,-1.905 -3.242,-3.236c0,-0 -2.094,-2.618 -1.604,0.083c0.167,0.53 0.379,1.059 0.613,1.543c0,0 1.938,3.816 3.309,4.706c0,0 -0.603,0.448 -1.566,1.015c-1.502,0.886 -3.889,2.065 -6.3,2.317c-5.196,0.551 -8.276,-0.94 -9.567,-5.116c-0.208,-0.675 -0.375,-1.413 -0.491,-2.232c-0,0 0.256,-3.498 -6.64,0.926c-0.027,0.013 -0.051,0.022 -0.077,0.035c-5.187,2.65 -9.374,1.757 -12.411,-2.188c-1.225,-1.592 -2.27,-3.666 -3.108,-6.224c-0.413,-1.276 -2.285,-0.909 -2.061,0.45c0.29,1.604 0.702,3.053 1.17,4.378c-0.404,0.155 -0.805,0.315 -1.202,0.479c-5.356,2.194 -10.284,5.031 -15.959,6.326c-0.964,0.22 -1.946,0.4 -2.958,0.52c-1.598,0.191 -3.467,0.383 -5.378,0.409c-2.673,0.034 -5.427,-0.261 -7.646,-1.349c-0.522,-0.256 -1.016,-0.554 -1.471,-0.904c-0.835,-0.651 -1.447,-1.37 -1.982,-2.1c-1.582,-2.512 -1.114,-5.292 -1.114,-5.292c3.42,0.14 7.364,-1.024 9.714,-2.01c0.334,-0.134 0.2,-0.658 -0.134,-0.652c-2.45,0.079 -4.868,0.602 -7.308,0.48c-1.37,-0.063 -2.84,-0.112 -4.144,-0.591c-0.913,-0.329 -1.704,-0.83 -2.674,-1.042c-0.668,-0.14 -1.603,0.562 -1.091,1.297c0.713,1.009 1.705,1.639 2.852,2.023c-1.047,3.22 0.033,5.693 1.092,7.464c-0.103,0.054 -0.2,0.115 -0.301,0.17c-2.57,1.423 -4.847,3.555 -7.999,3.233c-2.462,-0.245 -5.202,-2.674 -6.651,-4.551c-0.35,-0.452 -0.643,-0.933 -0.909,-1.425c-1.486,-2.772 -1.652,-6.114 -0.895,-9.169c1.014,-4.089 3.687,-6.132 7.775,-6.383c0.847,-0.05 1.527,0.088 2.34,0.228c0.468,0.078 0.88,-0.083 1.214,-0.373c2.485,-10.639 5.102,-13.246 5.102,-13.246c3.944,-5.704 10.216,-9.481 17.903,-10.739c12.555,-2.05 21.69,4.506 33.008,7.732c-2.718,1.286 -6.562,3.954 -4.456,7.001c0.524,0.725 1.427,0.658 1.804,-0.162c0.792,-1.693 0.814,-3.057 2.719,-4.071c1.783,-0.953 3.698,-1.526 5.681,-2.005c3.12,-0.753 6.551,-1.355 9.748,-0.763c0.178,0.033 0.2,-0.234 0.055,-0.295c-3.698,-1.533 -8.788,-1.716 -12.832,-0.674c-0,-0.162 -0.023,-0.324 -0.112,-0.49c-1.771,-5.66 3.609,-9.643 3.609,-9.643c5.481,-3.068 11.776,-3.487 19.206,-0.552c5.325,2.106 7.832,3.405 11.776,7.62c2.194,2.345 3.776,5.186 6.372,7.091c0.589,0.452 1.659,-0.05 1.637,-0.841c-0.089,-2.027 -0.712,-3.944 -1.75,-5.715c8.5,-13.524 28.274,13.976 31.205,21.345c4.332,10.817 7.985,27.144 -0.213,37.192m-172.648,68.148l15.36,-87.084c3.457,1.622 6.079,3.718 7.798,6.319c2.173,3.615 2.686,8.679 1.549,15.167l-11.964,67.844l-12.743,-2.246Zm378.474,105.351l-7.219,1.28c-5.035,0.88 -9.948,0.558 -14.75,-0.969c-3.431,-1.124 -6.07,-3.186 -7.898,-6.227c-1.826,-3.008 -3.643,-9.659 -5.448,-19.918l-11.741,-66.588l12.734,-2.246l-0,0.002l10.681,-1.883l-18.435,-104.601l-10.652,1.878c1.619,-2.282 2.744,-4.947 3.109,-8.055c0.801,-6.806 -7.785,-15.167 -15.641,-15.262c3.443,-8.327 -2.85,-16.576 -11.564,-19.735c-4.499,-1.62 -10.057,-2.64 -14.626,-0.612c-1.492,0.669 -2.907,1.682 -4.032,2.908c-6.73,-10.862 -22.258,-12.25 -34.08,-8.111c-7.062,2.479 -13.913,6.467 -17.945,12.961c-0.768,1.226 -1.404,2.646 -1.838,4.117c-6.673,-2.979 -14.415,-1.091 -19.996,3.648c-4.868,4.133 -9.27,13.129 -8.178,20.035c-2.917,-1.653 -7.685,-0.155 -10.605,0.613c-3.932,1.045 -8.268,3.896 -9.568,7.775c-1.587,-9.043 -5.47,-17.853 -10.518,-24.835c-4.455,-6.2 -12.375,-12.855 -19.852,-14.911c-4.578,-1.27 -9.056,-0.023 -11.15,3.525c-5.804,-6.238 -13.813,-8.661 -20.309,-9.931c-9.279,-1.838 -20.62,1.437 -24.597,10.477c-13.113,-5.764 -25.489,-9.04 -39.826,-3.832c-10.417,3.782 -13.592,10.233 -16.03,20.153c-3.043,0.618 -6.462,2.613 -7.989,4.322c-0.624,0.68 -1.203,1.599 -1.703,2.624c-2.575,3.575 -2.813,9.319 -1.674,13.996l-10.57,-1.864l-0,-0.001l-10.683,-1.883l-1.004,5.66l0.005,-0l-17.449,98.941l10.683,1.883l-0,-0.002l12.734,2.246l-11.731,66.588c-1.816,10.259 -3.632,16.91 -5.47,19.918c-1.816,3.041 -4.456,5.103 -7.887,6.227c-4.802,1.527 -9.715,1.849 -14.752,0.969l-7.219,-1.28l-0.992,5.647l160.187,28.241l10.549,-45.095l-5.971,-1.059c-4.233,10.484 -8.009,17.546 -11.351,21.167c-3.342,3.621 -7.71,6.138 -13.146,7.553c-4.445,0.724 -11.808,0.177 -22.057,-1.626l-40.279,-7.103c-5.437,-0.991 -9.094,-2.213 -10.944,-3.704c-1.883,-1.504 -3.074,-3.341 -3.552,-5.492c-0.491,-2.116 0.076,-7.797 1.704,-17.021l12.13,-68.777l45.853,8.083c8.59,1.508 14.85,3.691 18.76,6.544c3.921,2.857 6.417,6.204 7.465,10.06c0.936,3.195 1.27,9.944 0.958,20.25l5.648,1.002l12.743,-72.246l-5.648,-0.998c-2.707,11.614 -7.095,19.368 -13.178,23.26c-4.6,2.859 -12.867,3.236 -24.809,1.131l-45.864,-8.082l14.515,-82.292l57.171,10.082c10.25,1.81 17.347,3.81 21.289,6.016c4.612,3.191 7.877,7.057 9.771,11.602c1.893,4.545 3.029,12.466 3.42,23.762l5.971,1.052l4.155,-34.656c0.691,-0.011 1.41,-0.049 2.261,-0.072l-0.021,-0c0.182,-0.02 0.365,-0.035 0.55,-0.05c0.129,-0.01 0.261,-0.018 0.386,-0.035c-0,0 6.182,-0.344 10.427,-4.244c3.652,-2.461 5.824,-5.403 7.474,-9.981c0.684,-1.903 1.199,-3.859 1.559,-5.854c0.017,0.498 0.054,0.996 0.124,1.487c0.514,3.545 2.468,5.673 4.327,6.928l-2.756,0.486l5.512,45.991l5.972,-1.058c0.39,-11.29 1.527,-19.211 3.419,-23.756c1.907,-4.545 5.159,-8.411 9.782,-11.602c3.92,-2.206 11.029,-4.212 21.277,-6.016l39.199,-6.914c5.211,4.271 12.276,3.97 18.706,1.053l13.771,78.071l-45.852,8.082c-11.942,2.105 -20.208,1.722 -24.82,-1.131c-6.072,-3.892 -10.462,-11.646 -13.168,-23.26l-5.647,0.992l12.743,72.252l5.649,-1.002c-0.301,-10.306 0.012,-17.055 0.958,-20.25c1.059,-3.856 3.542,-7.203 7.464,-10.06c3.92,-2.853 10.17,-5.036 18.76,-6.544l45.852,-8.083l12.131,68.777c1.626,9.224 2.195,14.905 1.704,17.021c-0.489,2.151 -1.67,3.988 -3.553,5.492c-1.853,1.494 -5.525,2.72 -10.991,3.713l-40.219,7.094c-10.261,1.803 -17.625,2.35 -22.069,1.626c-5.425,-1.415 -9.814,-3.932 -13.156,-7.553c-3.332,-3.631 -7.108,-10.683 -11.342,-21.167l-5.971,1.047l10.561,45.107l160.174,-28.241l-0.992,-5.647Z" style="fill:#fff;fill-rule:nonzero;"/><path d="M189.491,129.799c0,0 -6.36,56.689 -18.303,103.781c-0,0 15.741,-46.105 18.303,-103.781" style="fill:#fff;fill-rule:nonzero;"/><path d="M237.349,129.799c2.563,57.676 18.302,103.781 18.302,103.781c-11.941,-47.092 -18.302,-103.781 -18.302,-103.781" style="fill:#fff;fill-rule:nonzero;"/></svg>