<?xml version="1.0" encoding="UTF-8" standalone="no"?><!DOCTYPE svg PUBLIC "-//W3C//DTD SVG 1.1//EN" "http://www.w3.org/Graphics/SVG/1.1/DTD/svg11.dtd"><svg width="100%" height="100%" viewBox="0 0 532 167" version="1.1" xmlns="http://www.w3.org/2000/svg" xmlns:xlink="http://www.w3.org/1999/xlink" xml:space="preserve" xmlns:serif="http://www.serif.com/" style="fill-rule:evenodd;clip-rule:evenodd;stroke-linejoin:round;stroke-miterlimit:2;"><path d="M35.886,86.009l-16.473,-26.142l-0,43.006c0.13,4.21 0.525,6.81 1.183,7.795c0.986,1.379 2.203,2.071 3.65,2.071l1.775,-0l-0,1.677l-20.813,0l0,-1.773l1.873,0c2.697,-0.069 4.307,-1.284 4.834,-3.653l-0,-50.798c-0,-3.306 -1.159,-7.11 -5.03,-7.301l-1.677,0l0,-1.775l14.106,0l18.15,29.197l20.123,-29.197l15.092,0l0,1.479l-1.874,-0c-2.303,-0 -3.915,0.823 -4.834,2.466c-0.591,1.052 -0.888,3.421 -0.888,7.101l0,58.398c0,8.511 4.602,10.357 7.3,9.962l0.296,0.985c-4.538,1.581 -15.092,0.187 -15.092,-10.947l-0,-59.383l-18.545,26.832l-3.156,0Z" style="fill:#fff;fill-rule:nonzero;"/><path d="M109.134,98.241l-13.021,-35.611l-10.061,27.224l23.082,8.387Zm-26.436,-9.57l14.993,-41.034l1.479,0l19.433,54.353c1.578,4.339 3.008,7.149 4.291,8.43c1.283,1.285 3.073,2.022 5.376,2.223l0,1.773l-22.095,0l-0,-1.773c2.234,-0.135 3.747,-0.559 4.537,-1.284c0.79,-0.722 1.183,-1.644 1.183,-2.761c0,-1.383 -0.361,-3.257 -1.085,-5.623l-0.296,-0.887l-25.547,-9.174l-3.65,9.959c-0.923,2.503 -1.381,4.375 -1.381,5.624c-0,1.054 0.395,1.958 1.184,2.713c0.788,0.759 2.565,1.232 5.327,1.433l-0,1.773l-17.658,0l-0,-1.773c2.301,-0.461 3.813,-1.086 4.538,-1.877c1.382,-1.578 2.96,-4.702 4.734,-9.372l3.551,-9.764l-14.904,-5.805l8.197,-0.017l7.793,2.863Z" style="fill:#fff;fill-rule:nonzero;"/><path d="M183.778,37.771l-0,1.777l-2.269,0c-6.08,0 -6.214,7.332 -6.214,10.159l0,36.499c0,6.51 -0.954,11.705 -2.86,15.583c-1.909,3.881 -4.736,6.954 -8.483,9.223c-3.749,2.271 -8.583,3.404 -14.501,3.404c-5.722,-0.128 -9.931,-1.182 -12.626,-3.156c-3.42,-1.973 -5.854,-4.866 -7.298,-8.68c-1.318,-3.288 -2.041,-6.906 -2.171,-10.851l-0,-35.017c-0.191,-3.096 -2.014,-5.629 -5.327,-5.82l-2.269,-0l-0,-1.776l24.464,-0l0,1.776l-2.269,-0c-3.86,-0 -6.263,1.825 -6.412,5.82l0,31.959c0,20.69 11.376,21.209 14.401,21.209c16.235,-0 17.362,-15.421 17.362,-21.209l-0,-39.359c-0,-16.794 14.762,-12.394 16.472,-11.541" style="fill:#fff;fill-rule:nonzero;"/><path d="M221.573,94.588l3.551,0l6.213,19.729l-52.97,0.099l0,-1.772l2.368,-0c2.695,-0 4.602,-0.89 5.722,-2.666c0.656,-1.051 0.985,-3.452 0.985,-7.204l-0,-42.117c-0,-4.076 -0.429,-6.642 -1.282,-7.695c-1.183,-1.38 -2.993,-2.07 -5.425,-2.07l-2.368,-0l0,-1.776l28.706,-0l-0,1.776l-2.566,-0c-2.397,-0 -5.979,0.819 -7.17,3.17c-0.858,1.692 -0.918,3.847 -0.918,5.706l-0,43.006c-0,2.166 0.136,4.698 1.817,6.378c1.343,1.343 5.546,1.123 7.949,1.123l4.636,-0c4.865,-0 8.268,-0.363 10.209,-1.086c1.94,-0.725 2.91,-2.087 2.91,-4.095c-0,-2.004 -0.789,-5.505 -2.367,-10.506" style="fill:#fff;fill-rule:nonzero;"/><path d="M252.742,109.682c3.751,0.856 7.464,1.282 11.149,1.282c5.918,-0 10.421,-1.299 13.514,-3.897c3.09,-2.596 4.635,-5.835 4.635,-9.715c0,-11.088 -7.492,-16.178 -18.052,-16.178c-4.011,-0 -7.759,0.923 -11.246,2.761l0,25.747Zm0,-28.213c3.814,-1.707 7.598,-2.563 11.344,-2.563c5.588,-0 15.98,-2.479 15.98,-12.725c0,-3.813 -1.417,-13.316 -13.809,-13.316c-5.459,-0 -9.962,1.576 -13.515,4.734l0,23.87Zm24.367,-1.182c11.609,-1.517 16.274,8.202 16.274,16.274c-0,6.447 -2.325,13.004 -11.736,15.784c-3.715,1.097 -9.144,2.071 -16.573,2.071l-31.27,-0l0,-1.773l2.466,-0c2.763,-0 4.735,-0.856 5.917,-2.566c0.793,-1.185 1.185,-3.585 1.185,-7.204l-0,-42.215c-0,-4.013 -0.461,-6.576 -1.38,-7.696c-1.249,-1.38 -3.157,-2.07 -5.722,-2.07l-2.466,0l0,-1.776l18.841,0l0,4.241c5.129,-2.695 11.343,-4.044 18.642,-4.044c18.484,-0 19.041,13.45 19.041,17.262c-0,3.222 -2.6,12.324 -13.219,13.712" style="fill:#fff;fill-rule:nonzero;"/><path d="M429.124,80.879l2.566,0c5.719,0 10.045,-1.233 12.971,-3.701c2.928,-2.464 4.391,-5.573 4.391,-9.321c-0,-3.683 -0.956,-6.791 -2.861,-9.319c-1.907,-2.534 -4.802,-3.801 -8.68,-3.801c-2.631,0.396 -5.426,1.22 -8.387,2.466l0,23.676Zm26.732,33.537l-20.417,-30.579c-1.054,0.197 -2.269,0.295 -3.651,0.295l-2.664,0l0,18.741c0,4.081 0.429,6.612 1.284,7.597c1.118,1.448 2.794,2.173 5.031,2.173l2.366,0l-0,1.773l-25.743,0l-0,-1.773l2.268,0c2.565,0 4.371,-0.889 5.425,-2.665c0.593,-1.051 0.887,-3.419 0.887,-7.105l-0,-42.216c-0,-4.076 -0.393,-6.642 -1.184,-7.695c-1.119,-1.381 -2.827,-2.071 -5.128,-2.071l-2.268,0l-0,-1.774l17.062,-0l0,3.944c7.3,-2.565 12.857,-3.517 16.672,-2.86c3.878,0.921 7.068,2.829 9.567,5.719c2.434,2.898 3.649,6.216 3.649,9.967c0,4.01 -1.215,7.493 -3.649,10.454c-2.435,2.96 -6.147,5.065 -11.145,6.313l20.814,31.663c3.812,5.525 8.483,9.04 14.006,10.555l0.198,0.59c-8.549,0 -15.192,-2.332 -19.927,-7l-3.453,-4.046Z" style="fill:#fff;fill-rule:nonzero;"/><path d="M488.262,52.667l0,25.844l14.4,0c3.749,0 6.249,-0.559 7.498,-1.677c1.644,-1.512 2.563,-4.112 2.764,-7.793l1.771,-0l0,22.687l-1.771,-0c-0.464,-3.156 -0.922,-5.192 -1.382,-6.114c-0.527,-1.117 -1.465,-2.005 -2.813,-2.664c-1.347,-0.657 -3.369,-0.985 -6.067,-0.985l-14.4,0l0,21.602c0,2.896 0.13,4.653 0.392,5.275c0.265,0.628 0.725,1.12 1.382,1.483c0.657,0.359 1.874,0.539 3.652,0.539l11.047,0c3.748,0 6.443,-0.26 8.089,-0.787c1.641,-0.527 3.253,-1.545 4.833,-3.06c0,-2.892 -0.921,-6.114 -2.761,-9.666l4.834,0.097l6.312,16.968l-56.326,0l0,-1.773l2.27,0c1.577,0 3.057,-0.362 4.44,-1.086c0.985,-0.527 1.677,-1.298 2.069,-2.32c0.395,-1.017 0.593,-3.139 0.593,-6.364l0,-20.908l-6.904,0l-0,-3.357l6.904,0l0,-21.305c0,-2.038 -0.428,-3.552 -1.281,-4.537c-1.186,-1.248 -3.126,-1.875 -5.821,-1.875l-2.27,0l0,-1.775l50.308,0l0.789,14.303l-1.874,0c-0.725,-3.419 -1.495,-5.771 -2.319,-7.054c-0.82,-1.281 -2.023,-2.283 -3.598,-3.009c-1.317,-0.458 -3.587,-0.689 -6.806,-0.689l-17.954,0Z" style="fill:#fff;fill-rule:nonzero;"/><path d="M319.177,110.865l12.528,-0c3.219,-0 5.491,-0.231 6.806,-0.689c1.578,-0.727 2.777,-1.726 3.6,-3.011c0.821,-1.281 1.592,-3.633 2.32,-7.052l1.874,-0l-0.791,14.303l-50.307,-0l-0,-1.772l2.268,-0c1.58,-0 3.059,-0.363 4.44,-1.088c0.985,-0.527 1.676,-1.298 2.071,-2.318c0.396,-1.019 0.59,-3.141 0.59,-6.364l0,-20.909l-6.902,-0l0,-3.357l6.902,-0l0,-21.306c0,-2.037 -0.427,-3.551 -1.281,-4.536c-1.183,-1.249 -3.123,-1.874 -5.82,-1.874l-0.253,-0l-0,-1.776l48.292,-0l0.791,14.304l-1.874,-0c-0.728,-3.42 -1.499,-5.772 -2.32,-7.055c-0.823,-1.282 -2.022,-2.284 -3.6,-3.009c-1.315,-0.458 -3.587,-0.688 -6.806,-0.688l-17.953,-0l-0,25.843l14.402,-0c3.749,-0 6.246,-0.558 7.498,-1.677c1.641,-1.511 2.563,-4.111 2.759,-7.792l1.776,-0l0,22.687l-1.776,-0c-0.461,-3.156 -0.921,-5.192 -1.38,-6.115c-0.526,-1.117 -1.465,-2.005 -2.813,-2.664c-1.347,-0.657 -3.369,-0.985 -6.064,-0.985l-14.402,-0l-0,21.603c-0,2.895 0.13,4.651 0.394,5.275c0.263,0.628 0.723,1.118 1.38,1.481c0.656,0.36 1.875,0.541 3.651,0.541" style="fill:#fff;fill-rule:nonzero;"/><path d="M383.944,110.865c1.779,-0 2.994,-0.181 3.653,-0.541c0.655,-0.363 1.117,-0.853 1.38,-1.481c0.264,-0.624 0.392,-2.38 0.392,-5.275l-0,-21.603l-14.4,-0c-2.698,-0 -4.72,0.328 -6.064,0.985c-1.348,0.659 -2.286,1.547 -2.813,2.664c-0.458,0.923 -0.919,2.959 -1.383,6.115l-1.773,-0l-0,-22.687l1.773,-0c0.2,3.681 1.119,6.281 2.763,7.792c1.252,1.119 3.748,1.677 7.497,1.677l14.4,-0l-0,-25.843l-17.95,-0c-3.222,-0 -5.492,0.23 -6.807,0.688c-1.578,0.725 -2.776,1.727 -3.6,3.009c-0.823,1.283 -1.595,3.635 -2.32,7.055l-1.874,-0l0.791,-14.304l48.292,-0l0,1.776l-0.255,-0c-2.695,-0 -4.636,0.625 -5.82,1.874c-0.855,0.985 -1.282,2.499 -1.282,4.536l0,21.306l6.905,-0l-0,3.357l-6.905,-0l0,20.909c0,3.223 0.197,5.345 0.593,6.364c0.392,1.02 1.084,1.791 2.071,2.318c1.382,0.725 2.86,1.088 4.438,1.088l2.27,-0l0,1.772l-50.307,-0l-0.791,-14.303l1.874,-0c0.725,3.419 1.497,5.771 2.32,7.052c0.824,1.285 2.022,2.284 3.6,3.011c1.315,0.458 3.585,0.689 6.807,0.689l12.525,-0Z" style="fill:#fff;fill-rule:nonzero;"/></svg>