<?xml version="1.0" encoding="UTF-8" standalone="no"?>
<!-- Created with Inkscape (http://www.inkscape.org/) -->

<svg
   version="1.1"
   id="svg2"
   width="566.93335"
   height="107.02533"
   viewBox="0 0 566.93335 107.02533"
   xmlns="http://www.w3.org/2000/svg"
   xmlns:svg="http://www.w3.org/2000/svg">
  <defs
     id="defs6">
    <clipPath
       clipPathUnits="userSpaceOnUse"
       id="clipPath16">
      <path
         d="M 0,80.269 H 425.2 V 0 H 0 Z"
         id="path14" />
    </clipPath>
  </defs>
  <g
     id="g8"
     transform="matrix(1.3333333,0,0,-1.3333333,0,107.02533)">
    <g
       id="g10">
      <g
         id="g12"
         clip-path="url(#clipPath16)">
        <g
           id="g18"
           transform="translate(49.4565,38.1504)">
          <path
             d="m 0,0 -11.724,18.605 v -30.607 c 0.093,-2.996 0.374,-4.846 0.842,-5.547 0.702,-0.982 1.568,-1.474 2.598,-1.474 h 1.263 v -1.194 h -14.812 v 1.262 h 1.333 c 1.919,0.049 3.065,0.914 3.44,2.6 v 36.152 c 0,2.353 -0.825,5.06 -3.58,5.196 h -1.193 v 1.263 h 10.039 L 1.123,5.477 15.444,26.256 h 10.741 v -1.052 h -1.334 c -1.639,0 -2.786,-0.586 -3.44,-1.755 C 20.99,22.7 20.779,21.014 20.779,18.395 v -41.561 c 0,-6.057 3.275,-7.371 5.195,-7.09 l 0.211,-0.701 c -3.23,-1.125 -10.741,-0.133 -10.741,7.791 V 19.096 L 2.246,0 Z"
             style="fill:#231f20;fill-opacity:1;fill-rule:nonzero;stroke:none"
             id="path20" />
        </g>
        <g
           id="g22"
           transform="translate(101.5859,29.4453)">
          <path
             d="m 0,0 -9.267,25.344 -7.16,-19.375 z m -18.814,6.811 10.67,29.203 h 1.053 L 6.739,-2.668 c 1.123,-3.088 2.141,-5.088 3.054,-6 0.913,-0.914 2.187,-1.439 3.826,-1.582 v -1.262 H -2.106 v 1.262 c 1.59,0.096 2.667,0.398 3.229,0.914 0.562,0.514 0.842,1.17 0.842,1.965 0,0.984 -0.257,2.318 -0.772,4.002 l -0.211,0.631 -18.181,6.529 -2.598,-7.088 c -0.657,-1.781 -0.983,-3.113 -0.983,-4.002 0,-0.75 0.281,-1.394 0.843,-1.931 0.561,-0.54 1.825,-0.877 3.791,-1.02 v -1.262 h -12.567 v 1.262 c 1.638,0.328 2.714,0.773 3.23,1.336 0.983,1.123 2.106,3.346 3.369,6.67 l 2.527,6.949 -10.607,4.131 5.834,0.012 z"
             style="fill:#231f20;fill-opacity:1;fill-rule:nonzero;stroke:none"
             id="path24" />
        </g>
        <g
           id="g26"
           transform="translate(154.709,72.481)">
          <path
             d="m 0,0 v -1.265 h -1.615 c -4.327,0 -4.422,-5.218 -4.422,-7.23 v -25.976 c 0,-4.633 -0.679,-8.33 -2.036,-11.09 -1.358,-2.762 -3.37,-4.949 -6.037,-6.564 -2.668,-1.616 -6.108,-2.422 -10.32,-2.422 -4.072,0.091 -7.068,0.841 -8.986,2.246 -2.434,1.404 -4.166,3.463 -5.194,6.177 -0.938,2.34 -1.452,4.915 -1.545,7.723 v 24.921 c -0.136,2.203 -1.433,4.006 -3.791,4.142 h -1.615 v 1.264 h 17.411 v -1.264 h -1.615 c -2.747,0 -4.457,-1.299 -4.563,-4.142 v -22.745 c 0,-14.725 8.096,-15.094 10.249,-15.094 11.554,0 12.356,10.975 12.356,15.094 V -8.214 C -11.723,3.738 -1.217,0.607 0,0"
             style="fill:#231f20;fill-opacity:1;fill-rule:nonzero;stroke:none"
             id="path28" />
        </g>
        <g
           id="g30"
           transform="translate(181.6074,32.0449)">
          <path
             d="m 0,0 h 2.527 l 4.422,-14.041 -37.698,-0.07 v 1.261 h 1.685 c 1.918,0 3.275,0.633 4.072,1.897 0.467,0.748 0.701,2.457 0.701,5.127 v 29.974 c 0,2.901 -0.305,4.727 -0.912,5.477 -0.842,0.982 -2.13,1.473 -3.861,1.473 h -1.685 v 1.264 h 20.429 v -1.264 h -1.826 c -1.706,0 -4.255,-0.583 -5.103,-2.256 -0.61,-1.204 -0.653,-2.738 -0.653,-4.061 V -5.826 c 0,-1.541 0.097,-3.343 1.293,-4.539 0.956,-0.956 3.947,-0.799 5.657,-0.799 h 3.3 c 3.462,0 5.884,0.258 7.265,0.773 1.381,0.516 2.071,1.485 2.071,2.914 C 1.684,-6.051 1.123,-3.559 0,0"
             style="fill:#231f20;fill-opacity:1;fill-rule:nonzero;stroke:none"
             id="path32" />
        </g>
        <g
           id="g34"
           transform="translate(203.79,21.3027)">
          <path
             d="m 0,0 c 2.669,-0.609 5.312,-0.912 7.934,-0.912 4.212,0 7.417,0.924 9.618,2.773 2.199,1.848 3.299,4.153 3.299,6.914 0,7.891 -5.332,11.514 -12.848,11.514 -2.854,0 -5.522,-0.657 -8.003,-1.965 z m 0,20.079 c 2.714,1.215 5.407,1.824 8.073,1.824 3.977,0 11.373,1.764 11.373,9.056 0,2.714 -1.009,9.477 -9.828,9.477 -3.885,0 -7.09,-1.122 -9.618,-3.369 z M 17.341,20.92 C 25.603,22 28.923,15.083 28.923,9.338 28.923,4.75 27.269,0.083 20.571,-1.895 17.927,-2.676 14.063,-3.369 8.776,-3.369 h -22.254 v 1.262 h 1.755 c 1.966,0 3.37,0.609 4.211,1.826 0.564,0.843 0.843,2.551 0.843,5.127 V 34.89 c 0,2.856 -0.328,4.68 -0.982,5.477 -0.889,0.982 -2.247,1.473 -4.072,1.473 h -1.755 v 1.264 h 13.409 v -3.018 c 3.65,1.918 8.072,2.878 13.267,2.878 13.155,0 13.551,-9.572 13.551,-12.285 0,-2.293 -1.85,-8.771 -9.408,-9.759"
             style="fill:#231f20;fill-opacity:1;fill-rule:nonzero;stroke:none"
             id="path36" />
        </g>
        <g
           id="g38"
           transform="translate(329.3184,41.8013)">
          <path
             d="m 0,0 h 1.826 c 4.07,0 7.149,0.878 9.231,2.634 2.084,1.754 3.125,3.966 3.125,6.634 0,2.621 -0.68,4.833 -2.036,6.632 -1.357,1.803 -3.417,2.705 -6.177,2.705 C 4.096,18.323 2.107,17.737 0,16.85 Z M 19.025,-23.868 4.494,-2.105 c -0.75,-0.14 -1.615,-0.21 -2.598,-0.21 H 0 v -13.338 c 0,-2.904 0.305,-4.705 0.914,-5.406 0.795,-1.031 1.988,-1.547 3.58,-1.547 h 1.684 v -1.262 h -18.321 v 1.262 h 1.614 c 1.826,0 3.111,0.633 3.861,1.897 0.422,0.748 0.631,2.433 0.631,5.056 v 30.045 c 0,2.901 -0.279,4.727 -0.842,5.476 -0.797,0.983 -2.012,1.474 -3.65,1.474 h -1.614 v 1.263 H 0 v -2.807 c 5.195,1.825 9.15,2.503 11.865,2.035 2.76,-0.655 5.03,-2.013 6.809,-4.07 1.732,-2.062 2.597,-4.424 2.597,-7.093 0,-2.854 -0.865,-5.333 -2.597,-7.44 -1.733,-2.107 -4.375,-3.605 -7.932,-4.493 l 14.813,-22.534 c 2.713,-3.932 6.037,-6.434 9.968,-7.512 l 0.141,-0.42 c -6.084,0 -10.812,1.66 -14.182,4.982 z"
             style="fill:#231f20;fill-opacity:1;fill-rule:nonzero;stroke:none"
             id="path40" />
        </g>
        <g
           id="g42"
           transform="translate(371.4062,61.8794)">
          <path
             d="m 0,0 v -18.393 h 10.248 c 2.668,0 4.447,0.398 5.336,1.194 1.17,1.076 1.824,2.926 1.967,5.546 h 1.261 v -16.146 h -1.261 c -0.33,2.246 -0.656,3.695 -0.983,4.351 -0.375,0.795 -1.043,1.427 -2.002,1.896 -0.959,0.468 -2.398,0.701 -4.318,0.701 H 0 v -15.374 c 0,-2.061 0.092,-3.311 0.279,-3.754 0.188,-0.447 0.516,-0.797 0.983,-1.055 0.468,-0.256 1.334,-0.384 2.599,-0.384 h 7.862 c 2.668,0 4.586,0.185 5.757,0.56 1.168,0.375 2.315,1.1 3.44,2.178 0,2.058 -0.656,4.351 -1.965,6.879 l 3.44,-0.069 4.492,-12.076 h -40.086 v 1.262 h 1.615 c 1.123,0 2.176,0.258 3.16,0.773 0.701,0.375 1.194,0.924 1.473,1.651 0.281,0.724 0.422,2.234 0.422,4.529 v 14.88 h -4.914 v 2.389 h 4.914 v 15.163 c 0,1.45 -0.305,2.528 -0.912,3.229 -0.844,0.888 -2.225,1.334 -4.143,1.334 h -1.615 v 1.263 h 35.803 l 0.562,-10.179 h -1.334 c -0.516,2.433 -1.064,4.107 -1.65,5.02 -0.584,0.912 -1.44,1.625 -2.561,2.142 C 16.684,-0.164 15.068,0 12.777,0 Z"
             style="fill:#231f20;fill-opacity:1;fill-rule:nonzero;stroke:none"
             id="path44" />
        </g>
        <g
           id="g46"
           transform="translate(251.0703,20.4609)">
          <path
             d="m 0,0 h 8.916 c 2.291,0 3.908,0.164 4.844,0.49 1.123,0.518 1.976,1.229 2.562,2.143 0.584,0.912 1.133,2.586 1.651,5.019 h 1.334 L 18.744,-2.527 h -35.803 v 1.261 h 1.614 c 1.125,0 2.177,0.258 3.16,0.774 0.701,0.375 1.193,0.924 1.474,1.65 0.282,0.725 0.42,2.235 0.42,4.529 v 14.881 h -4.912 v 2.389 h 4.912 V 38.12 c 0,1.45 -0.304,2.527 -0.912,3.228 -0.842,0.889 -2.222,1.334 -4.142,1.334 h -0.18 v 1.264 h 34.369 l 0.563,-10.18 h -1.334 c -0.518,2.434 -1.067,4.108 -1.651,5.021 -0.586,0.912 -1.439,1.625 -2.562,2.141 -0.936,0.326 -2.553,0.49 -4.844,0.49 H -3.861 V 23.026 h 10.25 c 2.668,0 4.445,0.397 5.336,1.193 1.168,1.076 1.824,2.926 1.964,5.546 h 1.264 V 13.619 h -1.264 c -0.328,2.246 -0.656,3.695 -0.982,4.352 -0.375,0.795 -1.043,1.427 -2.002,1.896 -0.959,0.467 -2.398,0.701 -4.316,0.701 H -3.861 V 5.193 c 0,-2.06 0.093,-3.31 0.281,-3.754 C -3.393,0.992 -3.066,0.643 -2.598,0.385 -2.131,0.129 -1.264,0 0,0"
             style="fill:#231f20;fill-opacity:1;fill-rule:nonzero;stroke:none"
             id="path48" />
        </g>
        <g
           id="g50"
           transform="translate(297.1641,20.4609)">
          <path
             d="M 0,0 C 1.266,0 2.131,0.129 2.6,0.385 3.066,0.643 3.395,0.992 3.582,1.439 3.77,1.883 3.861,3.133 3.861,5.193 V 20.568 H -6.387 c -1.92,0 -3.359,-0.234 -4.316,-0.701 -0.959,-0.469 -1.627,-1.101 -2.002,-1.896 -0.326,-0.657 -0.654,-2.106 -0.984,-4.352 h -1.262 v 16.146 h 1.262 c 0.142,-2.62 0.796,-4.47 1.966,-5.546 0.891,-0.796 2.668,-1.193 5.336,-1.193 H 3.861 V 41.418 H -8.914 c -2.293,0 -3.908,-0.164 -4.844,-0.49 -1.123,-0.516 -1.976,-1.229 -2.562,-2.141 -0.586,-0.913 -1.135,-2.587 -1.651,-5.021 h -1.334 l 0.563,10.18 h 34.369 v -1.264 h -0.182 c -1.918,0 -3.299,-0.445 -4.142,-1.334 C 10.695,40.647 10.391,39.57 10.391,38.12 V 22.957 h 4.914 V 20.568 H 10.391 V 5.687 c 0,-2.294 0.14,-3.804 0.422,-4.529 0.279,-0.726 0.771,-1.275 1.474,-1.65 0.983,-0.516 2.035,-0.774 3.158,-0.774 h 1.616 v -1.261 h -35.803 l -0.563,10.179 h 1.334 c 0.516,-2.433 1.065,-4.107 1.651,-5.019 0.586,-0.914 1.439,-1.625 2.562,-2.143 C -12.822,0.164 -11.207,0 -8.914,0 Z"
             style="fill:#231f20;fill-opacity:1;fill-rule:nonzero;stroke:none"
             id="path52" />
        </g>
      </g>
    </g>
  </g>
</svg>
