<?xml version="1.0" encoding="UTF-8" standalone="no"?><!DOCTYPE svg PUBLIC "-//W3C//DTD SVG 1.1//EN" "http://www.w3.org/Graphics/SVG/1.1/DTD/svg11.dtd"><svg width="100%" height="100%" viewBox="0 0 428 428" version="1.1" xmlns="http://www.w3.org/2000/svg" xmlns:xlink="http://www.w3.org/1999/xlink" xml:space="preserve" xmlns:serif="http://www.serif.com/" style="fill-rule:evenodd;clip-rule:evenodd;stroke-linejoin:round;stroke-miterlimit:2;"><path d="M187.334,254.212c0,0 9.527,-27.896 11.076,-62.795c0,-0 -3.848,34.302 -11.076,62.795" style="fill:#fff;fill-rule:nonzero;"/><path d="M371.958,305.982c-1.236,-2.726 -2.999,-5.188 -5.087,-7.34c14.017,-25.204 22.013,-54.218 22.013,-85.1c0,-96.836 -78.505,-175.345 -175.345,-175.345c-96.84,0 -175.34,78.509 -175.34,175.345c0,30.513 7.8,59.204 21.507,84.194c-2.891,2.272 -4.565,4.575 -5.481,6.701c-15.32,-26.794 -24.08,-57.821 -24.08,-90.895c0,-101.286 82.109,-183.398 183.394,-183.398c101.289,0 183.399,82.112 183.399,183.398c0,33.713 -9.106,65.295 -24.98,92.44m-158.419,90.957c-31.535,-0 -61.209,-7.964 -87.127,-21.982c0.078,0 0.149,0.008 0.227,0.008c2.758,0 5.625,-0.315 8.516,-0.937c1.907,-0.405 3.659,-0.762 5.272,-1.077c22.256,10.226 47.015,15.936 73.112,15.936c25.626,0 49.967,-5.501 71.911,-15.38c1.142,0.212 2.307,0.438 3.523,0.698c2.896,0.621 5.762,0.936 8.519,0.936c1.082,-0 2.108,-0.058 3.102,-0.146c-25.901,13.996 -55.549,21.944 -87.055,21.944m-136.536,-254.851c0.444,-0.842 1.486,-1.169 2.331,-0.725c0.843,0.442 1.169,1.485 0.726,2.329c-11.213,21.389 -17.139,45.543 -17.139,69.85c-0,21.568 4.459,42.388 13.255,61.88c0.392,0.868 0.005,1.89 -0.864,2.281c-0.23,0.105 -0.471,0.153 -0.709,0.153c-0.657,0 -1.285,-0.377 -1.573,-1.016c-8.998,-19.94 -13.561,-41.239 -13.561,-63.298c0,-24.864 6.063,-49.572 17.534,-71.454m50.769,-44.29c1.922,1.085 2.856,1.353 3.299,1.389l0.153,0.004c0.541,0 1.11,-0.211 1.691,-0.63c0.257,-0.184 0.608,-0.141 0.812,0.095l0.471,0.551c0.105,0.121 0.157,0.28 0.145,0.438c-0.013,0.16 -0.088,0.308 -0.211,0.413l-6.813,5.842c-0.252,0.217 -0.634,0.187 -0.851,-0.065l-0.473,-0.549c-0.209,-0.243 -0.192,-0.608 0.039,-0.829c0.75,-0.723 0.869,-1.103 0.885,-1.233c0.028,-0.261 -0.042,-0.48 -0.23,-0.701c-0.322,-0.375 -0.89,-0.823 -1.685,-1.328l-0.061,-0.036l-9.469,3.605l1.298,3.475c0.441,1.182 0.761,1.696 0.952,1.918c0.176,0.201 0.379,0.299 0.659,0.313l0.003,-0c0.161,-0 0.598,-0.085 1.628,-0.849c0.255,-0.191 0.614,-0.148 0.821,0.095l0.465,0.549c0.214,0.253 0.184,0.633 -0.069,0.849l-5.447,4.667c-0.109,0.095 -0.249,0.145 -0.392,0.145c-0.017,0 -0.032,0 -0.049,-0.001c-0.16,-0.013 -0.308,-0.089 -0.412,-0.212l-0.465,-0.55c-0.184,-0.218 -0.19,-0.537 -0.014,-0.762c0.687,-0.875 0.77,-1.287 0.774,-1.422c0.007,-0.766 -0.324,-2.089 -0.982,-3.919l-1.268,-3.375l-4.414,1.676c-0.249,0.095 -0.53,0.015 -0.694,-0.197c-0.162,-0.21 -0.167,-0.503 -0.012,-0.719l1.369,-1.912c0.069,-0.098 0.167,-0.172 0.28,-0.213l2.595,-0.969l-6.01,-16.051c-0.088,-0.236 -0.02,-0.503 0.172,-0.669l0.457,-0.394c0.194,-0.167 0.473,-0.194 0.694,-0.067l20.359,11.628Zm224.713,180.042c-0.238,-0 -0.479,-0.049 -0.708,-0.153c-0.869,-0.392 -1.255,-1.414 -0.863,-2.282c8.79,-19.487 13.248,-40.301 13.248,-61.863c-0,-24.316 -5.928,-48.473 -17.143,-69.86c-0.442,-0.845 -0.118,-1.888 0.728,-2.33c0.844,-0.442 1.886,-0.116 2.329,0.727c11.473,21.88 17.537,46.592 17.537,71.463c-0,22.055 -4.559,43.346 -13.554,63.282c-0.288,0.638 -0.916,1.016 -1.574,1.016m-149.481,84.882c0.605,-1.34 1.411,-2.345 2.397,-2.991c0.755,-0.512 1.56,-0.775 2.382,-0.775c1.481,0.046 2.687,0.769 3.697,2.153c1.173,1.6 1.727,3.746 1.645,6.381c-0.057,1.807 -0.375,3.373 -0.945,4.652c-0.587,1.316 -1.344,2.286 -2.25,2.885c-0.865,0.577 -1.731,0.871 -2.567,0.871c-0.008,-0 -0.108,-0.001 -0.115,-0.001c-1.697,-0.052 -3.076,-1.068 -4.098,-3.02c-0.807,-1.543 -1.181,-3.395 -1.114,-5.51c0.058,-1.795 0.384,-3.358 0.968,-4.645m109.366,-4.334c1.343,0.695 2.316,1.466 2.889,2.29c0.21,0.511 0.338,1.018 0.37,1.518c0.178,2.821 -2.621,5.004 -3.4,5.553c-0.103,0.055 -0.193,0.114 -0.268,0.168c-2.887,1.733 -7.719,3.771 -14.469,3.771c-2.192,0 -4.468,-0.233 -6.778,-0.667c7.539,-3.703 14.775,-7.928 21.656,-12.633m-200.204,9.351c-0.075,-0.054 -0.163,-0.11 -0.267,-0.165c-0.568,-0.403 -2.181,-1.661 -2.964,-3.391c-0.3,-0.659 -0.483,-1.387 -0.432,-2.163c0.017,-0.261 0.067,-0.525 0.132,-0.789c0.729,-1.317 2.419,-2.547 4.957,-3.618c6.884,4.788 14.126,9.09 21.68,12.865c-0.281,0.059 -0.55,0.113 -0.839,0.175c-2.657,0.572 -5.279,0.861 -7.794,0.861c-3.136,0 -5.837,-0.45 -8.142,-1.095c-2.661,-0.744 -4.785,-1.752 -6.331,-2.68m124.305,-222.035c0.302,0.115 0.577,0.058 0.789,-0.121c1.396,-0.914 0.304,-2.854 0.304,-2.854c-0.202,-1.15 -0.119,-2.317 0.102,-3.449c0.431,-2.224 2.049,-4.954 4.107,-6.036c0.186,-0.101 0.149,-0.428 -0.097,-0.385c-2.183,0.358 -3.774,1.214 -4.946,2.758c-0,0 -2.478,-3.351 1.478,-7.604c3.244,-3.481 6.778,-3.256 10.958,-2.564c-0.015,0.676 0.092,1.344 0.309,1.967c-0,0 1.087,2.949 2.55,2.528c1.469,-0.418 -0.791,-4.678 0.18,-6.608c0.334,-0.955 0.833,-1.878 1.662,-2.781c2.39,-2.556 5.518,-4.376 8.86,-5.393c7.119,-2.162 15.474,-1.481 18.636,5.857c0,0.226 0.005,0.469 0.041,0.702c-1.117,-0.153 -2.269,-0.193 -3.445,-0.21c-0.256,-0.01 -0.229,0.362 -0.011,0.412c2.055,0.521 4.164,1.426 5.999,2.487c0.851,0.483 2.092,1.29 2.187,2.376c0.113,1.119 -0.303,2.178 -0.435,3.272c-0.052,0.388 0.355,0.584 0.66,0.398c2.705,-1.641 2.267,-5.305 -0.179,-6.979c-0.681,-0.479 -1.394,-0.822 -2.121,-1.1c0.257,-0.32 0.393,-0.755 0.257,-1.246c-0.101,-0.378 -0.227,-0.746 -0.362,-1.1c0.689,-1.05 1.565,-1.86 3.088,-2.123c2.278,-0.38 4.633,-0.024 6.736,0.91c4.151,1.837 7.669,5.741 4.508,10.048c0,0 -0.56,0.31 -0.321,1.335c0.267,0.815 1.358,1.361 2.114,0.654c4.725,0.117 10.503,4.442 8.272,9.716c-0.007,-0.213 -0,-0.424 -0.01,-0.614c-0.174,-3.059 -2.338,-5.664 -5.301,-6.319c-0.162,-0.037 -0.318,0.189 -0.191,0.324c1.654,1.847 2.977,3.678 3.19,6.226c0.075,0.956 -0.154,1.795 -0.494,2.563c-0.174,0.337 -0.419,0.646 -0.691,0.943c-2.84,3.094 -10.407,4.181 -10.407,4.181l0.348,-1.497c0.083,-0.314 0.148,-0.629 0.203,-0.946c0.484,-2.696 -0.084,-5.448 -2.233,-7.888c-0.457,-0.511 -1.552,-0.276 -1.382,0.544c0.597,2.804 0.733,5.499 0.159,7.954c-0.028,0.125 -0.05,0.254 -0.083,0.377c-0.05,0.179 -0.11,0.345 -0.163,0.516c-0.081,0.279 -0.185,0.569 -0.299,0.835c-0.011,0.021 -0.011,0.038 -0.02,0.047c-0.105,0.267 -0.224,0.536 -0.356,0.793c-0.014,0.034 -0.029,0.061 -0.045,0.092c-0.124,0.248 -0.258,0.488 -0.407,0.72c-0.018,0.044 -0.046,0.082 -0.073,0.122c-0.141,0.236 -0.297,0.462 -0.458,0.69c-0.799,1.096 -1.72,2.295 -3.148,3.014c-7.337,3.663 -10.781,0.327 -12.04,-1.562c-0.416,-0.627 -0.596,-1.095 -0.596,-1.095c0.097,-0.023 0.193,-0.043 0.283,-0.07c0.036,-0.01 0.067,-0.024 0.101,-0.033c1.783,-0.508 3.522,-1.303 5.143,-2.301c2.23,-1.375 4.232,-3.138 5.754,-5.145c0.141,-0.185 -0.046,-0.479 -0.28,-0.381c-2.847,1.332 -5.455,3.337 -8.455,4.348c-0.885,0.3 -1.752,0.585 -2.634,0.797c-0.995,0.239 -2.006,0.384 -3.075,0.322c-0.49,-0.034 -0.926,-0.156 -1.357,-0.311c-0,0 -3.982,-2.44 -3.581,-0.067c0.255,1.18 1.117,1.961 2.225,2.447c0.545,0.239 1.146,0.413 1.773,0.515c-0.026,0.027 -0.053,0.054 -0.085,0.092c-0.1,0.107 -0.197,0.215 -0.311,0.311c-0.066,0.063 -0.134,0.11 -0.203,0.171c-0.091,0.085 -0.189,0.161 -0.296,0.239c-0.067,0.058 -0.148,0.101 -0.222,0.155c-0.109,0.065 -0.204,0.132 -0.303,0.197c-0.082,0.042 -0.171,0.08 -0.251,0.13c-0.105,0.051 -0.205,0.105 -0.305,0.148c-0.084,0.041 -0.179,0.081 -0.268,0.116c-0.102,0.043 -0.209,0.081 -0.31,0.114c-0.093,0.03 -0.195,0.061 -0.283,0.088c-0.107,0.026 -0.209,0.05 -0.311,0.077c-0.1,0.02 -0.195,0.044 -0.3,0.064c-0.101,0.023 -0.204,0.03 -0.304,0.05c-0.103,0.018 -0.207,0.027 -0.319,0.037c-0.089,0.018 -0.194,0.018 -0.289,0.028c-0.121,0.004 -0.223,0.004 -0.337,0.01c-0.094,-0 -0.182,-0.006 -0.289,-0c-0.112,-0.006 -0.223,-0.006 -0.346,-0.015c-0.087,-0.005 -0.171,-0.02 -0.255,-0.025c-0.129,-0.017 -0.253,-0.02 -0.384,-0.042c-0.06,-0.007 -0.134,-0.029 -0.201,-0.033c-0.143,-0.024 -0.281,-0.054 -0.423,-0.084c-0.023,-0.004 -0.05,-0.007 -0.076,-0.017c-0.563,-0.122 -1.119,-0.303 -1.646,-0.536c-0.32,-0.14 -0.627,-0.3 -0.927,-0.473c-2.428,-1.39 -4.109,-3.812 -3.51,-6.522c0.134,-0.6 0.366,-1.211 0.737,-1.828c0.187,-0.317 -0.056,-0.685 -0.427,-0.574c-0.141,0.047 -0.26,0.101 -0.389,0.145c-1.135,0.634 -1.899,1.714 -2.399,2.693c-0.578,1.135 -0.798,2.131 -0.798,2.131c-0.82,1.766 -3.635,3.509 -3.635,3.509c-2.166,0.987 -4.536,0.917 -6.53,-1.457c-0.456,-0.55 -1.523,-0.752 -1.97,-0.03c-1.354,2.224 -2.932,4.46 -4.764,6.11c-1.196,1.076 -2.502,1.892 -3.922,2.297c-1.472,0.42 -3.066,0.403 -4.799,-0.268c0.141,-0.171 0.23,-0.349 0.301,-0.544c0.001,-0.001 0.001,-0.001 0.001,-0.002c0.001,0.001 0.004,0.001 0.005,0.001c1.331,0.315 3.015,0.285 4.288,-0.338c0.306,-0.15 0.578,-0.341 0.824,-0.564c0.312,-0.282 0.586,-0.608 0.766,-1.02c0.105,-0.239 -0.049,-0.549 -0.318,-0.582c-0.557,-0.07 -1.095,0.008 -1.631,0.128c-1.219,0.274 -2.404,0.797 -3.686,0.511c-2.285,-0.511 -2.241,-2.443 -2.94,-4.304c-0.041,-0.098 -0.185,-0.095 -0.223,0c-0.712,1.44 -0.361,3.425 0.684,4.759c-0.504,0.408 -1.018,0.82 -1.618,0.833c-0.206,0.003 -0.408,-0.06 -0.595,-0.172c-0.163,-0.081 -0.309,-0.202 -0.457,-0.344c-0.007,-0.01 -0.019,-0.024 -0.03,-0.037c-0.274,-0.28 -0.508,-0.63 -0.705,-1.015c-0.017,-0.043 -0.032,-0.081 -0.053,-0.114c-0.088,-0.182 -0.164,-0.37 -0.222,-0.566c-0.063,-0.189 -0.121,-0.405 -0.17,-0.62c-0.004,-0.031 -0.009,-0.058 -0.02,-0.088c-0.041,-0.216 -0.07,-0.438 -0.094,-0.668c-0.09,-0.933 0.929,-1.859 0.529,-2.665c-2.05,-4.143 -0.128,-6.364 2.087,-7.591c2.899,-1.6 6.121,-1.27 9.269,-1.327c0.105,0.076 0.209,0.157 0.323,0.231c0.104,0.049 0.229,0.051 0.345,0.049c-0.063,1.782 0.32,3.504 1.71,4.033m-109.611,-6.801c0.625,-2.531 2.286,-3.795 4.811,-3.954c0.526,-0.027 0.943,0.058 1.449,0.146c0.285,0.047 0.546,-0.054 0.749,-0.231c1.537,-6.585 3.162,-8.196 3.162,-8.196c2.433,-3.525 6.316,-5.861 11.071,-6.643c7.769,-1.267 13.414,2.791 20.422,4.783c-1.686,0.795 -4.066,2.447 -2.765,4.331c0.33,0.451 0.887,0.408 1.127,-0.101c0.485,-1.045 0.498,-1.888 1.675,-2.514c1.102,-0.594 2.289,-0.948 3.515,-1.245c1.929,-0.464 4.051,-0.836 6.027,-0.471c0.111,0.023 0.128,-0.145 0.04,-0.182c-2.289,-0.947 -5.435,-1.062 -7.94,-0.414c-0,-0.103 -0.014,-0.204 -0.072,-0.307c-1.091,-3.499 2.236,-5.966 2.236,-5.966c3.393,-1.898 7.28,-2.154 11.883,-0.341c3.293,1.304 4.841,2.106 7.281,4.716c1.361,1.448 2.339,3.209 3.939,4.385c0.37,0.278 1.029,-0.031 1.016,-0.52c-0.055,-1.257 -0.439,-2.44 -1.079,-3.536c5.257,-8.364 17.489,8.647 19.305,13.207c2.677,6.69 4.941,16.791 -0.134,23.006c-2.792,3.412 -5.744,4.649 -8.621,4.474c-3.943,-0.239 -7.745,-3.138 -10.801,-6.811c-0.916,-1.101 -1.765,-2.271 -2.532,-3.457c-0.988,-1.533 -1.839,-3.093 -2.515,-4.572c-0.001,-0.002 -0.004,-0.006 -0.004,-0.008c0.03,0.008 0.062,0.015 0.091,0.023c0.168,0.05 0.335,0.106 0.515,0.135c0.238,0.045 0.497,0.075 0.769,0.092c2.069,0.128 4.917,-0.595 5.267,-2.784c0.045,-0.273 -0.228,-0.537 -0.491,-0.547c-1.763,-0.071 -3.27,1.187 -5.144,1.031c-1.259,-0.1 -2.311,-0.434 -3.242,-1.004c-0.088,-0.084 -0.189,-0.148 -0.296,-0.199c-0.748,-0.52 -1.4,-1.179 -2.009,-2.001c0,-0 -1.297,-1.622 -0.991,0.05c0.1,0.327 0.229,0.654 0.377,0.954c0,-0 1.196,2.362 2.046,2.911c0,0 -0.375,0.277 -0.969,0.627c-0.927,0.548 -2.402,1.278 -3.894,1.434c-3.213,0.341 -5.115,-0.585 -5.913,-3.164c-0.13,-0.419 -0.237,-0.871 -0.309,-1.38c-0,-0 0.155,-2.164 -4.112,0.573c-0.016,0.008 -0.03,0.013 -0.044,0.02c-3.208,1.642 -5.802,1.09 -7.681,-1.354c-0.758,-0.985 -1.404,-2.267 -1.921,-3.85c-0.26,-0.789 -1.416,-0.563 -1.274,0.28c0.182,0.991 0.432,1.887 0.724,2.707c-0.247,0.094 -0.486,0.199 -0.729,0.299c-3.318,1.358 -6.374,3.103 -9.886,3.906c-0.597,0.138 -1.207,0.253 -1.835,0.327c-0.989,0.119 -2.148,0.236 -3.332,0.252c-1.645,0.021 -3.341,-0.161 -4.71,-0.832c-0.326,-0.159 -0.637,-0.343 -0.92,-0.563c-0.52,-0.4 -0.896,-0.846 -1.234,-1.297c-0.977,-1.553 -0.688,-3.273 -0.688,-3.273c2.117,0.089 4.557,-0.634 6.013,-1.243c0.207,-0.084 0.126,-0.408 -0.087,-0.405c-1.51,0.051 -3.003,0.375 -4.517,0.297c-0.843,-0.037 -1.759,-0.07 -2.564,-0.364c-0.566,-0.203 -1.055,-0.512 -1.653,-0.647c-0.414,-0.085 -0.992,0.35 -0.673,0.805c0.438,0.624 1.052,1.015 1.76,1.25c-0.644,1.992 0.023,3.52 0.676,4.618c-0.062,0.033 -0.122,0.071 -0.183,0.106c-1.594,0.88 -2.999,2.196 -4.947,1.998c-1.529,-0.153 -3.221,-1.652 -4.117,-2.815c-0.218,-0.279 -0.398,-0.576 -0.561,-0.881c-0.919,-1.714 -1.022,-3.783 -0.557,-5.671m196.351,144.996c-10.609,-1.617 -22.929,-3.12 -36.537,-4.37l43.381,-7.648c-2.073,4.136 -4.357,8.149 -6.844,12.018m-3.702,-82.884l-7.878,1.391l-7.402,-41.969c-0.711,-4.018 -0.393,-7.149 0.946,-9.384c1.064,-1.611 2.689,-2.908 4.834,-3.911l9.5,53.873Zm-193.308,67.661c-1.163,-0.934 -1.904,-2.065 -2.2,-3.398c-0.305,-1.311 0.049,-4.823 1.051,-10.528l7.509,-42.549l28.365,4.997c5.313,0.937 9.183,2.289 11.609,4.048c2.423,1.77 3.964,3.844 4.613,6.226c0.584,1.978 0.787,6.152 0.594,12.529l3.495,0.619l7.884,-44.692l-3.492,-0.617c-1.675,7.182 -4.392,11.979 -8.153,14.388c-2.848,1.768 -7.965,2.003 -15.352,0.698l-28.37,-4.998l8.981,-50.911l35.361,6.239c6.344,1.119 10.735,2.359 13.171,3.724c2.852,1.972 4.874,4.365 6.047,7.176c1.17,2.811 1.871,7.709 2.117,14.698l3.693,0.651l2.515,-21c0.267,-0.002 0.534,-0.009 0.827,-0.021l0.653,-0.023c0.187,-0.011 4.606,-0.328 7.24,-2.75c2.305,-1.555 3.738,-3.466 4.792,-6.391c0.186,-0.515 0.34,-1.04 0.486,-1.565c0.477,1.431 1.339,2.427 2.226,3.103l-1.115,0.196l3.408,28.451l3.69,-0.654c0.248,-6.986 0.949,-11.884 2.121,-14.695c1.174,-2.811 3.193,-5.204 6.047,-7.176c2.43,-1.365 6.826,-2.608 13.164,-3.724l23.69,-4.18c1.731,1.531 3.921,2.345 6.377,2.345c1.904,0 3.907,-0.48 5.838,-1.336l8.438,47.843l-28.367,4.998c-7.387,1.305 -12.503,1.07 -15.353,-0.698c-3.76,-2.409 -6.474,-7.206 -8.146,-14.388l-3.493,0.61l7.879,44.699l3.497,-0.619c-0.187,-6.377 0.011,-10.551 0.589,-12.529c0.657,-2.382 2.194,-4.456 4.618,-6.226c2.428,-1.759 6.295,-3.111 11.61,-4.048l28.365,-4.997l7.503,42.549c1.006,5.705 1.361,9.217 1.058,10.528c-0.303,1.333 -1.038,2.464 -2.204,3.398c-1.133,0.915 -3.382,1.669 -6.716,2.282l-24.963,4.4c-6.346,1.12 -10.898,1.457 -13.65,1.008c-3.36,-0.876 -6.069,-2.435 -8.137,-4.673c-2.066,-2.245 -4.397,-6.61 -7.019,-13.092l-3.692,0.648l4.064,17.365c-10.549,-0.391 -21.472,-0.609 -32.663,-0.609c-6.795,0 -14.155,0.083 -21.908,0.293l3.988,-17.043l-3.694,-0.654c-2.619,6.487 -4.954,10.854 -7.02,13.092c-2.066,2.238 -4.773,3.797 -8.131,4.673c-2.756,0.449 -7.309,0.112 -13.653,-1.008l-24.903,-4.389c-3.367,-0.614 -5.634,-1.373 -6.779,-2.293m-8.926,-121.533c2.139,1.004 3.762,2.301 4.826,3.91c1.343,2.235 1.66,5.366 0.954,9.384l-7.4,41.969l-7.881,-1.391l9.501,-53.872Zm-20.265,124.702l41.756,7.36c-11.649,1.153 -23.414,2.688 -34.881,4.713c-2.5,-3.886 -4.793,-7.917 -6.875,-12.073m-40.516,36.452c0.02,-0.19 0.038,-0.382 0.071,-0.576c0.31,-1.803 1.413,-4.391 4.733,-7.137c3.345,-2.765 8.942,-5.691 18.254,-8.128c8.439,-2.209 17.267,-4.06 26.271,-5.616c14.854,-2.569 30.191,-4.324 45.093,-5.493c12.022,-0.944 23.755,-1.507 34.72,-1.815c8.03,-0.228 15.652,-0.319 22.665,-0.319c11.463,0 22.643,0.231 33.421,0.639c11.377,0.431 22.301,1.066 32.609,1.852c17.727,1.354 33.624,3.157 46.925,5.143c11.956,1.784 21.82,3.719 28.978,5.609c6.47,1.709 11.522,5.227 14.967,9.127c2.3,2.602 3.876,5.368 4.667,7.889c0.045,0.144 0.102,0.291 0.142,0.433c0.883,3.141 0.545,5.762 -0.951,7.404c-0.851,0.627 -4.862,3.626 -9.81,7.598c-9.382,7.531 -22.138,18.564 -23.143,23.598c-0.135,0.671 -0.335,1.318 -0.565,1.955c-2.738,7.552 -11.828,12.536 -16.983,14.823c-0.004,0.002 -0.007,0.003 -0.009,0.005c0.21,-0.544 0.364,-1.111 0.453,-1.691c0,-0.003 0,-0.005 0.002,-0.007c0.022,-0.149 0.033,-0.3 0.045,-0.451c0.013,-0.149 0.026,-0.296 0.03,-0.446c0.003,-0.114 -0.001,-0.23 -0.004,-0.344c-0.008,-0.265 -0.02,-0.532 -0.063,-0.801c-0.316,-2.011 -1.576,-3.737 -3.749,-5.173c-0.784,-0.517 -1.686,-0.996 -2.711,-1.437c-1.62,-0.698 -3.532,-1.303 -5.747,-1.802c-0.236,-0.053 -0.463,-0.103 -0.698,-0.155c-13.362,-3.011 -25.717,-5.435 -37.386,-7.324c-0.574,-0.093 -1.155,-0.193 -1.726,-0.283c-0.579,-0.091 -1.15,-0.178 -1.727,-0.268c-9.804,-1.517 -19.137,-2.646 -28.169,-3.41c-9.826,-0.831 -19.31,-1.236 -28.682,-1.236c-7.044,0 -14.098,0.24 -21.187,0.708c-9.378,0.619 -18.817,1.649 -28.365,3.099c-0.575,0.087 -1.151,0.174 -1.727,0.264c-0.574,0.09 -1.151,0.187 -1.725,0.281c-12.252,1.984 -24.697,4.65 -37.446,8.024c-0.28,0.071 -0.559,0.141 -0.839,0.215c-2.47,0.661 -4.559,1.429 -6.278,2.3c-0.087,0.045 -0.17,0.091 -0.255,0.134c-3.131,1.64 -4.955,3.645 -5.447,5.993c-0.029,0.141 -0.063,0.279 -0.083,0.423c-0.006,0.038 -0.003,0.075 -0.009,0.114c-0.069,0.581 -0.064,1.151 0.015,1.703c-5.18,-3.826 -13.618,-10.633 -17.786,-17.164c-0.593,-0.929 -1.101,-1.852 -1.5,-2.761c-2.623,-5.977 -16.17,-19.088 -21.893,-24.214c-1.201,-1.076 -2.065,-1.807 -2.404,-2.038c-2.731,-1.858 -5.396,-5.223 -4.994,-9.244m114.79,59.525l-3.778,-1.992l-3.774,1.992l0.721,-4.21l-3.058,-2.974l4.223,-0.616l1.888,-3.826l1.888,3.826l4.224,0.616l-3.059,2.974l0.725,4.21Zm20.972,3.651c0.732,0.085 1.248,0.119 1.527,0.095c0.237,-0.016 0.435,-0.07 0.609,-0.164c0.187,-0.097 0.358,-0.252 0.534,-0.481c0.154,-0.199 0.399,-0.303 0.653,-0.276l0.401,0.047c0.232,0.03 0.435,0.169 0.546,0.373c0.112,0.205 0.116,0.452 0.012,0.661l-1.358,2.727c-0.123,0.246 -0.372,0.396 -0.643,0.396c-0.027,0 -0.054,-0.001 -0.082,-0.003l-8.757,-1.001c-0.188,-0.022 -0.362,-0.119 -0.48,-0.268c-0.119,-0.15 -0.173,-0.34 -0.15,-0.529l0.047,-0.405c0.023,-0.198 0.13,-0.379 0.293,-0.497c2.784,-2.013 4.795,-3.708 5.973,-5.032c1.117,-1.253 1.747,-2.431 1.871,-3.503c0.086,-0.755 -0.066,-1.377 -0.461,-1.903c-0.385,-0.51 -0.869,-0.792 -1.478,-0.864c-0.569,-0.066 -1.104,0.04 -1.586,0.322c-0.504,0.291 -0.9,0.752 -1.216,1.415c-0.132,0.275 -0.423,0.443 -0.729,0.403l-0.405,-0.046c-0.206,-0.023 -0.39,-0.135 -0.508,-0.304c-0.119,-0.171 -0.157,-0.382 -0.107,-0.582c0.369,-1.478 1.047,-2.601 2.015,-3.34c0.985,-0.752 2.153,-1.058 3.477,-0.904c1.396,0.159 2.525,0.754 3.355,1.768c0.835,1.019 1.186,2.164 1.043,3.405c-0.1,0.852 -0.394,1.69 -0.872,2.49c-0.712,1.182 -1.787,2.398 -3.193,3.615c-1.04,0.902 -1.864,1.606 -2.497,2.137l2.166,0.248Zm27.881,1.413l-0.397,-8.438c-0.056,-1.348 -0.132,-1.792 -0.172,-1.938c-0.027,-0.089 -0.056,-0.125 -0.057,-0.125c-0.078,0.012 -0.306,0.039 -0.858,0.314c-0.35,0.171 -0.776,0.038 -0.958,-0.311l-0.17,-0.33c-0.18,-0.348 -0.05,-0.776 0.295,-0.963l3.556,-1.92c0.094,-0.052 0.2,-0.08 0.305,-0.085l0.365,-0.017c0.194,-0.016 0.377,0.056 0.519,0.187c0.141,0.127 0.223,0.307 0.231,0.497l0.576,13.001c0.044,1.04 0.111,1.283 0.125,1.322c0.005,0.012 0.017,0.039 0.094,0.075c0.005,0.003 0.18,0.073 0.822,0.073l0.207,-0.002l0.015,-0c0.381,-0 0.698,0.298 0.717,0.679l0.021,0.409c0.01,0.192 -0.057,0.379 -0.186,0.522c-0.131,0.141 -0.312,0.224 -0.502,0.234l-5.619,0.217l-0.027,0c-0.18,0 -0.356,-0.068 -0.488,-0.191c-0.14,-0.13 -0.222,-0.311 -0.229,-0.501l-0.014,-0.408c-0.013,-0.39 0.288,-0.719 0.676,-0.741c0.818,-0.047 1.025,-0.133 1.046,-0.141c0.079,-0.045 0.092,-0.076 0.096,-0.086l-0,0.001c-0.003,-0 0.055,-0.271 0.011,-1.334m9.73,-7.994c-0.483,-0.65 -0.769,-1.361 -0.851,-2.116c-0.125,-1.169 0.22,-2.234 1.025,-3.167c0.789,-0.913 1.905,-1.455 3.315,-1.606c1.389,-0.147 2.56,0.118 3.502,0.796c0.969,0.694 1.513,1.577 1.622,2.623c0.077,0.687 -0.089,1.421 -0.493,2.17c-0.3,0.554 -0.843,1.171 -1.652,1.878c1.006,0.663 1.705,1.211 2.122,1.668c0.734,0.799 1.162,1.696 1.269,2.67c0.131,1.256 -0.234,2.385 -1.085,3.362c-0.835,0.962 -2.004,1.531 -3.474,1.688c-0.25,0.027 -0.494,0.039 -0.729,0.039c-1.285,0 -2.384,-0.397 -3.264,-1.185c-0.839,-0.775 -1.316,-1.676 -1.429,-2.687c-0.083,-0.809 0.097,-1.628 0.535,-2.441c0.32,-0.598 0.828,-1.242 1.54,-1.949c-0.939,-0.672 -1.581,-1.245 -1.953,-1.743m30.595,2.926l-3.771,-1.988l-3.778,1.988l0.723,-4.21l-3.056,-2.972l4.221,-0.618l1.89,-3.825l1.884,3.825l4.224,0.618l-3.053,2.972l0.716,4.21Zm69.06,-251.142c-0.191,-0.272 -0.127,-0.649 0.145,-0.842l1.112,-0.785c0.274,-0.191 0.649,-0.128 0.842,0.144l1.27,1.796l6.577,-4.644c0.545,-0.385 0.869,-0.771 0.965,-1.144c0.098,-0.483 -0.118,-1.122 -0.648,-1.872l-0.535,-0.756c-0.093,-0.131 -0.13,-0.294 -0.1,-0.453c0.027,-0.158 0.115,-0.298 0.248,-0.39l0.592,-0.414c0.273,-0.188 0.647,-0.126 0.84,0.146l11.791,16.687c0.184,0.263 0.132,0.622 -0.119,0.822l-4.565,3.616c-0.13,0.104 -0.301,0.148 -0.462,0.124c-0.164,-0.024 -0.311,-0.114 -0.407,-0.25l-0.437,-0.624c-0.166,-0.233 -0.142,-0.548 0.05,-0.757c1.135,-1.227 1.543,-1.896 1.686,-2.24c0.185,-0.471 0.227,-0.983 0.118,-1.558c-0.084,-0.278 -0.388,-0.94 -1.267,-2.183l-3.857,-5.463l-7.589,5.36l3.031,4.286c1.027,1.459 1.664,1.787 1.951,1.853c0.68,0.147 1.654,-0.128 2.772,-0.834c0.271,-0.168 0.628,-0.1 0.815,0.163l0.418,0.59c0.092,0.13 0.129,0.293 0.102,0.451c-0.027,0.158 -0.115,0.298 -0.246,0.391l-7.522,5.32c-0.273,0.191 -0.649,0.128 -0.842,-0.145l-0.417,-0.59c-0.175,-0.245 -0.142,-0.58 0.075,-0.786c1.157,-1.104 1.494,-1.566 1.591,-1.745c0.184,-0.33 0.234,-0.71 0.156,-1.165c-0.076,-0.505 -0.41,-1.174 -0.989,-1.998l-3.029,-4.285l-6.671,4.717c-1.251,0.878 -1.46,1.144 -1.49,1.187c-0.052,0.083 -0.109,0.204 -0.086,0.428c0.006,0.047 0.061,0.34 0.567,1.05l2.591,3.669c0.847,1.194 1.531,1.99 2.027,2.364c0.428,0.322 0.981,0.564 1.645,0.721c0.794,-0.626 1.522,-1.571 2.167,-2.813c0.098,-0.189 0.29,-0.313 0.501,-0.325c0.214,-0.014 0.418,0.09 0.536,0.265l1.098,1.629c0.138,0.204 0.138,0.473 -0.003,0.678l-4.146,6.07c-0.112,0.164 -0.295,0.261 -0.494,0.264l-0.005,-0c-0.196,-0 -0.379,-0.096 -0.494,-0.257l-13.203,-18.684c-0.193,-0.273 -0.128,-0.649 0.145,-0.842l0.587,-0.415c0.271,-0.192 0.647,-0.128 0.84,0.143l0.534,0.752c0.319,0.451 0.705,0.786 1.181,1.028c0.275,0.139 0.543,0.17 0.835,0.097c0.197,-0.049 0.729,-0.27 2.052,-1.202l6.44,-4.552l-1.27,-1.798Zm-17.562,-34.43l-0.696,-0.608c-0.251,-0.22 -0.278,-0.599 -0.059,-0.85l0.47,-0.543c0.105,-0.121 0.255,-0.195 0.415,-0.207c0.16,-0.008 0.317,0.042 0.438,0.148l5.224,4.557c0.123,0.104 0.196,0.254 0.207,0.414c0.011,0.16 -0.041,0.317 -0.147,0.437l-0.499,0.573c2.609,1.112 4.354,2.24 5.327,3.437c1.033,1.443 1.544,3.01 1.535,4.686c-0.037,1.689 -0.606,3.172 -1.692,4.418c-1.157,1.33 -2.59,2.145 -4.266,2.425c-1.445,0.24 -3.025,-0.008 -4.716,-0.742l-1.97,14.434c-0.29,2.533 0.17,4.743 1.368,6.555c0.111,0.167 0.132,0.376 0.056,0.562l-0.096,0.232c-0.073,0.181 -0.229,0.315 -0.418,0.36c-0.047,0.01 -0.093,0.016 -0.14,0.016c-0.145,0 -0.287,-0.052 -0.398,-0.149c-2.728,-2.38 -4.218,-5.03 -4.431,-7.874l0.018,-2.209l1.876,-14.501c-0.297,-0.2 -0.609,-0.444 -0.942,-0.735l-0.359,-0.314l-4.613,5.279c-1.375,1.575 -1.486,2.142 -1.489,2.28c-0.03,0.576 0.218,1.072 0.756,1.54l0.724,0.638c0.249,0.218 0.275,0.598 0.058,0.849l-0.47,0.542c-0.106,0.121 -0.255,0.195 -0.415,0.207c-0.162,0.006 -0.318,-0.043 -0.44,-0.147l-7.879,-6.877c-0.25,-0.218 -0.277,-0.599 -0.06,-0.85l0.472,-0.542c0.217,-0.252 0.6,-0.279 0.851,-0.06l0.695,0.603c0.629,0.548 1.192,0.715 1.79,0.518c0.149,-0.054 0.666,-0.342 1.904,-1.76l11.276,-12.92c1.392,-1.597 1.533,-2.18 1.544,-2.32c0.02,-0.514 -0.245,-1.012 -0.809,-1.502m-41.403,0.35c0.034,0.473 0.217,0.924 0.559,1.379c0.234,0.247 0.792,0.684 2.113,1.392l4.524,2.403c0.748,0.397 1.024,0.428 1.086,0.428c0.196,-0.004 0.298,-0.068 0.358,-0.118c0.041,-0.036 0.279,-0.286 0.981,-1.612l3.822,-7.186l-4.588,-2.444c-1.092,-0.578 -1.729,-0.714 -2.077,-0.725l-0.102,-0.001c-0.403,-0 -0.726,0.094 -0.997,0.292c-0.156,0.113 -0.562,0.495 -1.521,1.79c-0.134,0.181 -0.343,0.279 -0.554,0.279c-0.111,-0 -0.221,-0.026 -0.325,-0.081l-0.639,-0.34c-0.162,-0.086 -0.283,-0.233 -0.337,-0.408c-0.053,-0.174 -0.035,-0.364 0.051,-0.526l4.354,-8.183c0.124,-0.234 0.362,-0.367 0.609,-0.367c0.109,-0 0.219,0.026 0.321,0.08l0.642,0.337c0.326,0.171 0.46,0.567 0.305,0.902c-0.554,1.194 -0.714,2.144 -0.479,2.816c0.099,0.268 0.497,0.839 2.064,1.67l4.587,2.443l4.314,-8.103l-5.866,-3.125c-1.336,-0.704 -2.008,-0.923 -2.34,-0.981c-0.06,-0.002 -0.12,-0.004 -0.177,-0.004c-0.496,-0 -0.918,0.102 -1.292,0.314c-0.323,0.18 -0.93,0.664 -1.995,1.94c-0.134,0.161 -0.329,0.248 -0.529,0.248c-0.11,0 -0.221,-0.027 -0.325,-0.081l-0.678,-0.361c-0.167,-0.089 -0.291,-0.243 -0.341,-0.426c-0.051,-0.183 -0.024,-0.378 0.075,-0.541l3.031,-5.008c0.13,-0.214 0.357,-0.333 0.591,-0.333c0.11,0 0.222,0.026 0.325,0.08l17.418,9.274c0.334,0.177 0.464,0.593 0.286,0.93l-0.336,0.639c-0.084,0.163 -0.232,0.285 -0.407,0.339c-0.067,0.02 -0.135,0.031 -0.204,0.031c-0.111,-0 -0.222,-0.027 -0.323,-0.08l-0.095,-0.051c-0.576,-0.306 -1.079,-0.462 -1.49,-0.462c-0.152,0 -0.292,0.022 -0.387,0.053c-0.341,0.134 -0.67,0.495 -0.978,1.075l-3.768,7.078l1.879,1c0.336,0.179 0.465,0.595 0.285,0.932l-0.64,1.211c-0.085,0.161 -0.232,0.283 -0.406,0.336c-0.067,0.021 -0.135,0.031 -0.203,0.031c-0.113,-0 -0.225,-0.027 -0.325,-0.08l-1.885,-1.002l-3.689,6.938c-0.782,1.465 -0.913,2.004 -0.934,2.164c-0.032,0.27 0.03,0.523 0.188,0.759c0.304,0.445 0.679,0.781 1.151,1.03l0.815,0.435c0.335,0.178 0.463,0.593 0.287,0.929l-0.337,0.641c-0.084,0.164 -0.231,0.286 -0.406,0.339c-0.067,0.021 -0.136,0.031 -0.204,0.031c-0.113,-0 -0.224,-0.027 -0.324,-0.08l-18.154,-9.657c-0.324,-0.173 -0.456,-0.568 -0.301,-0.9l2.46,-5.311c0.077,-0.172 0.225,-0.304 0.404,-0.365c0.073,-0.023 0.146,-0.035 0.221,-0.035c0.112,-0 0.222,0.027 0.322,0.079l0.677,0.357c0.286,0.153 0.429,0.487 0.341,0.8c-0.461,1.611 -0.523,2.382 -0.488,2.753m-32.128,-18.941c-0.369,-0.087 -0.6,-0.458 -0.513,-0.828l0.311,-1.336c0.042,-0.177 0.153,-0.333 0.308,-0.429c0.11,-0.068 0.236,-0.103 0.364,-0.103c0.053,-0 0.106,0.005 0.158,0.017l2.078,0.493l1.845,-7.804c0.153,-0.642 0.147,-1.128 -0.005,-1.417c-0.255,-0.435 -0.829,-0.76 -1.703,-0.97l-0.1,-0.023c-0.368,-0.088 -0.597,-0.455 -0.512,-0.825l0.158,-0.704c0.043,-0.18 0.153,-0.335 0.31,-0.433c0.11,-0.069 0.237,-0.104 0.365,-0.104c0.053,-0 0.107,0.007 0.158,0.018l19.214,4.547c0.357,0.084 0.584,0.432 0.52,0.793l-1.031,5.76c-0.035,0.187 -0.142,0.35 -0.301,0.455c-0.114,0.075 -0.246,0.114 -0.378,0.114c-0.052,0 -0.106,-0.006 -0.158,-0.019l-0.749,-0.175c-0.318,-0.074 -0.54,-0.361 -0.532,-0.689c0.04,-1.662 -0.096,-2.429 -0.216,-2.775c-0.161,-0.459 -0.455,-0.851 -0.893,-1.202c-0.301,-0.181 -0.96,-0.463 -2.41,-0.808l-6.469,-1.53l-2.115,8.932l5.057,1.198c0.722,0.169 1.331,0.255 1.808,0.255c0.468,-0 0.717,-0.081 0.838,-0.148c0.633,-0.354 1.141,-1.171 1.508,-2.43c0.088,-0.3 0.363,-0.496 0.663,-0.496c0.052,0 0.106,0.006 0.161,0.019l0.703,0.168c0.369,0.088 0.597,0.46 0.51,0.83l-2.136,9.023c-0.044,0.179 -0.155,0.333 -0.312,0.429c-0.109,0.067 -0.235,0.101 -0.361,0.101c-0.053,0 -0.108,-0.005 -0.161,-0.018l-0.703,-0.168c-0.333,-0.08 -0.556,-0.392 -0.526,-0.733c0.147,-1.649 0.08,-2.185 0.04,-2.35c-0.074,-0.344 -0.282,-0.652 -0.632,-0.94c-0.266,-0.22 -0.838,-0.54 -2.038,-0.823l-5.06,-1.199l-1.876,7.922c-0.347,1.467 -0.335,1.81 -0.332,1.854c0.023,0.124 0.083,0.224 0.199,0.329c0.048,0.042 0.269,0.201 1.097,0.397l4.979,1.18c1.021,0.241 1.796,0.363 2.306,0.363c0.074,0 0.141,-0.002 0.205,-0.007c0.551,-0.115 0.991,-0.336 1.339,-0.671c0.26,-0.252 0.721,-0.87 1.441,-2.386c0.116,-0.246 0.362,-0.395 0.623,-0.395c0.054,-0 0.108,0.007 0.162,0.02l0.742,0.178c0.184,0.044 0.341,0.163 0.436,0.326c0.095,0.164 0.118,0.359 0.065,0.541l-1.658,5.609c-0.088,0.299 -0.362,0.494 -0.662,0.494c-0.052,0 -0.106,-0.006 -0.159,-0.019l-20.007,-4.732c-0.18,-0.042 -0.334,-0.154 -0.43,-0.31c-0.096,-0.155 -0.126,-0.343 -0.083,-0.522l0.17,-0.708c0.075,-0.318 0.357,-0.529 0.67,-0.529c0.053,-0 0.107,0.006 0.161,0.017l0.902,0.217c0.248,0.059 0.497,0.088 0.742,0.088c0.263,-0 0.529,-0.034 0.787,-0.1c0.281,-0.076 0.494,-0.222 0.651,-0.454c0.113,-0.161 0.358,-0.665 0.73,-2.236l1.81,-7.648l-2.073,-0.491Zm-15.214,-1.382c1.449,1.288 2.204,2.908 2.233,4.812c0.023,1.434 -0.423,2.826 -1.327,4.138c-0.9,1.311 -2.151,2.293 -3.717,2.921c-1.518,0.608 -3.848,0.942 -6.929,0.994l-12.699,0.206l-0.011,-0c-0.328,-0 -0.596,-0.263 -0.603,-0.593l-0.013,-0.721c-0.004,-0.161 0.056,-0.316 0.168,-0.431c0.112,-0.116 0.265,-0.182 0.425,-0.185l1.004,-0.017c0.917,-0.014 1.537,-0.279 1.894,-0.813c0.133,-0.208 0.363,-0.835 0.331,-2.586l-0.277,-17.146c-0.034,-2.011 -0.338,-2.58 -0.469,-2.732c-0.37,-0.394 -0.96,-0.595 -1.788,-0.595l-1.079,0.018c-0.316,0.001 -0.608,-0.259 -0.615,-0.593l-0.013,-0.721c-0.003,-0.161 0.058,-0.315 0.169,-0.431c0.111,-0.116 0.264,-0.183 0.424,-0.185l7.652,-0.125c0.16,0.011 0.314,0.059 0.43,0.171c0.115,0.11 0.181,0.263 0.184,0.424l0.011,0.767c1.977,-0.888 4.31,-1.359 6.953,-1.402l0.204,-0.002c2.812,-0 4.999,1.019 6.503,3.028c1.124,1.255 1.723,2.767 1.746,4.452c0.027,1.435 -0.41,2.761 -1.303,3.939c-0.572,0.753 -1.386,1.343 -2.429,1.764c1.278,0.473 2.249,1.017 2.941,1.644m-9.676,20.983c71.958,0 130.286,58.334 130.286,130.286c0,19.123 -4.12,37.285 -11.523,53.646c-1.34,-0.126 -2.67,-0.39 -3.985,-0.808c-2.124,-0.698 -3.763,-1.972 -4.887,-3.852c-1.129,-1.864 -2.258,-5.976 -3.375,-12.326l-7.263,-41.189l7.883,-1.389l0.639,-0.113l5.079,-0.895l0,-0.001l0.893,-0.158l-10.797,-61.207l0.005,-0.001l-0.621,-3.498l-5.944,1.047c0.888,-1.372 1.503,-2.966 1.72,-4.814c0.219,-1.87 -0.619,-4.039 -2.3,-5.952c-1.968,-2.241 -4.673,-3.714 -7.191,-3.952c0.637,-1.92 0.533,-3.925 -0.311,-5.836c-1.224,-2.778 -3.958,-5.163 -7.313,-6.379c-3.68,-1.325 -6.918,-1.461 -9.387,-0.368c-0.819,0.37 -1.584,0.885 -2.24,1.504c-2.655,-3.877 -7.477,-6.089 -13.329,-6.089c-2.68,-0 -5.434,0.469 -7.966,1.357c-5.29,1.849 -9.102,4.607 -11.333,8.199c-0.413,0.667 -0.767,1.415 -1.034,2.187c-3.95,-1.549 -8.786,-0.546 -12.383,2.514c-2.905,2.466 -5.585,7.736 -5.293,12.034c-1.603,-0.482 -4.113,0.098 -5.732,0.538l-0.416,0.111c-2.127,0.561 -4.445,1.937 -5.653,3.885c-1.153,-5.352 -3.518,-10.412 -6.305,-14.272c-2.648,-3.688 -7.548,-8.023 -12.526,-9.388c-0.754,-0.211 -1.511,-0.316 -2.25,-0.316c-2.039,-0 -3.766,0.8 -4.829,2.219c-3.806,-3.825 -8.881,-5.185 -12.413,-5.878c-1.047,-0.207 -2.133,-0.311 -3.231,-0.311c-4.412,-0 -9.893,1.756 -12.288,6.652c-4.445,-1.932 -9.726,-3.849 -15.478,-3.849c-3.083,0 -6.057,0.536 -9.093,1.638c-6.417,2.33 -8.544,6.204 -10.127,12.511c-1.805,0.437 -3.872,1.587 -4.905,2.747c-0.399,0.437 -0.789,1.035 -1.09,1.664c-1.604,2.23 -1.823,5.83 -1.142,8.833l-6.07,-1.07l-6.612,-1.166l-0.621,3.502l0.002,0.001l-10.791,61.203l0.886,0.157l-0.001,0.002l13.601,2.397l-7.26,41.189c-1.122,6.35 -2.247,10.462 -3.381,12.326c-1.125,1.88 -2.756,3.154 -4.884,3.852c-1.374,0.438 -2.765,0.708 -4.172,0.825c-7.406,-16.365 -11.53,-34.533 -11.53,-53.663c0,-71.952 58.329,-130.286 130.281,-130.286m-40.499,-25.721l4.14,16.97c0.312,1.268 0.576,1.699 0.704,1.844c0.113,0.109 0.272,0.189 0.477,0.226c0.318,-0.04 0.978,-0.085 2.666,-0.495l1.825,-0.447c1.845,-0.45 3.1,-0.895 3.728,-1.322c0.492,-0.331 0.643,-0.705 0.508,-1.253c-0.169,-0.713 -0.8,-1.972 -1.872,-3.749c-0.099,-0.165 -0.115,-0.367 -0.041,-0.544c0.074,-0.177 0.227,-0.309 0.412,-0.355l1.396,-0.344c0.258,-0.061 0.526,0.047 0.661,0.274l4.355,7.188c0.1,0.165 0.116,0.366 0.042,0.545c-0.073,0.177 -0.227,0.309 -0.414,0.355l-20.89,5.141c-0.049,0.012 -0.097,0.016 -0.145,0.016c-0.27,0 -0.516,-0.182 -0.584,-0.457l-0.176,-0.702c-0.038,-0.155 -0.015,-0.32 0.069,-0.457c0.083,-0.138 0.217,-0.237 0.374,-0.276l0.936,-0.228c0.858,-0.209 1.372,-0.604 1.573,-1.206c0.052,-0.161 0.129,-0.752 -0.318,-2.603l-4.056,-16.621c-0.499,-2.043 -0.913,-2.487 -1.028,-2.574c-0.432,-0.312 -1.05,-0.383 -1.83,-0.192l-0.935,0.229c-0.157,0.039 -0.321,0.013 -0.458,-0.07c-0.138,-0.084 -0.236,-0.218 -0.273,-0.374l-0.17,-0.701c-0.077,-0.324 0.122,-0.65 0.445,-0.728l11.325,-2.765c0.322,-0.081 0.648,0.118 0.729,0.441l0.174,0.701c0.04,0.155 0.014,0.321 -0.069,0.459c-0.082,0.137 -0.218,0.236 -0.374,0.275l-1.017,0.246c-0.55,0.134 -1.221,0.504 -1.994,1.099c-0.185,0.581 -0.15,1.405 0.105,2.454m-37.558,13.747l5.888,11.542c1.449,2.837 3.055,4.459 4.777,4.82c0.7,0.216 1.305,0.317 1.853,0.317l0.001,0c0.616,0 1.183,-0.129 1.682,-0.385c1.838,-0.938 3.031,-2.282 3.649,-4.108c-0.023,-1.992 -0.541,-3.997 -1.544,-5.959l-7.267,-14.241c-1.148,-2.247 -0.946,-4.518 0.6,-6.75c0.057,-0.081 0.133,-0.148 0.223,-0.194c1.497,-0.765 2.653,-1.143 3.538,-1.151c0.189,0.005 0.438,0.125 0.542,0.328l0.331,0.644c0.074,0.144 0.087,0.31 0.036,0.463c-0.049,0.151 -0.156,0.278 -0.301,0.351l-0.821,0.418c-0.383,0.196 -0.599,0.692 -0.642,1.473c-0.108,0.803 0.073,1.639 0.534,2.537l6.743,13.206c1.237,2.428 1.877,4.592 1.905,6.434c0.029,1.86 -0.461,3.619 -1.458,5.228c-0.994,1.604 -2.627,2.994 -4.857,4.129c-1.841,0.885 -3.368,1.312 -4.682,1.312c-0.292,0 -0.572,-0.021 -0.838,-0.065c-1.668,-0.083 -3.223,-0.738 -4.555,-1.94c-1.122,-0.985 -2.103,-2.225 -2.908,-3.682l-6.474,-12.687c-0.226,-0.377 -0.605,-0.884 -1.029,-0.957c-0.407,-0.049 -0.884,-0.024 -1.198,0.114l-0.783,0.402c-0.295,0.151 -0.659,0.034 -0.812,-0.261l-0.33,-0.641c-0.073,-0.142 -0.087,-0.308 -0.039,-0.461c0.05,-0.154 0.158,-0.281 0.301,-0.354l8.851,-4.515c0.299,-0.153 0.659,-0.034 0.812,0.261l0.329,0.64c0.074,0.142 0.088,0.309 0.039,0.461c-0.048,0.154 -0.157,0.281 -0.3,0.354l-0.822,0.42c-0.686,0.349 -1.128,0.737 -1.284,1.127c-0.025,0.406 0.08,0.867 0.31,1.37m-51.254,39.439c-0.069,-0.185 -0.042,-0.395 0.071,-0.557l3.519,-5.022c0.192,-0.272 0.567,-0.34 0.841,-0.149l0.492,0.344c0.132,0.092 0.221,0.233 0.249,0.39c0.027,0.158 -0.008,0.321 -0.101,0.452l-0.437,0.624c-0.534,0.77 -0.4,1.268 -0.253,1.575c0.075,0.159 0.412,0.636 1.958,1.714l19.435,13.603c1.691,1.185 2.25,1.278 2.38,1.278c0.8,-0.006 1.352,-0.376 1.749,-1.162c0.135,-0.266 0.446,-0.394 0.727,-0.301l0.4,0.13c0.306,0.101 0.479,0.427 0.392,0.739c-0.595,2.093 -1.826,3.384 -3.659,3.837c-0.375,0.062 -0.697,0.089 -1.016,0.089c-1.201,0 -2.348,-0.379 -3.413,-1.125l-18.177,-12.723l3.937,10.608c0.068,0.186 0.041,0.394 -0.072,0.558l-0.734,1.048c-0.118,0.17 -0.337,0.264 -0.524,0.256l-10.449,-0.506l12.597,8.819c1.851,1.207 2.411,1.311 2.538,1.313c0.629,-0.006 0.89,-0.273 1.03,-0.473l0.419,-0.595c0.091,-0.131 0.232,-0.221 0.39,-0.248c0.158,-0.028 0.321,0.01 0.452,0.102l0.552,0.391c0.272,0.192 0.338,0.567 0.147,0.841l-4.847,6.926c-0.093,0.13 -0.233,0.22 -0.39,0.248c-0.036,0.006 -0.071,0.008 -0.105,0.008c-0.123,0 -0.245,-0.036 -0.348,-0.109l-0.586,-0.41c-0.272,-0.191 -0.338,-0.566 -0.149,-0.84l0.433,-0.623c0.541,-0.815 0.318,-1.301 0.003,-1.662l-16.848,-11.79c-0.874,-0.614 -1.419,-0.743 -1.721,-0.743c-0.485,0.088 -0.814,0.283 -1.056,0.594l-0.373,0.534c-0.091,0.13 -0.232,0.221 -0.391,0.248c-0.16,0.025 -0.321,-0.01 -0.452,-0.102l-0.586,-0.414c-0.272,-0.192 -0.338,-0.567 -0.147,-0.84l3.283,-4.694c0.119,-0.172 0.321,-0.264 0.528,-0.259l13.025,0.713l-4.713,-12.635Zm324.705,101.799c0.35,-13.431 5.77,-24.6 12.849,-27.937c-0.73,-5.319 -1.652,-10.573 -2.776,-15.753c-8.193,0.128 -17.622,-9.368 -22.209,-23.075c-4.265,-12.76 -2.988,-25.128 2.551,-30.674c-2.509,-4.719 -5.205,-9.32 -8.049,-13.82c-7.659,2.902 -19.754,-2.797 -28.738,-14.098c-8.37,-10.522 -11.399,-22.572 -8.107,-29.681c-3.952,-3.572 -8.071,-6.966 -12.29,-10.236c-6.208,5.336 -19.51,4.109 -31.815,-3.43c-11.477,-7.028 -18.443,-17.325 -17.766,-25.133c-4.92,-2.001 -9.924,-3.834 -15.024,-5.461c-3.969,7.179 -16.913,10.607 -31.096,7.718c-13.16,-2.672 -23.209,-9.936 -25.283,-17.482c-2.537,-0.092 -5.075,-0.193 -7.641,-0.193c-2.804,0 -5.581,0.101 -8.362,0.213c-1.325,8.075 -12.302,15.689 -26.576,17.82c-13.312,1.996 -25.279,-1.419 -29.774,-7.84c-5.09,1.644 -10.092,3.478 -15.003,5.49c1.561,8.045 -6.151,18.989 -18.87,25.896c-11.797,6.407 -24.166,7.303 -30.605,2.85c-4.206,3.283 -8.324,6.678 -12.264,10.265c4.209,7.031 0.7,19.946 -8.881,30.778c-8.905,10.062 -20.237,15.136 -27.81,13.138c-2.831,4.506 -5.498,9.124 -7.989,13.85c6.357,5.169 7.477,18.503 2.174,31.958c-4.93,12.518 -13.861,21.17 -21.668,21.857c-1.106,5.18 -1.988,10.442 -2.703,15.758c7.721,2.702 13.32,14.84 12.939,29.276c-0.35,13.427 -5.767,24.596 -12.852,27.934c0.735,5.315 1.658,10.569 2.778,15.75c8.194,-0.127 17.624,9.366 22.211,23.08c4.267,12.759 2.989,25.121 -2.545,30.668c2.508,4.723 5.201,9.319 8.049,13.816c7.654,-2.895 19.745,2.801 28.737,14.105c8.365,10.519 11.394,22.565 8.103,29.675c3.956,3.575 8.075,6.966 12.292,10.235c6.211,-5.329 19.508,-4.105 31.812,3.435c11.468,7.03 18.438,17.32 17.767,25.131c4.92,1.994 9.925,3.83 15.022,5.459c3.971,-7.172 16.92,-10.6 31.103,-7.714c13.144,2.675 23.195,9.931 25.271,17.479c2.542,0.09 5.083,0.191 7.644,0.191c2.805,0 5.586,-0.101 8.364,-0.213c1.329,-8.071 12.303,-15.682 26.574,-17.815c13.311,-1.988 25.267,1.418 29.769,7.84c5.093,-1.644 10.098,-3.478 15.011,-5.494c-1.56,-8.049 6.156,-18.989 18.867,-25.89c11.795,-6.403 24.161,-7.302 30.603,-2.854c4.21,-3.282 8.327,-6.68 12.272,-10.266c-4.21,-7.031 -0.703,-19.944 8.882,-30.77c8.9,-10.063 20.231,-15.14 27.804,-13.142c2.832,-4.508 5.497,-9.125 7.992,-13.855c-6.357,-5.17 -7.477,-18.504 -2.177,-31.948c4.933,-12.522 13.863,-21.174 21.672,-21.864c1.101,-5.181 1.987,-10.441 2.703,-15.761c-7.726,-2.704 -13.32,-14.837 -12.942,-29.266" style="fill:#fff;fill-rule:nonzero;"/><path d="M163.239,234.884c2.841,-0.281 5.364,1.796 5.642,4.644c0.28,2.839 -1.8,5.366 -4.644,5.646c-2.844,0.272 -5.373,-1.803 -5.647,-4.648c-0.275,-2.844 1.801,-5.369 4.649,-5.642m2.123,14.174c4.922,-0.476 8.534,-4.864 8.052,-9.786c-0.482,-4.936 -4.857,-8.541 -9.785,-8.055c-4.931,0.468 -8.541,4.854 -8.061,9.784c0.479,4.929 4.863,8.532 9.794,8.057" style="fill:#fff;fill-rule:nonzero;"/><path d="M159.228,201.83c-2.07,-0.092 -3.684,-1.841 -3.59,-3.91c0.088,-2.079 1.847,-3.688 3.914,-3.593c2.079,0.091 3.684,1.846 3.593,3.927c-0.092,2.059 -1.848,3.666 -3.917,3.576m0.291,-9.724c-3.591,-0.152 -6.631,2.625 -6.793,6.224c-0.158,3.587 2.63,6.631 6.226,6.785c3.596,0.162 6.628,-2.628 6.788,-6.211c0.158,-3.593 -2.623,-6.639 -6.221,-6.798" style="fill:#fff;fill-rule:nonzero;"/><path d="M184.533,183.248c-0.849,1.315 -2.615,1.699 -3.923,0.849c-1.324,-0.849 -1.705,-2.605 -0.849,-3.929c0.836,-1.322 2.601,-1.699 3.916,-0.857c1.322,0.857 1.706,2.616 0.856,3.937m-0.033,-5.392c-2.281,-1.474 -5.326,-0.809 -6.805,1.473c-1.474,2.284 -0.813,5.332 1.479,6.811c2.292,1.466 5.333,0.811 6.805,-1.483c1.474,-2.281 0.813,-5.333 -1.479,-6.801" style="fill:#fff;fill-rule:nonzero;"/><path d="M262.498,235.107c2.854,0.286 4.926,2.816 4.638,5.661c-0.275,2.845 -2.808,4.914 -5.651,4.635c-2.842,-0.276 -4.922,-2.811 -4.64,-5.659c0.282,-2.832 2.815,-4.911 5.653,-4.637m-2.149,14.189c4.932,0.483 9.322,-3.121 9.811,-8.052c0.488,-4.926 -3.112,-9.313 -8.037,-9.801c-4.932,-0.489 -9.322,3.11 -9.809,8.042c-0.489,4.926 3.111,9.316 8.035,9.811" style="fill:#fff;fill-rule:nonzero;"/><path d="M248.899,181.984c2.073,-0.081 3.825,1.526 3.906,3.603c0.089,2.07 -1.523,3.822 -3.592,3.914c-2.073,0.09 -3.823,-1.53 -3.911,-3.598c-0.091,-2.075 1.525,-3.827 3.597,-3.919m0.58,10.8c3.596,-0.152 6.386,-3.186 6.243,-6.779c-0.16,-3.593 -3.197,-6.39 -6.785,-6.235c-3.6,0.148 -6.385,3.175 -6.236,6.778c0.148,3.592 3.183,6.384 6.778,6.236" style="fill:#fff;fill-rule:nonzero;"/><path d="M275.387,194.26c1.321,-0.851 3.078,-0.468 3.924,0.866c0.849,1.314 0.461,3.074 -0.862,3.923c-1.317,0.842 -3.087,0.454 -3.931,-0.859c-0.839,-1.325 -0.455,-3.081 0.869,-3.93m4.49,6.828c2.293,-1.47 2.961,-4.513 1.491,-6.803c-1.47,-2.287 -4.514,-2.958 -6.802,-1.488c-2.293,1.466 -2.961,4.513 -1.495,6.805c1.467,2.285 4.513,2.953 6.806,1.486" style="fill:#fff;fill-rule:nonzero;"/><path d="M217.25,62.17c-0.904,-0.353 -2.241,-0.532 -3.981,-0.532l-0.453,0.005c-1.403,0.022 -2.731,0.343 -3.952,0.954l0.154,9.596c1.219,0.229 2.437,0.344 3.632,0.344l0.3,-0.003c2.25,-0.037 3.958,-0.55 5.074,-1.522c1.11,-0.963 1.637,-2.111 1.612,-3.512c-0.012,-0.938 -0.215,-2.027 -0.603,-3.241c-0.355,-1.085 -0.939,-1.77 -1.783,-2.089" style="fill:#fff;fill-rule:nonzero;"/><path d="M233.043,363.321l1.388,0.913c0.608,-0.714 0.84,-1.124 0.923,-1.35c0.146,-0.387 0.191,-0.799 0.142,-1.26c-0.061,-0.569 -0.249,-0.973 -0.578,-1.238c-0.273,-0.217 -0.607,-0.323 -1.02,-0.323c-0.096,-0 -0.195,0.004 -0.297,0.015c-0.556,0.062 -0.974,0.257 -1.278,0.597c-0.291,0.327 -0.407,0.658 -0.366,1.035c0.028,0.26 0.129,0.522 0.303,0.786c0.184,0.289 0.446,0.564 0.783,0.825" style="fill:#fff;fill-rule:nonzero;"/><path d="M310.055,95.148c1.632,1.424 3.171,2.159 4.575,2.183l0.003,-0c1.431,-0 2.499,-0.481 3.36,-1.472c0.892,-1.02 1.386,-2.119 1.471,-3.264c0.075,-1.095 -0.395,-2.071 -1.439,-2.981c-0.695,-0.44 -1.597,-0.867 -2.639,-1.236l-5.656,6.483l0.325,0.287Z" style="fill:#fff;fill-rule:nonzero;"/><path d="M217.299,57.811c0.893,-1.115 1.344,-2.112 1.334,-2.961c-0.025,-1.375 -0.605,-2.513 -1.77,-3.478c-1.126,-0.816 -2.234,-1.243 -3.262,-1.243l0,-0.605l-0.001,0.006l-0.052,0.599c-1.951,0.033 -3.584,0.596 -4.86,1.677l0.141,8.518c1.33,-0.517 2.668,-0.789 3.994,-0.809c2.073,-0.035 3.579,-0.607 4.476,-1.704" style="fill:#fff;fill-rule:nonzero;"/><path d="M122.136,99.559l-10.867,-6.1l3.313,8.945l7.554,-2.845Z" style="fill:#fff;fill-rule:nonzero;"/><path d="M207.004,372.61c0.556,1.045 1.056,1.045 1.219,1.045c0.352,-0.036 0.603,-0.186 0.862,-0.456c0.273,-0.278 0.463,-0.793 0.555,-1.492c0.2,-1.232 0.172,-2.975 -0.079,-5.196c-0.197,-1.618 -0.522,-2.951 -0.965,-3.951c-0.367,-0.846 -0.719,-1.203 -0.949,-1.355c-0.154,-0.106 -0.324,-0.154 -0.521,-0.154c-0.049,-0 -0.098,0.003 -0.148,0.008c-0.177,0.02 -0.449,0.095 -0.728,0.506c-0.378,0.561 -0.59,1.443 -0.629,2.621c-0.038,1.268 0.02,2.531 0.171,3.752c0.213,1.968 0.62,3.536 1.212,4.672" style="fill:#fff;fill-rule:nonzero;"/><path d="M233.041,368.949c-0.193,0.539 -0.254,1.093 -0.19,1.696c0.082,0.764 0.336,1.322 0.776,1.705c0.424,0.374 0.917,0.526 1.5,0.456c0.613,-0.066 1.057,-0.269 1.361,-0.621c0.294,-0.341 0.408,-0.71 0.36,-1.155c-0.043,-0.379 -0.178,-0.703 -0.414,-0.985c-0.484,-0.577 -1.416,-1.318 -2.778,-2.206c-0.275,0.36 -0.482,0.733 -0.615,1.11" style="fill:#fff;fill-rule:nonzero;"/><path d="M358.272,312.537c0.558,1.104 1.012,2.251 1.317,3.45c-0,0 5.197,-3.231 4.773,-4.374c-0,-0 -0.502,-1.93 -2.48,-4.563c-3.741,-4.985 -12.77,-12.499 -33.714,-14.262c-0,0 23.397,6.457 30.104,19.749" style="fill:#fff;fill-rule:nonzero;"/><path d="M351.361,321.951c0.134,0.479 0.251,0.964 0.347,1.457c-0,0 5.396,-2.801 5.029,-3.97c0,0 -0.036,-1.378 -0.894,-3.445c-2.056,-4.956 -8.86,-13.897 -31.403,-17.512c0,-0 22.712,8.541 26.921,23.47" style="fill:#fff;fill-rule:nonzero;"/><path d="M343.728,330.668c-0,0 0.205,-0.102 0.53,-0.272c1.35,-0.713 4.812,-2.643 4.519,-3.586c0,0 0.199,-0.704 0.172,-1.866c-0.093,-4.14 -3.049,-14.086 -28.108,-18.547c-0,0 19.777,8.447 22.887,24.271" style="fill:#fff;fill-rule:nonzero;"/><path d="M335.647,338.944c-0,-0 0.372,-0.184 0.913,-0.472c1.533,-0.818 4.432,-2.496 4.168,-3.355c-0,0 0.136,-0.403 0.194,-1.089c0.275,-3.256 -1.234,-13.035 -27.693,-17.879c-0,0 19.439,6.949 22.418,22.795" style="fill:#fff;fill-rule:nonzero;"/><path d="M328.466,345.969c0.349,1.025 0.642,2.089 0.852,3.209c0,0 5.444,-2.671 5.082,-3.831c-0,0 0.984,-2 -0.004,-4.768c-1.438,-4.038 -7.072,-9.709 -26.068,-13.189c0,-0 15.549,5.138 20.138,18.579" style="fill:#fff;fill-rule:nonzero;"/><path d="M326.313,347.799c-2.665,-3.743 -9.272,-8.149 -24.993,-11.027c-0,0 13.415,4.479 19.102,15.767c0.939,1.861 1.675,3.905 2.097,6.149c0,-0 5.434,-2.671 5.078,-3.84c-0,0 1.479,-3.168 -1.284,-7.049" style="fill:#fff;fill-rule:nonzero;"/><path d="M71.029,317.227c0.102,-0.359 0.22,-0.709 0.338,-1.057c4.973,-14.811 23.916,-22.462 23.916,-22.462c-18.032,2.203 -25.648,10.786 -28.581,15.679c-1.235,2.059 -1.645,3.469 -1.645,3.469c-0.435,1.132 5.972,4.371 5.972,4.371" style="fill:#fff;fill-rule:nonzero;"/><path d="M73.759,319.401c-0.078,0.261 -0.11,0.405 -0.11,0.405c-0.214,0.74 1.895,2.607 3.46,3.869c0.894,0.722 1.612,1.247 1.612,1.247c3.08,-15.84 23.411,-25.504 23.411,-25.504c-22.858,5.103 -27.653,17.586 -28.373,19.983" style="fill:#fff;fill-rule:nonzero;"/><path d="M79.755,326.872c-0.01,0.039 -0.017,0.066 -0.017,0.066c-0.287,0.999 3.322,4.042 4.409,4.929c0.192,0.157 0.314,0.254 0.314,0.254c3.128,-15.961 23.859,-26.693 23.859,-26.693c-24.455,6.705 -28.311,20.426 -28.565,21.444" style="fill:#fff;fill-rule:nonzero;"/><path d="M86.363,334.248c-0.119,0.443 -0.156,0.695 -0.156,0.695c-0.327,1.19 4.472,5.467 4.472,5.467c0.094,-0.493 0.204,-0.98 0.329,-1.462c3.916,-15.167 22.598,-25.324 22.598,-25.324c-22.024,6.168 -26.457,17.697 -27.243,20.624" style="fill:#fff;fill-rule:nonzero;"/><path d="M92.451,340.356c-0.841,2.245 -0.747,3.737 -0.747,3.737c-0.331,1.177 4.205,6.418 4.205,6.418c0.363,-1.907 0.931,-3.735 1.643,-5.482c5.264,-12.89 18.655,-21.151 18.655,-21.151c-16.819,4.715 -22.103,12.061 -23.756,16.478" style="fill:#fff;fill-rule:nonzero;"/><path d="M99.528,346.751c-1.812,3.716 -1.318,6.34 -1.494,5.613c-0.334,1.192 4.287,5.943 4.287,5.943c0.498,-2.617 1.321,-5.062 2.342,-7.321c5.209,-11.54 15.683,-18.234 15.683,-18.234c-13.372,3.749 -18.688,9.631 -20.818,13.999" style="fill:#fff;fill-rule:nonzero;"/><path d="M154.704,314.75l0.271,-2.218c0.538,-0.755 0.991,-1.29 1.354,-1.611c0.364,-0.32 0.735,-0.503 1.113,-0.542c0.376,-0.044 0.758,0.036 1.145,0.235c0.385,0.2 0.88,0.489 1.477,0.874c0.088,0.131 0.141,0.246 0.172,0.347c0.029,0.101 0.05,0.201 0.061,0.302c0.06,0.55 -0.004,1.063 -0.193,1.536c-0.188,0.474 -0.452,0.764 -0.789,0.869c-0.728,0.639 -1.334,1.109 -1.819,1.405c-0.487,0.296 -0.867,0.479 -1.136,0.544l-0.461,0.052c-0.449,0.051 -0.75,-0.009 -0.91,-0.182c-0.157,-0.174 -0.25,-0.398 -0.285,-0.673c-0.02,-0.17 -0.026,-0.326 -0.026,-0.467c0,-0.137 0.01,-0.296 0.026,-0.471m-31.985,8.528c0.061,0.408 0.183,0.824 0.368,1.253c0.186,0.425 0.441,0.823 0.777,1.194c3.735,2.871 8.044,3.949 12.924,3.236l0.72,-0.105l5.197,-2.02c1.292,-0.499 2.375,-1.129 3.294,-1.864c0.535,-0.427 1.029,-0.883 1.436,-1.391c1.051,-1.313 1.722,-2.934 2.042,-4.838c0.028,0.213 0.057,0.394 0.085,0.525c0.033,0.15 0.067,0.302 0.1,0.454c0.034,0.15 0.074,0.323 0.111,0.508c0.038,0.189 0.078,0.435 0.112,0.745c0.033,0.308 0.128,0.765 0.282,1.371c0.156,0.611 0.271,1.066 0.338,1.369c0.614,1.113 1.322,1.919 2.124,2.421c0.802,0.498 1.853,0.674 3.162,0.528c0.923,-0.104 1.836,-0.329 2.736,-0.672c1.874,-0.912 3.518,-2.035 4.934,-3.372c1.41,-1.34 2.48,-2.94 3.208,-4.793l0.064,-0.351c0.089,0.117 0.193,0.195 0.321,0.188c0.068,-0.004 0.193,-0.11 0.371,-0.308c0.176,-0.203 0.377,-0.441 0.604,-0.716c0.224,-0.272 0.433,-0.536 0.623,-0.791c0.191,-0.253 0.336,-0.435 0.433,-0.545l0.156,0.043c0.287,0.155 0.576,0.376 0.872,0.669c0.298,0.291 0.473,0.906 0.534,1.835l0.347,5.474c0.226,0.263 0.475,0.428 0.759,0.498c0.28,0.067 0.592,0.092 0.937,0.071l0.724,-0.047c0.385,-0.475 0.786,-0.94 1.207,-1.398c0.422,-0.46 0.805,-0.934 1.155,-1.422c0.351,-0.489 0.656,-1.002 0.914,-1.538c0.259,-0.536 0.421,-1.116 0.485,-1.743c0.263,-0.226 0.516,-0.482 0.756,-0.775c0.239,-0.289 0.481,-0.583 0.724,-0.876c0.239,-0.29 0.499,-0.538 0.781,-0.748c0.278,-0.209 0.608,-0.324 0.988,-0.351l0.106,-0.006l0.902,7.723c0.216,0.126 0.621,0.335 1.207,0.625c0.593,0.29 1.092,0.425 1.503,0.399l0.311,-0.022c0.619,-0.04 1.401,-0.313 2.336,-0.821c0.933,-0.51 1.876,-1.217 2.82,-2.123c0.948,-0.908 1.793,-1.982 2.548,-3.222c0.748,-1.245 1.234,-2.613 1.449,-4.116l-0.805,-0.417c-0.138,0.011 -0.29,0.073 -0.454,0.187c-0.17,0.115 -0.325,0.247 -0.469,0.392c-0.146,0.148 -0.266,0.296 -0.361,0.437c-0.095,0.146 -0.142,0.236 -0.139,0.27c-0.326,0.849 -0.866,1.654 -1.611,2.41c-0.747,0.758 -1.5,1.159 -2.258,1.206c-0.381,0.024 -0.67,-0.183 -0.866,-0.616l-1.126,-7.917l-1.167,-1.173l-1.401,-0.013c-0.705,0.318 -1.328,0.748 -1.864,1.284c-0.535,0.535 -1.034,1.112 -1.499,1.728c-0.459,0.621 -0.904,1.261 -1.328,1.928c-0.426,0.668 -0.897,1.294 -1.409,1.878c-0.388,-0.078 -0.674,-0.267 -0.87,-0.567c-0.188,-0.3 -0.334,-0.654 -0.427,-1.062c-0.099,-0.408 -0.186,-0.824 -0.26,-1.253c-0.082,-0.428 -0.216,-0.792 -0.411,-1.093c-0.31,-0.531 -0.705,-0.914 -1.187,-1.142c-0.48,-0.229 -0.997,-0.322 -1.55,-0.289c-0.445,0.026 -0.816,0.094 -1.099,0.198c-0.289,0.104 -0.573,0.29 -0.849,0.546c-0.277,0.263 -0.6,0.611 -0.97,1.048c-0.372,0.439 -0.865,1.008 -1.474,1.703l-0.941,1.564c-0.055,0.074 -0.092,0.155 -0.136,0.234c-0.11,-0.046 -0.236,-0.072 -0.396,-0.053c-0.168,0.018 -0.412,0.247 -0.728,0.682c-0.316,0.434 -0.675,0.943 -1.078,1.526c-0.406,0.587 -0.857,1.183 -1.362,1.796c-0.503,0.614 -1.046,1.11 -1.629,1.486l-0.818,0.145c-0.479,0.055 -1.019,0.27 -1.618,0.653c-0.6,0.379 -1.194,0.601 -1.773,0.669c-0.445,0.05 -0.809,-0.024 -1.092,-0.217c-0.282,-0.195 -0.457,-0.582 -0.526,-1.165l-0.027,-0.256c0.468,-0.158 0.985,-0.348 1.55,-0.567c0.566,-0.219 1.113,-0.472 1.635,-0.759c0.523,-0.282 0.988,-0.623 1.396,-1.017c0.408,-0.39 0.684,-0.859 0.832,-1.394c2.042,-1.309 2.932,-3.112 2.67,-5.407c-0.017,-0.172 -0.035,-0.326 -0.051,-0.465c-0.016,-0.173 -0.058,-0.341 -0.111,-0.509l-0.783,-0.485l-0.889,-2.345l-0.975,-0.777l-0.154,0.018c-0.347,0.004 -0.684,0.017 -1.011,0.037c-0.327,0.016 -0.664,0.045 -1.009,0.088c-0.649,0.069 -1.286,0.21 -1.903,0.421c-0.622,0.209 -1.18,0.549 -1.682,1.024c-1.28,1.256 -2.453,2.639 -3.519,4.149c-1.06,1.511 -1.749,3.028 -2.062,4.556c-0.101,0.325 -0.155,0.644 -0.152,0.955c0,0.167 0.017,0.332 0.027,0.496c-0.068,-0.083 -0.172,-0.137 -0.354,-0.135c-0.26,0.004 -0.491,0.019 -0.698,0.05c-0.071,0.009 -0.131,0.071 -0.181,0.185c-1.828,2.015 -3.756,3.485 -5.784,4.421c-1.172,0.541 -2.376,0.905 -3.614,1.086c-2.767,0.408 -5.77,-0.095 -9.009,-1.503c-0.768,-0.482 -1.341,-0.991 -1.716,-1.529c-0.374,-0.538 -0.613,-1.147 -0.71,-1.83c-0.102,-0.686 -0.095,-1.4 0.023,-2.151c0.118,-0.748 0.266,-1.52 0.445,-2.315c0.179,-0.792 0.354,-1.573 0.518,-2.346c0,-0.002 0,-0.003 0.002,-0.004c0.164,-0.775 0.228,-1.526 0.19,-2.254c2.219,-4.615 5.721,-7.276 10.502,-7.972c1.605,-0.236 3.341,-0.28 5.212,-0.139c0.41,-0.303 0.735,-0.576 0.977,-0.822c0.242,-0.246 0.415,-0.512 0.513,-0.805c0.094,-0.294 0.148,-0.623 0.168,-0.994c0.013,-0.368 0.035,-0.832 0.054,-1.397l-0.03,-0.568l-1.797,-0.47c-0.458,-0.039 -0.92,-0.039 -1.384,-0.005c-0.468,0.033 -0.921,0.08 -1.366,0.148c-1.672,0.243 -3.276,0.671 -4.81,1.276c-1.534,0.611 -3.024,1.335 -4.469,2.175c-1.206,1.294 -2.346,2.62 -3.421,3.98c-1.072,1.358 -2.053,2.767 -2.938,4.224c-0.172,0.282 -0.32,0.581 -0.482,0.868c-0.676,1.195 -1.301,2.422 -1.831,3.709c-0.654,1.594 -1.131,3.27 -1.436,5.022l0.648,4.405l0.06,0.779Z" style="fill:#fff;fill-rule:nonzero;"/><path d="M193.161,308.947c-0.087,0.033 -0.127,0.086 -0.127,0.154c0,0.037 0.086,0.209 0.262,0.515c0.172,0.311 0.414,0.533 0.728,0.672l3.316,0.545c0.067,0.206 0.109,0.499 0.109,0.881c0.003,0.381 -0.02,0.786 -0.067,1.217c-0.052,0.431 -0.074,0.817 -0.071,1.165l0.004,0.465c-0.274,0.624 -0.486,1.21 -0.634,1.763c-0.155,0.556 -0.23,1.125 -0.224,1.712c0.011,1.621 0.641,3.102 1.896,4.439l1.138,-0.007c0.479,-0.004 1.17,-0.148 2.066,-0.427c0.894,-0.282 1.831,-0.695 2.814,-1.237c0.978,-0.54 1.916,-1.221 2.805,-2.036c0.894,-0.819 1.577,-1.746 2.057,-2.785c0.101,-0.485 0.198,-0.922 0.298,-1.324c0.101,-0.396 0.153,-0.731 0.15,-1.008c-0.004,-0.415 -0.141,-0.62 -0.419,-0.62c-0.309,0.004 -0.593,0.202 -0.849,0.6c-0.259,0.401 -0.623,0.852 -1.105,1.356c-0.483,0.504 -1.15,0.973 -2.009,1.411c-0.859,0.438 -2.067,0.695 -3.616,0.776l-0.055,-0.105c-0.212,-0.55 -0.32,-1.152 -0.324,-1.811l0.176,-5.075c0.203,-0.381 0.708,-0.65 1.52,-0.813c0.809,-0.157 1.645,-0.269 2.508,-0.326c0.864,-0.057 1.648,-0.097 2.356,-0.119c0.707,-0.023 1.058,-0.1 1.058,-0.239l-0.169,-1.967c-0.067,-0.069 -0.148,-0.285 -0.235,-0.645c-0.089,-0.363 -0.223,-0.542 -0.392,-0.542c-0.175,0.004 -0.491,-0.03 -0.96,-0.097c-0.465,-0.065 -0.852,-0.098 -1.164,-0.094c-0.309,0.003 -0.538,-0.004 -0.672,-0.022c-0.141,-0.017 -0.278,-0.033 -0.419,-0.05c-0.135,-0.017 -0.309,-0.03 -0.516,-0.047c-0.205,-0.018 -0.535,-0.024 -0.984,-0.021l-0.57,0.003l-0.522,-0.771l0.216,-6.576l-1.243,-0.407c-0.829,0.387 -1.508,0.883 -2.036,1.489c-0.533,0.608 -0.957,1.291 -1.281,2.053c-0.324,0.762 -0.552,1.573 -0.684,2.44c-0.133,0.863 -0.229,1.759 -0.293,2.694l-2.38,0.222c-0.52,0.004 -0.802,-0.071 -0.856,-0.226c-0.055,-0.155 -0.203,-0.286 -0.442,-0.388c-0.138,0.143 -0.222,0.364 -0.253,0.674c-0.033,0.313 -0.047,0.591 -0.047,0.829l0,0.364l0.269,1.031c0,0.175 -0.043,0.281 -0.128,0.315" style="fill:#fff;fill-rule:nonzero;"/><path d="M214.396,313.257l1.078,-1.205c0.551,-0.016 1.091,-0.039 1.611,-0.072c0.52,-0.033 1.038,-0.04 1.553,-0.024c0.585,0.02 1.154,0.084 1.704,0.192c0.545,0.105 1.057,0.303 1.53,0.596c0.336,0.325 0.531,0.65 0.589,0.981c0.058,0.331 0.078,0.722 0.06,1.166l-0.026,0.78c-0.368,2.574 -1.847,3.818 -4.432,3.724c-0.486,-0.017 -0.957,-0.119 -1.415,-0.307c-0.46,-0.188 -0.928,-0.381 -1.403,-0.569c-0.323,-0.702 -0.553,-1.419 -0.701,-2.151c-0.148,-0.729 -0.205,-1.49 -0.175,-2.286l0.027,-0.825Zm-4.456,4.399c0.047,0.623 0.094,1.237 0.141,1.843c0.048,0.606 0.139,1.19 0.273,1.747c0.135,0.555 0.368,1.064 0.697,1.526c0.327,0.457 0.816,0.84 1.463,1.14c0.614,0.123 1.235,0.197 1.855,0.222c0.69,0.024 1.355,-0.003 1.997,-0.084c0.643,-0.083 1.313,-0.213 2.01,-0.394l0.625,-0.133c4.662,-2.874 7.083,-6.828 7.266,-11.863l0.004,-0.26c-1.04,-2.73 -2.941,-4.145 -5.702,-4.243c-0.515,-0.021 -1.055,0.03 -1.611,0.147l-3.498,0.86c-3.653,1.703 -5.54,4.278 -5.665,7.725c-0.01,0.277 0.004,0.57 0.044,0.883c0.04,0.31 0.074,0.606 0.101,0.884" style="fill:#fff;fill-rule:nonzero;"/><path d="M249.199,314.487c0.034,-0.138 0.073,-0.29 0.124,-0.459l0.729,-2.113c0.684,-0.623 1.237,-1.055 1.662,-1.29c0.421,-0.236 0.823,-0.337 1.198,-0.3c0.378,0.037 0.735,0.195 1.073,0.471c0.336,0.278 0.758,0.665 1.265,1.164c0.056,0.144 0.082,0.269 0.089,0.374c0.007,0.104 0.007,0.208 0,0.31c-0.053,0.553 -0.225,1.037 -0.512,1.459c-0.283,0.424 -0.601,0.653 -0.951,0.688c-0.84,0.471 -1.536,0.801 -2.072,0.992c-0.54,0.191 -0.946,0.289 -1.226,0.296l-0.462,-0.048c-0.449,-0.045 -0.733,-0.165 -0.85,-0.367c-0.121,-0.202 -0.165,-0.442 -0.138,-0.717c0.017,-0.171 0.041,-0.325 0.071,-0.46m-22.171,7.603c0.053,0.457 0.122,0.847 0.198,1.184c0.083,0.333 0.187,0.539 0.321,0.617c0.667,0.325 1.382,0.516 2.137,0.569c0.795,0.057 1.584,0.166 2.367,0.324l2.728,-1.153c0.972,-0.004 1.835,-0.154 2.604,-0.465c0.765,-0.31 1.479,-0.724 2.135,-1.247c0.66,-0.526 1.268,-1.139 1.822,-1.843c0.551,-0.706 1.098,-1.454 1.637,-2.245l0.396,-0.912c-0.015,0.179 -0.026,0.336 -0.026,0.449c0.007,0.156 0.007,0.315 0.007,0.47c0.005,0.157 0.005,0.331 0,0.521c0,0.189 -0.013,0.439 -0.047,0.749c-0.027,0.309 -0.034,0.78 -0.007,1.403c0.027,0.627 0.041,1.098 0.045,1.408c0.367,1.217 0.885,2.149 1.569,2.807c0.683,0.658 1.676,1.053 2.982,1.18c0.925,0.092 1.864,0.06 2.816,-0.087c2.026,-0.496 3.867,-1.247 5.527,-2.266c1.662,-1.013 3.043,-2.352 4.143,-4.013l0.203,-0.499c0.135,-0.301 0.269,-0.601 0.403,-0.897c0.133,-0.301 0.213,-0.587 0.239,-0.862c0.045,-0.446 -0.157,-0.692 -0.602,-0.735c-0.177,-0.018 -0.46,0.155 -0.856,0.513c-0.401,0.36 -0.86,0.783 -1.375,1.27c-0.516,0.489 -1.086,0.978 -1.706,1.47c-0.621,0.495 -1.253,0.865 -1.905,1.116l-0.828,-0.032c-0.482,-0.047 -1.055,0.05 -1.722,0.3c-0.665,0.245 -1.289,0.341 -1.876,0.283c-0.445,-0.043 -0.788,-0.192 -1.02,-0.439c-0.236,-0.248 -0.327,-0.666 -0.265,-1.248l0.022,-0.257c0.489,-0.059 1.034,-0.135 1.635,-0.229c0.6,-0.098 1.187,-0.233 1.756,-0.401c0.571,-0.168 1.095,-0.406 1.582,-0.702c0.477,-0.3 0.845,-0.697 1.105,-1.192c2.265,-0.854 3.512,-2.428 3.74,-4.73c0.017,-0.171 0.034,-0.326 0.048,-0.463c0.014,-0.174 0.014,-0.345 -0.005,-0.521l-0.663,-0.638l-0.38,-2.483l-0.792,-0.96l-0.152,-0.017c-0.34,-0.067 -0.674,-0.125 -0.998,-0.174c-0.327,-0.051 -0.657,-0.093 -1.002,-0.126c-0.653,-0.065 -1.302,-0.057 -1.953,0.017c-0.648,0.074 -1.269,0.29 -1.857,0.647c-1.517,0.961 -2.954,2.069 -4.308,3.323c-1.351,1.254 -2.343,2.596 -2.969,4.024c-0.135,0.237 -0.227,0.477 -0.294,0.719l-0.448,-0.786c-0.202,-0.014 -0.63,0.243 -1.275,0.765c-0.639,0.526 -1.419,1.103 -2.326,1.729c-0.907,0.627 -1.9,1.19 -2.976,1.682c-1.072,0.495 -2.141,0.704 -3.211,0.628c-0.171,-0.012 -0.324,-0.032 -0.46,-0.059c-0.139,-0.026 -0.288,-0.081 -0.458,-0.161l-1.024,-0.904c-0.197,-0.636 -0.32,-1.243 -0.364,-1.816c-0.047,-0.576 -0.051,-1.118 -0.013,-1.638c0.16,-2.234 1.199,-3.993 3.129,-5.279c0.167,0.049 0.336,0.078 0.511,0.089c0.205,0.016 0.394,0.03 0.567,0.038l1.448,0.106c0.574,0.18 1.056,0.334 1.443,0.466c0.391,0.13 0.702,0.242 0.938,0.326c0.1,0.044 0.202,0.084 0.305,0.127c0.1,0.042 0.165,0.062 0.199,0.065c0.105,0.007 0.169,-0.047 0.196,-0.168c0.023,-0.118 0.05,-0.368 0.08,-0.744l0.022,-0.312c0.033,-0.515 0.046,-1.043 0.033,-1.58c-0.014,-0.536 -0.1,-0.896 -0.26,-1.081l-0.878,-0.79c-0.675,-0.222 -1.289,-0.353 -1.841,-0.39c-0.688,-0.05 -1.343,-0 -1.955,0.144c-0.616,0.146 -1.18,0.429 -1.696,0.84c-2.2,1.227 -3.791,2.723 -4.782,4.486c-0.991,1.761 -1.567,3.765 -1.726,6.001c-0.028,0.344 -0.05,0.689 -0.074,1.032c-0.027,0.345 -0.034,0.709 -0.027,1.09c0.08,0.35 0.146,0.755 0.201,1.207c0.057,0.454 0.11,0.906 0.163,1.36" style="fill:#fff;fill-rule:nonzero;"/><path d="M262.277,325.812c0.167,0.35 0.36,0.659 0.573,0.927c0.211,0.267 0.506,0.421 0.883,0.465c0.033,0.004 0.086,0 0.158,-0.007c0.07,-0.01 0.139,-0.01 0.209,-0.003c0.786,-0.185 1.506,-0.502 2.167,-0.947c0.661,-0.446 1.301,-0.961 1.924,-1.551c0.625,-0.586 1.238,-1.21 1.833,-1.871c0.597,-0.661 1.225,-1.3 1.893,-1.92l0.604,-1.23c0.07,-0.585 0.095,-1.015 0.074,-1.295c-0.018,-0.28 -0.146,-0.434 -0.389,-0.462c-0.134,-0.016 -0.349,0.126 -0.646,0.419c-0.297,0.296 -0.622,0.633 -0.978,1.006c-0.355,0.378 -0.72,0.746 -1.093,1.1c-0.371,0.357 -0.668,0.592 -0.885,0.704l-1.832,0.52c-0.342,-0.041 -0.521,-0.305 -0.535,-0.793c-0.171,-2.102 -0.153,-4.098 0.064,-5.986c0.284,-2.432 0.873,-4.752 1.773,-6.96c0.896,-2.207 2.136,-4.293 3.72,-6.265c0.153,-0.435 0.289,-0.887 0.414,-1.362c0.126,-0.469 0.281,-0.931 0.476,-1.378c0.19,-0.445 0.419,-0.864 0.688,-1.247c0.27,-0.388 0.614,-0.728 1.033,-1.028c-0,-0.314 0.02,-0.607 0.049,-0.88c0.038,-0.31 0.071,-0.601 0.1,-0.872c0.24,-2.093 0.809,-4.009 1.708,-5.748l-0.497,-0.681c-0.095,-0.08 -0.277,-0.138 -0.552,-0.168c-0.513,-0.06 -1.018,0.003 -1.507,0.189c-0.489,0.188 -0.992,0.374 -1.5,0.559c-3.98,3.185 -6.256,7.249 -6.829,12.188c-0.128,1.13 -0.162,2.325 -0.1,3.582l0.018,0.314c-1.197,1.044 -2.013,2.251 -2.452,3.627c-0.439,1.374 -0.741,2.797 -0.911,4.273l-0.38,3.29c0.217,0.512 0.341,1.021 0.37,1.526c0.026,0.508 0.01,1.056 -0.057,1.635l-0.537,3.276c-0.02,0.172 -0.038,0.343 -0.058,0.513c-0.017,0.17 -0.024,0.348 -0.007,0.522c0.215,0.233 0.396,0.539 0.542,0.92c0.148,0.384 0.305,0.747 0.472,1.099" style="fill:#fff;fill-rule:nonzero;"/><path d="M289.886,318.775l0.808,-2.083c0.706,-0.601 1.276,-1.011 1.708,-1.233c0.429,-0.22 0.832,-0.304 1.205,-0.253c0.321,0.041 0.616,0.188 0.903,0.403c0.052,0.039 0.105,0.061 0.157,0.105c0.322,0.287 0.731,0.691 1.219,1.211c0.049,0.145 0.074,0.268 0.079,0.373c0.002,0.108 -0.005,0.209 -0.019,0.314c-0.074,0.547 -0.259,1.029 -0.559,1.439c-0.298,0.411 -0.625,0.63 -0.977,0.65c-0.858,0.443 -1.563,0.748 -2.109,0.916c-0.546,0.17 -0.959,0.253 -1.234,0.25l-0.462,-0.059c-0.446,-0.062 -0.726,-0.196 -0.833,-0.402c-0.115,-0.206 -0.148,-0.445 -0.115,-0.722c0.028,-0.167 0.057,-0.324 0.088,-0.458c0.002,-0.003 0.003,-0.008 0.004,-0.011c0.036,-0.13 0.083,-0.277 0.137,-0.44m-12.995,-12.27c-1.207,1.031 -2.035,2.232 -2.487,3.601c-0.453,1.372 -0.77,2.79 -0.951,4.263l-0.414,3.287c0.213,0.516 0.333,1.025 0.355,1.534c0.022,0.504 0,1.05 -0.075,1.633l-0.568,3.267c-0.019,0.172 -0.044,0.343 -0.067,0.516c-0.019,0.171 -0.025,0.342 -0.014,0.519c0.217,0.236 0.396,0.545 0.539,0.925c0.142,0.386 0.297,0.753 0.46,1.103c0.165,0.351 0.351,0.661 0.562,0.935c0.165,0.208 0.395,0.332 0.665,0.408c0.071,0.02 0.134,0.055 0.215,0.066c0.035,0.002 0.088,0 0.155,-0.007c0.074,-0.009 0.141,-0.009 0.208,-0c0.789,-0.178 1.516,-0.489 2.178,-0.927c0.664,-0.438 1.311,-0.946 1.942,-1.528c0.203,-0.189 0.396,-0.404 0.596,-0.598c0.422,-0.411 0.846,-0.815 1.253,-1.257c0.604,-0.655 1.241,-1.287 1.911,-1.901l0.487,-0.959c-0.026,0.206 -0.042,0.384 -0.045,0.511c-0.004,0.155 -0.009,0.312 -0.009,0.469c-0.006,0.155 -0.013,0.329 -0.02,0.518c-0.005,0.122 -0.019,0.273 -0.037,0.439c-0.011,0.098 -0.022,0.195 -0.038,0.309c-0.041,0.307 -0.059,0.775 -0.059,1.402c0.002,0.627 -0,1.1 -0.007,1.41c0.321,1.229 0.808,2.184 1.47,2.863c0.652,0.682 1.63,1.109 2.931,1.286c0.923,0.124 1.859,0.131 2.817,0.016c2.042,-0.422 3.911,-1.109 5.61,-2.062c1.697,-0.954 3.122,-2.243 4.283,-3.86l0.226,-0.493c0.141,-0.292 0.285,-0.59 0.431,-0.883c0.141,-0.292 0.236,-0.576 0.269,-0.849c0.059,-0.444 -0.128,-0.697 -0.573,-0.758c-0.173,-0.022 -0.465,0.137 -0.877,0.482c-0.409,0.343 -0.885,0.751 -1.418,1.218c-0.535,0.468 -1.119,0.939 -1.757,1.408c-0.639,0.471 -1.287,0.819 -1.947,1.045l-0.825,-0.061c-0.48,-0.063 -1.055,0.013 -1.729,0.236c-0.675,0.223 -1.302,0.293 -1.886,0.216c-0.445,-0.06 -0.779,-0.219 -1.006,-0.479c-0.227,-0.256 -0.296,-0.675 -0.223,-1.257l0.039,-0.256c0.491,-0.038 1.039,-0.094 1.64,-0.169c0.603,-0.074 1.193,-0.185 1.769,-0.337c0.577,-0.146 1.112,-0.36 1.601,-0.643c0.492,-0.281 0.878,-0.665 1.153,-1.15c2.295,-0.768 3.599,-2.298 3.909,-4.59c0.025,-0.173 0.048,-0.325 0.064,-0.462c0.023,-0.172 0.031,-0.343 0.016,-0.52l-0.639,-0.663l-0.29,-2.494l-0.495,-0.651l-0.26,-0.341l-0.156,-0.02c-0.336,-0.078 -0.665,-0.148 -0.987,-0.212c-0.323,-0.06 -0.657,-0.114 -0.996,-0.161c-0.653,-0.089 -1.302,-0.105 -1.954,-0.055c-0.652,0.052 -1.279,0.246 -1.879,0.58c-1.552,0.906 -3.028,1.963 -4.426,3.166c-1.397,1.203 -2.435,2.507 -3.117,3.912c-0.166,0.273 -0.285,0.55 -0.36,0.835c0.009,-0.174 0.015,-0.335 0.009,-0.454c-0.021,-0.28 -0.148,-0.435 -0.384,-0.466c-0.141,-0.017 -0.358,0.123 -0.654,0.413c-0.296,0.293 -0.626,0.627 -0.986,0.997c-0.363,0.374 -0.727,0.738 -1.103,1.088c-0.376,0.354 -0.675,0.587 -0.897,0.699l-1.834,0.498c-0.344,-0.043 -0.519,-0.309 -0.526,-0.798c-0.155,-2.104 -0.114,-4.098 0.126,-5.983c0.305,-2.43 0.915,-4.746 1.836,-6.943c0.919,-2.198 2.183,-4.275 3.785,-6.229c0.159,-0.432 0.3,-0.883 0.431,-1.355c0.127,-0.472 0.29,-0.93 0.485,-1.374c0.192,-0.446 0.428,-0.861 0.704,-1.241c0.273,-0.384 0.621,-0.721 1.043,-1.018c0.003,-0.314 0.024,-0.607 0.056,-0.88c0.042,-0.307 0.075,-0.6 0.109,-0.874c0.262,-2.089 0.854,-3.997 1.766,-5.726l-0.487,-0.687c-0.092,-0.081 -0.282,-0.138 -0.551,-0.175c-0.516,-0.064 -1.017,-0.004 -1.509,0.175c-0.494,0.182 -0.995,0.364 -1.504,0.542c-4.016,3.148 -6.329,7.187 -6.95,12.118c-0.142,1.132 -0.189,2.325 -0.139,3.585l0.011,0.313Z" style="fill:#fff;fill-rule:nonzero;"/><path d="M228.727,191.417c1.551,34.899 11.076,62.796 11.076,62.796c-7.226,-28.496 -11.076,-62.796 -11.076,-62.796" style="fill:#fff;fill-rule:nonzero;"/></svg>