<?xml version="1.0" encoding="UTF-8" standalone="no"?>
<!-- Created with Inkscape (http://www.inkscape.org/) -->

<svg
   version="1.1"
   id="svg2"
   width="566.93335"
   height="566.93335"
   viewBox="0 0 566.93335 566.93335"
   xmlns="http://www.w3.org/2000/svg"
   xmlns:svg="http://www.w3.org/2000/svg">
  <defs
     id="defs6">
    <clipPath
       clipPathUnits="userSpaceOnUse"
       id="clipPath16">
      <path
         d="M 0,425.2 H 425.2 V 0 H 0 Z"
         id="path14" />
    </clipPath>
  </defs>
  <g
     id="g8"
     transform="matrix(1.3333333,0,0,-1.3333333,0,566.93333)">
    <g
       id="g10">
      <g
         id="g12"
         clip-path="url(#clipPath16)">
        <g
           id="g18"
           transform="translate(190.6069,177.6172)">
          <path
             d="M 0,0 C 0,0 8.101,23.723 9.419,53.401 9.419,53.401 6.146,24.231 0,0"
             style="fill:#231f20;fill-opacity:1;fill-rule:nonzero;stroke:none"
             id="path20" />
        </g>
        <g
           id="g22"
           transform="translate(347.6094,133.5928)">
          <path
             d="m 0,0 c -1.051,2.318 -2.55,4.412 -4.326,6.242 11.92,21.433 18.72,46.106 18.72,72.368 0,82.349 -66.76,149.112 -149.112,149.112 -82.352,0 -149.108,-66.763 -149.108,-149.112 0,-25.948 6.633,-50.346 18.289,-71.598 -2.458,-1.932 -3.882,-3.89 -4.661,-5.698 -13.028,22.785 -20.477,49.17 -20.477,77.296 0,86.133 69.825,155.96 155.957,155.96 86.135,0 155.961,-69.827 155.961,-155.96 C 21.243,49.941 13.499,23.084 0,0 m -134.718,-77.349 c -26.817,0 -52.052,6.772 -74.092,18.693 0.066,0 0.126,-0.007 0.193,-0.007 2.345,0 4.783,0.268 7.242,0.797 1.621,0.345 3.111,0.648 4.483,0.916 18.926,-8.696 39.981,-13.552 62.174,-13.552 21.792,0 42.491,4.678 61.152,13.079 0.971,-0.18 1.962,-0.372 2.996,-0.593 2.463,-0.528 4.9,-0.796 7.245,-0.796 0.92,0 1.792,0.049 2.638,0.124 -22.026,-11.902 -47.239,-18.661 -74.031,-18.661 m -116.109,216.723 c 0.377,0.716 1.263,0.994 1.982,0.617 0.717,-0.376 0.994,-1.263 0.617,-1.981 -9.535,-18.189 -14.575,-38.729 -14.575,-59.4 0,-18.341 3.792,-36.046 11.272,-52.622 0.334,-0.738 0.005,-1.607 -0.734,-1.94 -0.196,-0.089 -0.401,-0.13 -0.603,-0.13 -0.559,0 -1.093,0.321 -1.338,0.864 -7.652,16.957 -11.532,35.069 -11.532,53.828 0,21.144 5.156,42.156 14.911,60.764 m 43.173,37.664 c 1.635,-0.923 2.429,-1.151 2.806,-1.181 l 0.13,-0.004 c 0.46,0 0.944,0.18 1.438,0.536 0.218,0.157 0.517,0.12 0.69,-0.081 l 0.401,-0.468 c 0.089,-0.103 0.133,-0.238 0.123,-0.373 -0.011,-0.136 -0.075,-0.262 -0.179,-0.351 l -5.794,-4.968 c -0.214,-0.184 -0.539,-0.159 -0.724,0.055 l -0.402,0.467 c -0.178,0.207 -0.163,0.517 0.033,0.705 0.638,0.615 0.739,0.938 0.753,1.049 0.024,0.222 -0.036,0.408 -0.196,0.596 -0.274,0.319 -0.757,0.7 -1.433,1.129 l -0.052,0.031 -8.052,-3.066 1.104,-2.955 c 0.375,-1.005 0.647,-1.442 0.809,-1.631 0.15,-0.171 0.323,-0.254 0.561,-0.266 h 0.002 c 0.137,0 0.509,0.072 1.385,0.722 0.217,0.162 0.522,0.126 0.698,-0.081 l 0.395,-0.467 c 0.182,-0.215 0.157,-0.538 -0.058,-0.722 l -4.632,-3.969 c -0.093,-0.08 -0.212,-0.123 -0.334,-0.123 -0.014,0 -0.027,0 -0.041,10e-4 -0.136,0.011 -0.262,0.076 -0.351,0.18 l -0.395,0.468 c -0.157,0.185 -0.162,0.457 -0.012,0.648 0.584,0.744 0.655,1.094 0.658,1.209 0.006,0.652 -0.275,1.777 -0.835,3.333 l -1.078,2.87 -3.754,-1.425 c -0.212,-0.081 -0.451,-0.013 -0.59,0.167 -0.138,0.179 -0.142,0.428 -0.01,0.612 l 1.164,1.626 c 0.059,0.083 0.142,0.146 0.238,0.181 l 2.207,0.824 -5.111,13.649 c -0.075,0.201 -0.017,0.428 0.146,0.569 l 0.389,0.335 c 0.165,0.142 0.402,0.165 0.59,0.057 z M -16.56,23.932 c -0.202,0 -0.407,0.041 -0.602,0.13 -0.739,0.333 -1.067,1.202 -0.734,1.94 7.475,16.572 11.266,34.272 11.266,52.608 0,20.678 -5.041,41.221 -14.578,59.409 -0.376,0.718 -0.1,1.605 0.619,1.981 0.718,0.376 1.604,0.099 1.981,-0.618 C -8.852,120.775 -3.695,99.76 -3.695,78.61 -3.695,59.855 -7.572,41.749 -15.221,24.796 -15.466,24.253 -16,23.932 -16.56,23.932 m -127.117,-72.183 c 0.514,1.139 1.2,1.994 2.038,2.543 0.642,0.436 1.327,0.659 2.026,0.659 1.259,-0.039 2.285,-0.654 3.144,-1.831 0.997,-1.36 1.468,-3.185 1.399,-5.426 -0.049,-1.537 -0.319,-2.868 -0.804,-3.956 -0.499,-1.119 -1.143,-1.944 -1.913,-2.453 -0.736,-0.491 -1.472,-0.741 -2.183,-0.741 -0.007,0 -0.092,0.001 -0.098,0.001 -1.443,0.044 -2.616,0.908 -3.485,2.568 -0.686,1.312 -1.004,2.887 -0.947,4.686 0.049,1.526 0.326,2.855 0.823,3.95 m 93.004,3.685 c 1.142,-0.591 1.969,-1.246 2.457,-1.947 0.178,-0.435 0.287,-0.866 0.314,-1.291 0.152,-2.399 -2.229,-4.255 -2.891,-4.722 -0.088,-0.047 -0.164,-0.097 -0.228,-0.143 -2.455,-1.474 -6.564,-3.207 -12.304,-3.207 -1.864,0 -3.8,0.198 -5.764,0.567 6.411,3.149 12.564,6.742 18.416,10.743 m -170.252,-7.952 c -0.064,0.046 -0.139,0.094 -0.227,0.141 -0.483,0.342 -1.855,1.412 -2.521,2.883 -0.255,0.561 -0.41,1.18 -0.367,1.84 0.014,0.222 0.057,0.446 0.112,0.671 0.62,1.12 2.057,2.166 4.216,3.076 5.854,-4.071 12.012,-7.73 18.436,-10.94 -0.239,-0.05 -0.468,-0.096 -0.713,-0.149 -2.26,-0.486 -4.49,-0.732 -6.628,-0.732 -2.667,0 -4.964,0.383 -6.924,0.931 -2.263,0.633 -4.069,1.49 -5.384,2.279 m 105.708,188.817 c 0.257,-0.098 0.491,-0.049 0.671,0.103 1.187,0.777 0.258,2.427 0.258,2.427 -0.171,0.978 -0.101,1.97 0.087,2.933 0.367,1.891 1.743,4.213 3.493,5.133 0.158,0.086 0.126,0.364 -0.083,0.327 -1.856,-0.304 -3.209,-1.032 -4.206,-2.345 0,0 -2.107,2.85 1.257,6.466 2.759,2.961 5.764,2.769 9.319,2.181 -0.013,-0.575 0.078,-1.143 0.262,-1.673 0,0 0.925,-2.508 2.169,-2.15 1.249,0.356 -0.673,3.978 0.153,5.62 0.284,0.812 0.708,1.597 1.413,2.365 2.033,2.173 4.693,3.721 7.535,4.586 6.054,1.838 13.159,1.259 15.848,-4.981 0,-0.192 0.004,-0.399 0.035,-0.597 -0.95,0.13 -1.93,0.164 -2.93,0.179 -0.218,0.008 -0.195,-0.308 -0.009,-0.351 1.747,-0.443 3.541,-1.212 5.101,-2.115 0.724,-0.41 1.779,-1.097 1.86,-2.02 0.096,-0.952 -0.258,-1.852 -0.37,-2.783 -0.044,-0.33 0.302,-0.496 0.561,-0.338 2.301,1.395 1.928,4.511 -0.152,5.935 -0.579,0.407 -1.185,0.699 -1.804,0.935 0.219,0.272 0.335,0.642 0.219,1.06 -0.086,0.321 -0.193,0.634 -0.308,0.935 0.586,0.893 1.331,1.582 2.626,1.806 1.937,0.323 3.94,0.02 5.728,-0.774 3.53,-1.562 6.522,-4.882 3.834,-8.545 0,0 -0.476,-0.264 -0.273,-1.135 0.227,-0.693 1.155,-1.158 1.798,-0.556 4.018,-0.1 8.931,-3.778 7.034,-8.263 -0.006,0.181 0,0.361 -0.008,0.522 -0.148,2.602 -1.989,4.817 -4.508,5.374 -0.138,0.031 -0.271,-0.161 -0.163,-0.276 1.407,-1.57 2.532,-3.127 2.713,-5.294 0.064,-0.813 -0.131,-1.527 -0.42,-2.18 -0.148,-0.286 -0.356,-0.549 -0.588,-0.802 -2.415,-2.631 -8.85,-3.555 -8.85,-3.555 l 0.296,1.273 c 0.071,0.267 0.126,0.535 0.173,0.804 0.411,2.293 -0.072,4.633 -1.899,6.708 -0.389,0.435 -1.32,0.235 -1.175,-0.462 0.507,-2.385 0.623,-4.677 0.135,-6.764 -0.024,-0.107 -0.043,-0.216 -0.071,-0.321 -0.042,-0.152 -0.093,-0.293 -0.138,-0.439 -0.069,-0.237 -0.158,-0.484 -0.255,-0.71 -0.009,-0.018 -0.009,-0.032 -0.017,-0.04 -0.089,-0.227 -0.19,-0.456 -0.302,-0.674 -0.012,-0.029 -0.025,-0.052 -0.039,-0.078 -0.105,-0.211 -0.219,-0.415 -0.346,-0.613 -0.015,-0.037 -0.039,-0.069 -0.062,-0.103 -0.12,-0.201 -0.252,-0.393 -0.389,-0.587 -0.68,-0.932 -1.463,-1.952 -2.677,-2.563 -6.24,-3.115 -9.168,-0.278 -10.239,1.328 -0.354,0.533 -0.507,0.931 -0.507,0.931 0.083,0.02 0.164,0.037 0.241,0.06 0.03,0.008 0.057,0.02 0.086,0.028 1.516,0.432 2.995,1.108 4.373,1.957 1.897,1.169 3.599,2.668 4.893,4.375 0.12,0.157 -0.039,0.407 -0.238,0.324 -2.421,-1.133 -4.639,-2.838 -7.19,-3.698 -0.752,-0.255 -1.49,-0.497 -2.24,-0.677 -0.846,-0.204 -1.706,-0.327 -2.615,-0.274 -0.416,0.029 -0.787,0.132 -1.154,0.264 0,0 -3.386,2.075 -3.045,0.057 0.217,-1.003 0.95,-1.667 1.892,-2.081 0.464,-0.203 0.975,-0.351 1.508,-0.438 -0.022,-0.023 -0.045,-0.046 -0.072,-0.078 -0.085,-0.091 -0.168,-0.183 -0.265,-0.264 -0.056,-0.054 -0.114,-0.094 -0.172,-0.146 -0.078,-0.072 -0.161,-0.137 -0.252,-0.203 -0.057,-0.049 -0.126,-0.086 -0.189,-0.132 -0.093,-0.055 -0.173,-0.112 -0.258,-0.167 -0.069,-0.036 -0.145,-0.068 -0.213,-0.111 -0.089,-0.043 -0.174,-0.089 -0.259,-0.126 -0.072,-0.035 -0.153,-0.069 -0.228,-0.098 -0.087,-0.037 -0.178,-0.069 -0.264,-0.097 -0.079,-0.026 -0.166,-0.052 -0.241,-0.075 -0.091,-0.022 -0.177,-0.043 -0.264,-0.066 -0.085,-0.017 -0.166,-0.037 -0.255,-0.054 -0.086,-0.02 -0.174,-0.026 -0.259,-0.043 -0.087,-0.015 -0.176,-0.023 -0.271,-0.031 -0.076,-0.015 -0.165,-0.015 -0.246,-0.024 -0.103,-0.003 -0.189,-0.003 -0.286,-0.008 -0.08,0 -0.155,0.005 -0.246,0 -0.095,0.005 -0.19,0.005 -0.294,0.012 -0.074,0.005 -0.146,0.017 -0.217,0.022 -0.11,0.014 -0.215,0.017 -0.327,0.035 -0.051,0.006 -0.114,0.025 -0.171,0.028 -0.121,0.021 -0.239,0.046 -0.359,0.072 -0.02,0.003 -0.043,0.006 -0.065,0.014 -0.479,0.104 -0.952,0.258 -1.4,0.456 -0.272,0.119 -0.533,0.255 -0.788,0.402 -2.065,1.182 -3.494,3.242 -2.985,5.547 0.114,0.51 0.311,1.029 0.627,1.554 0.159,0.27 -0.048,0.583 -0.363,0.488 -0.12,-0.04 -0.221,-0.086 -0.331,-0.123 -0.965,-0.539 -1.615,-1.458 -2.04,-2.29 -0.492,-0.965 -0.679,-1.812 -0.679,-1.812 -0.697,-1.502 -3.091,-2.984 -3.091,-2.984 -1.842,-0.84 -3.857,-0.78 -5.553,1.239 -0.388,0.467 -1.295,0.639 -1.675,0.025 -1.152,-1.891 -2.494,-3.793 -4.052,-5.196 -1.017,-0.915 -2.127,-1.609 -3.335,-1.953 -1.252,-0.357 -2.607,-0.343 -4.081,0.228 0.12,0.145 0.196,0.297 0.256,0.462 10e-4,10e-4 10e-4,10e-4 10e-4,0.002 0.001,-0.001 0.003,-0.001 0.004,-0.001 1.132,-0.268 2.564,-0.242 3.647,0.288 0.26,0.127 0.491,0.29 0.7,0.479 0.266,0.24 0.499,0.517 0.652,0.868 0.089,0.203 -0.042,0.467 -0.271,0.495 -0.473,0.059 -0.931,-0.007 -1.387,-0.109 -1.036,-0.233 -2.044,-0.678 -3.134,-0.435 -1.943,0.435 -1.906,2.078 -2.5,3.66 -0.035,0.084 -0.158,0.081 -0.19,0 -0.605,-1.224 -0.307,-2.912 0.582,-4.047 -0.429,-0.347 -0.866,-0.697 -1.376,-0.708 -0.175,-0.003 -0.347,0.051 -0.506,0.146 -0.139,0.069 -0.263,0.172 -0.389,0.293 -0.006,0.008 -0.016,0.02 -0.025,0.031 -0.233,0.238 -0.432,0.536 -0.6,0.863 -0.014,0.037 -0.027,0.069 -0.045,0.097 -0.075,0.155 -0.139,0.315 -0.189,0.482 -0.053,0.16 -0.103,0.344 -0.144,0.527 -0.004,0.026 -0.008,0.049 -0.017,0.075 -0.035,0.183 -0.06,0.372 -0.08,0.568 -0.077,0.793 0.79,1.581 0.45,2.266 -1.744,3.523 -0.109,5.412 1.774,6.455 2.466,1.361 5.206,1.08 7.883,1.129 0.089,-0.065 0.177,-0.134 0.274,-0.197 0.089,-0.041 0.195,-0.043 0.294,-0.041 -0.054,-1.516 0.272,-2.98 1.454,-3.43 m -93.212,5.784 c 0.531,2.152 1.944,3.227 4.091,3.362 0.447,0.023 0.802,-0.049 1.232,-0.124 0.242,-0.04 0.464,0.046 0.637,0.196 1.307,5.6 2.689,6.97 2.689,6.97 2.069,2.998 5.371,4.984 9.415,5.649 6.606,1.078 11.407,-2.373 17.366,-4.067 -1.433,-0.676 -3.457,-2.081 -2.351,-3.683 0.281,-0.384 0.754,-0.347 0.958,0.086 0.413,0.888 0.424,1.605 1.425,2.138 0.937,0.505 1.946,0.806 2.989,1.058 1.64,0.395 3.445,0.711 5.125,0.401 0.095,-0.02 0.109,0.123 0.034,0.155 -1.946,0.805 -4.622,0.903 -6.752,0.352 0,0.087 -0.012,0.173 -0.061,0.261 -0.928,2.975 1.901,5.073 1.901,5.073 2.886,1.614 6.191,1.832 10.106,0.29 2.8,-1.109 4.116,-1.791 6.191,-4.01 1.158,-1.232 1.989,-2.729 3.35,-3.729 0.315,-0.237 0.875,0.026 0.864,0.442 -0.047,1.069 -0.373,2.075 -0.918,3.007 4.471,7.113 14.873,-7.353 16.417,-11.231 2.277,-5.689 4.202,-14.279 -0.114,-19.564 -2.374,-2.902 -4.884,-3.954 -7.331,-3.805 -3.353,0.203 -6.586,2.669 -9.185,5.792 -0.779,0.936 -1.501,1.931 -2.153,2.94 -0.84,1.304 -1.564,2.63 -2.139,3.888 -0.001,0.002 -0.003,0.005 -0.003,0.007 0.025,-0.007 0.052,-0.013 0.077,-0.02 0.143,-0.042 0.285,-0.09 0.438,-0.115 0.202,-0.038 0.423,-0.063 0.654,-0.078 1.759,-0.109 4.181,0.506 4.479,2.368 0.038,0.232 -0.194,0.456 -0.418,0.465 -1.499,0.06 -2.78,-1.01 -4.374,-0.877 -1.071,0.085 -1.965,0.369 -2.757,0.854 -0.075,0.071 -0.161,0.126 -0.252,0.169 -0.636,0.442 -1.19,1.003 -1.708,1.702 0,0 -1.103,1.379 -0.843,-0.043 0.085,-0.278 0.195,-0.556 0.321,-0.811 0,0 1.017,-2.009 1.74,-2.476 0,0 -0.319,-0.235 -0.824,-0.533 -0.789,-0.466 -2.043,-1.087 -3.312,-1.219 -2.732,-0.29 -4.35,0.497 -5.028,2.69 -0.111,0.357 -0.202,0.741 -0.263,1.174 0,0 0.132,1.84 -3.497,-0.487 -0.013,-0.007 -0.025,-0.011 -0.037,-0.017 -2.728,-1.397 -4.934,-0.927 -6.532,1.151 -0.645,0.838 -1.194,1.928 -1.634,3.274 -0.221,0.671 -1.204,0.479 -1.083,-0.238 0.155,-0.843 0.367,-1.605 0.616,-2.302 -0.21,-0.08 -0.414,-0.169 -0.62,-0.254 -2.822,-1.155 -5.421,-2.639 -8.407,-3.322 -0.508,-0.117 -1.027,-0.215 -1.561,-0.278 -0.841,-0.101 -1.826,-0.201 -2.833,-0.214 -1.399,-0.018 -2.841,0.137 -4.006,0.707 -0.277,0.135 -0.541,0.292 -0.782,0.479 -0.442,0.34 -0.762,0.719 -1.049,1.103 -0.831,1.321 -0.585,2.783 -0.585,2.783 1.8,-0.075 3.875,0.539 5.113,1.057 0.176,0.072 0.107,0.347 -0.074,0.345 -1.284,-0.044 -2.554,-0.319 -3.841,-0.253 -0.717,0.032 -1.496,0.06 -2.181,0.31 -0.481,0.172 -0.897,0.435 -1.405,0.55 -0.352,0.072 -0.844,-0.298 -0.573,-0.685 0.373,-0.53 0.895,-0.863 1.497,-1.063 -0.548,-1.694 0.02,-2.993 0.575,-3.927 -0.053,-0.028 -0.104,-0.06 -0.156,-0.09 -1.355,-0.748 -2.55,-1.867 -4.207,-1.699 -1.3,0.13 -2.739,1.405 -3.501,2.394 -0.185,0.237 -0.338,0.49 -0.477,0.749 -0.781,1.458 -0.869,3.217 -0.473,4.823 M -41.454,18.779 c -9.022,1.375 -19.499,2.653 -31.071,3.716 l 36.891,6.504 c -1.763,-3.517 -3.705,-6.93 -5.82,-10.22 m -3.148,70.484 -6.7,-1.183 -6.294,35.69 c -0.605,3.417 -0.334,6.08 0.804,7.98 0.905,1.37 2.287,2.473 4.111,3.326 z M -208.99,31.725 c -0.989,0.794 -1.619,1.756 -1.871,2.889 -0.259,1.115 0.042,4.102 0.894,8.953 l 6.386,36.184 24.121,-4.25 c 4.518,-0.797 7.809,-1.946 9.872,-3.442 2.061,-1.505 3.371,-3.269 3.923,-5.295 0.497,-1.682 0.669,-5.231 0.505,-10.654 l 2.972,-0.527 6.705,38.006 -2.97,0.525 c -1.424,-6.108 -3.735,-10.187 -6.933,-12.236 -2.422,-1.503 -6.773,-1.703 -13.055,-0.593 l -24.126,4.25 7.638,43.294 30.07,-5.305 c 5.395,-0.952 9.129,-2.006 11.201,-3.167 2.425,-1.677 4.145,-3.712 5.142,-6.103 0.995,-2.39 1.591,-6.555 1.8,-12.499 l 3.141,-0.553 2.139,17.858 c 0.227,0.002 0.454,0.008 0.703,0.018 l 0.555,0.019 c 0.159,0.01 3.917,0.279 6.157,2.339 1.96,1.322 3.179,2.947 4.075,5.435 0.158,0.438 0.289,0.884 0.413,1.331 0.406,-1.217 1.139,-2.064 1.893,-2.639 l -0.948,-0.167 2.898,-24.194 3.138,0.556 c 0.211,5.941 0.807,10.106 1.804,12.496 0.998,2.391 2.715,4.426 5.142,6.103 2.067,1.161 5.805,2.218 11.195,3.167 l 20.146,3.554 c 1.472,-1.302 3.334,-1.994 5.423,-1.994 1.619,0 3.322,0.408 4.964,1.136 l 7.176,-40.685 -24.123,-4.25 c -6.282,-1.11 -10.633,-0.91 -13.056,0.593 -3.198,2.049 -5.506,6.128 -6.928,12.236 l -2.97,-0.519 6.7,-38.012 2.974,0.527 c -0.159,5.423 0.009,8.972 0.501,10.654 0.559,2.026 1.866,3.79 3.927,5.295 2.065,1.496 5.353,2.645 9.873,3.442 l 24.121,4.25 6.381,-36.184 c 0.855,-4.851 1.157,-7.838 0.9,-8.953 -0.258,-1.133 -0.883,-2.095 -1.875,-2.889 -0.963,-0.778 -2.876,-1.42 -5.711,-1.941 l -21.228,-3.742 c -5.397,-0.952 -9.268,-1.239 -11.608,-0.857 -2.857,0.745 -5.161,2.071 -6.92,3.974 -1.757,1.909 -3.739,5.621 -5.969,11.133 l -3.139,-0.551 3.456,-14.767 c -8.971,0.333 -18.26,0.518 -27.777,0.518 -5.778,0 -12.037,-0.07 -18.63,-0.249 l 3.391,14.493 -3.141,0.556 c -2.227,-5.516 -4.213,-9.23 -5.97,-11.133 -1.757,-1.903 -4.059,-3.229 -6.914,-3.974 -2.344,-0.382 -6.216,-0.095 -11.611,0.857 l -21.177,3.733 c -2.863,0.522 -4.791,1.167 -5.765,1.95 m -7.59,103.35 c 1.819,-0.853 3.199,-1.956 4.104,-3.325 1.142,-1.9 1.411,-4.563 0.811,-7.98 l -6.293,-35.69 -6.702,1.183 z m -17.234,-106.045 35.509,-6.259 c -9.906,-0.981 -19.911,-2.286 -29.662,-4.008 -2.126,3.305 -4.076,6.733 -5.847,10.267 m -34.454,-30.999 c 0.017,0.162 0.032,0.325 0.06,0.49 0.264,1.533 1.202,3.734 4.025,6.069 2.845,2.352 7.604,4.84 15.523,6.912 7.177,1.879 14.684,3.453 22.341,4.776 12.632,2.185 25.674,3.677 38.347,4.671 10.223,0.803 20.201,1.282 29.525,1.544 6.829,0.194 13.311,0.271 19.274,0.271 9.748,0 19.256,-0.196 28.421,-0.543 9.675,-0.367 18.965,-0.907 27.731,-1.575 15.075,-1.152 28.593,-2.685 39.904,-4.374 10.168,-1.517 18.556,-3.162 24.643,-4.77 5.502,-1.453 9.798,-4.445 12.728,-7.761 1.956,-2.213 3.296,-4.565 3.969,-6.709 0.038,-0.122 0.086,-0.247 0.12,-0.368 0.751,-2.671 0.464,-4.9 -0.808,-6.296 -0.724,-0.534 -4.135,-3.084 -8.343,-6.462 -7.978,-6.404 -18.826,-15.786 -19.68,-20.067 -0.115,-0.571 -0.285,-1.121 -0.481,-1.663 -2.328,-6.422 -10.058,-10.66 -14.442,-12.605 -0.003,-0.002 -0.006,-0.003 -0.008,-0.004 0.179,0.462 0.31,0.944 0.386,1.438 0,0.002 0,0.004 0.001,0.006 0.019,0.126 0.028,0.255 0.039,0.383 0.011,0.127 0.022,0.252 0.025,0.379 0.003,0.097 -10e-4,0.196 -0.003,0.293 -0.007,0.225 -0.017,0.452 -0.054,0.681 -0.269,1.71 -1.34,3.178 -3.188,4.399 -0.667,0.44 -1.434,0.847 -2.305,1.222 -1.378,0.594 -3.004,1.108 -4.888,1.533 -0.2,0.045 -0.393,0.087 -0.593,0.131 -11.363,2.561 -21.87,4.622 -31.793,6.229 -0.488,0.079 -0.982,0.164 -1.468,0.24 -0.492,0.078 -0.978,0.152 -1.468,0.228 -8.338,1.29 -16.274,2.25 -23.955,2.9 -8.356,0.707 -16.421,1.051 -24.391,1.051 -5.99,0 -11.989,-0.204 -18.017,-0.602 -7.975,-0.526 -16.002,-1.402 -24.122,-2.635 -0.489,-0.074 -0.978,-0.148 -1.468,-0.225 -0.488,-0.076 -0.979,-0.159 -1.467,-0.239 -10.419,-1.687 -21.002,-3.954 -31.844,-6.823 -0.238,-0.061 -0.475,-0.12 -0.713,-0.183 -2.101,-0.562 -3.877,-1.215 -5.339,-1.956 -0.074,-0.038 -0.145,-0.077 -0.217,-0.114 -2.663,-1.395 -4.214,-3.1 -4.632,-5.096 -0.025,-0.12 -0.054,-0.238 -0.071,-0.36 -0.005,-0.032 -0.002,-0.064 -0.007,-0.097 -0.059,-0.494 -0.055,-0.979 0.012,-1.448 -4.405,3.253 -11.58,9.042 -15.125,14.596 -0.504,0.79 -0.936,1.575 -1.275,2.348 -2.231,5.083 -13.751,16.232 -18.618,20.591 -1.021,0.915 -1.756,1.537 -2.044,1.733 -2.323,1.58 -4.589,4.442 -4.247,7.861 m 97.616,-50.619 -3.212,1.694 -3.21,-1.694 0.613,3.58 -2.6,2.529 3.591,0.524 1.606,3.253 1.605,-3.253 3.592,-0.524 -2.601,-2.529 z m 17.835,-3.105 c 0.622,-0.072 1.061,-0.101 1.298,-0.081 0.202,0.014 0.37,0.06 0.518,0.14 0.159,0.082 0.305,0.214 0.454,0.409 0.131,0.169 0.34,0.257 0.556,0.234 l 0.341,-0.04 c 0.197,-0.025 0.37,-0.143 0.464,-0.317 0.095,-0.174 0.099,-0.384 0.01,-0.562 l -1.155,-2.319 c -0.104,-0.209 -0.316,-0.337 -0.546,-0.337 -0.023,0 -0.046,0.001 -0.07,0.003 l -7.447,0.851 c -0.16,0.019 -0.308,0.101 -0.408,0.228 -0.101,0.128 -0.147,0.289 -0.128,0.45 l 0.04,0.344 c 0.02,0.169 0.111,0.323 0.249,0.423 2.368,1.712 4.078,3.153 5.08,4.279 0.95,1.066 1.485,2.067 1.591,2.979 0.073,0.642 -0.056,1.171 -0.392,1.618 -0.328,0.434 -0.739,0.674 -1.257,0.735 -0.484,0.056 -0.939,-0.034 -1.349,-0.274 -0.428,-0.247 -0.765,-0.639 -1.034,-1.203 -0.112,-0.234 -0.36,-0.377 -0.62,-0.343 l -0.344,0.039 c -0.175,0.02 -0.332,0.115 -0.432,0.259 -0.101,0.145 -0.134,0.325 -0.091,0.495 0.314,1.257 0.89,2.212 1.713,2.84 0.838,0.64 1.831,0.9 2.957,0.769 1.187,-0.135 2.147,-0.641 2.853,-1.504 0.71,-0.866 1.009,-1.84 0.887,-2.895 -0.085,-0.725 -0.335,-1.437 -0.741,-2.118 -0.606,-1.005 -1.52,-2.039 -2.716,-3.074 -0.884,-0.767 -1.585,-1.366 -2.123,-1.817 z m 23.71,-1.202 -0.338,7.176 c -0.048,1.146 -0.112,1.524 -0.146,1.648 -0.023,0.076 -0.048,0.106 -0.049,0.106 -0.066,-0.01 -0.26,-0.033 -0.729,-0.267 -0.298,-0.145 -0.66,-0.032 -0.815,0.265 l -0.145,0.28 c -0.153,0.296 -0.042,0.66 0.251,0.819 l 3.024,1.633 c 0.08,0.044 0.17,0.068 0.26,0.072 l 0.31,0.015 c 0.165,0.013 0.321,-0.048 0.441,-0.159 0.12,-0.108 0.19,-0.261 0.197,-0.423 l 0.49,-11.056 c 0.037,-0.884 0.094,-1.091 0.106,-1.124 0.004,-0.01 0.014,-0.033 0.08,-0.064 0.004,-0.002 0.153,-0.062 0.699,-0.062 l 0.176,0.002 h 0.013 c 0.324,0 0.593,-0.254 0.609,-0.578 l 0.018,-0.347 c 0.009,-0.164 -0.048,-0.323 -0.158,-0.444 -0.111,-0.12 -0.265,-0.191 -0.427,-0.199 l -4.778,-0.185 h -0.023 c -0.153,0 -0.303,0.058 -0.415,0.163 -0.119,0.11 -0.189,0.264 -0.195,0.426 l -0.012,0.347 c -0.011,0.331 0.245,0.611 0.575,0.63 0.696,0.04 0.872,0.113 0.89,0.12 0.067,0.038 0.078,0.064 0.081,0.073 v -0.001 c -0.002,0 0.047,0.23 0.01,1.134 m 8.274,6.798 c -0.411,0.553 -0.654,1.158 -0.724,1.8 -0.106,0.994 0.187,1.9 0.872,2.693 0.671,0.776 1.62,1.237 2.819,1.366 1.181,0.125 2.177,-0.101 2.978,-0.677 0.824,-0.59 1.287,-1.341 1.379,-2.231 0.066,-0.584 -0.075,-1.208 -0.419,-1.845 -0.255,-0.471 -0.717,-0.996 -1.405,-1.597 0.856,-0.564 1.45,-1.03 1.805,-1.419 0.624,-0.679 0.988,-1.442 1.079,-2.27 0.111,-1.068 -0.199,-2.028 -0.923,-2.859 -0.71,-0.818 -1.704,-1.302 -2.954,-1.436 -0.213,-0.023 -0.42,-0.033 -0.62,-0.033 -1.093,0 -2.027,0.338 -2.776,1.008 -0.713,0.659 -1.119,1.425 -1.215,2.285 -0.07,0.688 0.083,1.384 0.455,2.076 0.272,0.508 0.704,1.056 1.31,1.657 -0.799,0.572 -1.345,1.059 -1.661,1.482 m 26.018,-2.488 -3.207,1.691 -3.213,-1.691 0.615,3.58 -2.599,2.528 3.59,0.525 1.607,3.253 1.602,-3.253 3.592,-0.525 -2.596,-2.528 z m 58.728,213.569 c -0.163,0.232 -0.108,0.552 0.123,0.716 l 0.946,0.668 c 0.233,0.162 0.552,0.109 0.716,-0.123 l 1.08,-1.527 5.593,3.949 c 0.463,0.328 0.739,0.656 0.82,0.973 0.084,0.411 -0.1,0.954 -0.551,1.592 l -0.455,0.643 c -0.079,0.111 -0.11,0.25 -0.085,0.385 0.023,0.135 0.098,0.254 0.211,0.332 l 0.504,0.352 c 0.232,0.16 0.55,0.107 0.714,-0.124 l 10.027,-14.191 c 0.156,-0.223 0.112,-0.529 -0.101,-0.699 l -3.882,-3.075 c -0.111,-0.088 -0.256,-0.126 -0.393,-0.105 -0.14,0.02 -0.265,0.097 -0.346,0.212 l -0.372,0.531 c -0.141,0.198 -0.121,0.466 0.043,0.644 0.965,1.043 1.312,1.612 1.433,1.905 0.158,0.4 0.193,0.836 0.101,1.325 -0.072,0.236 -0.33,0.799 -1.078,1.856 l -3.28,4.646 -6.453,-4.558 2.577,-3.645 c 0.874,-1.241 1.415,-1.52 1.659,-1.576 0.579,-0.125 1.407,0.109 2.358,0.709 0.23,0.143 0.534,0.085 0.693,-0.138 l 0.355,-0.502 c 0.078,-0.111 0.11,-0.249 0.087,-0.384 -0.023,-0.134 -0.098,-0.253 -0.209,-0.332 l -6.397,-4.524 c -0.232,-0.163 -0.552,-0.109 -0.716,0.123 l -0.355,0.502 c -0.148,0.208 -0.12,0.493 0.064,0.668 0.984,0.939 1.271,1.332 1.353,1.484 0.157,0.281 0.199,0.604 0.133,0.991 -0.065,0.429 -0.349,0.998 -0.841,1.699 l -2.576,3.644 -5.673,-4.011 c -1.064,-0.747 -1.242,-0.973 -1.267,-1.01 -0.044,-0.07 -0.093,-0.173 -0.073,-0.364 0.005,-0.04 0.052,-0.289 0.482,-0.893 l 2.203,-3.12 c 0.721,-1.015 1.302,-1.692 1.724,-2.01 0.364,-0.274 0.834,-0.48 1.399,-0.613 0.675,0.532 1.294,1.336 1.843,2.392 0.083,0.161 0.246,0.266 0.426,0.276 0.182,0.012 0.355,-0.076 0.456,-0.225 l 0.933,-1.385 c 0.118,-0.174 0.118,-0.403 -0.002,-0.577 l -3.526,-5.162 c -0.095,-0.139 -0.251,-0.222 -0.42,-0.224 h -0.004 c -0.167,0 -0.323,0.081 -0.42,0.218 l -11.228,15.889 c -0.164,0.232 -0.109,0.552 0.123,0.716 l 0.499,0.353 c 0.231,0.163 0.551,0.109 0.715,-0.122 l 0.454,-0.639 c 0.271,-0.384 0.599,-0.669 1.004,-0.874 0.234,-0.119 0.462,-0.145 0.71,-0.083 0.168,0.042 0.62,0.23 1.745,1.022 l 5.477,3.871 z m -14.935,29.279 -0.592,0.517 c -0.213,0.187 -0.236,0.51 -0.05,0.723 l 0.4,0.462 c 0.089,0.103 0.217,0.166 0.353,0.176 0.136,0.007 0.269,-0.036 0.372,-0.126 l 4.443,-3.875 c 0.104,-0.089 0.166,-0.216 0.176,-0.352 0.009,-0.136 -0.035,-0.27 -0.125,-0.372 l -0.425,-0.487 c 2.219,-0.946 3.703,-1.905 4.53,-2.923 0.879,-1.227 1.313,-2.56 1.306,-3.985 -0.032,-1.436 -0.516,-2.697 -1.439,-3.757 -0.984,-1.131 -2.203,-1.824 -3.628,-2.062 -1.229,-0.204 -2.572,0.007 -4.01,0.631 l -1.676,-12.275 c -0.246,-2.154 0.145,-4.033 1.164,-5.574 0.094,-0.142 0.112,-0.32 0.047,-0.478 l -0.081,-0.197 c -0.062,-0.154 -0.195,-0.268 -0.356,-0.306 -0.04,-0.009 -0.079,-0.014 -0.119,-0.014 -0.123,0 -0.244,0.044 -0.338,0.127 -2.32,2.024 -3.587,4.277 -3.768,6.696 l 0.015,1.878 1.595,12.332 c -0.252,0.17 -0.518,0.377 -0.801,0.625 l -0.305,0.267 -3.923,-4.489 c -1.169,-1.34 -1.264,-1.822 -1.266,-1.939 -0.026,-0.49 0.185,-0.912 0.643,-1.31 l 0.615,-0.542 c 0.212,-0.186 0.234,-0.509 0.05,-0.722 l -0.4,-0.461 c -0.09,-0.103 -0.217,-0.166 -0.353,-0.176 -0.138,-0.005 -0.27,0.036 -0.374,0.125 l -6.7,5.848 c -0.213,0.185 -0.236,0.509 -0.051,0.723 l 0.401,0.461 c 0.185,0.214 0.51,0.237 0.724,0.051 l 0.591,-0.513 c 0.535,-0.466 1.013,-0.608 1.522,-0.441 0.127,0.046 0.566,0.291 1.619,1.497 l 9.589,10.987 c 1.184,1.358 1.304,1.854 1.313,1.973 0.017,0.437 -0.208,0.861 -0.688,1.277 m -35.209,-0.297 c 0.029,-0.403 0.185,-0.786 0.476,-1.173 0.199,-0.21 0.673,-0.582 1.797,-1.184 l 3.847,-2.043 c 0.636,-0.338 0.871,-0.364 0.923,-0.364 0.167,0.003 0.254,0.058 0.305,0.1 0.035,0.031 0.237,0.243 0.834,1.371 l 3.25,6.111 -3.901,2.078 c -0.929,0.492 -1.471,0.607 -1.767,0.617 l -0.086,10e-4 c -0.343,0 -0.618,-0.08 -0.848,-0.249 -0.133,-0.096 -0.478,-0.421 -1.294,-1.522 -0.114,-0.154 -0.291,-0.237 -0.471,-0.237 -0.094,0 -0.188,0.022 -0.276,0.069 l -0.544,0.289 c -0.137,0.073 -0.24,0.198 -0.286,0.347 -0.045,0.148 -0.03,0.309 0.043,0.447 l 3.703,6.959 c 0.105,0.199 0.308,0.312 0.518,0.312 0.092,0 0.186,-0.022 0.273,-0.068 l 0.546,-0.287 c 0.277,-0.145 0.391,-0.482 0.259,-0.767 -0.471,-1.015 -0.607,-1.823 -0.407,-2.394 0.084,-0.228 0.422,-0.714 1.755,-1.421 l 3.901,-2.077 3.668,6.891 -4.988,2.657 c -1.136,0.599 -1.708,0.785 -1.99,0.834 -0.051,0.002 -0.102,0.004 -0.151,0.004 -0.421,0 -0.78,-0.087 -1.098,-0.267 -0.275,-0.153 -0.791,-0.565 -1.697,-1.65 -0.114,-0.137 -0.28,-0.211 -0.45,-0.211 -0.093,0 -0.188,0.023 -0.276,0.069 l -0.577,0.307 c -0.142,0.076 -0.247,0.207 -0.29,0.362 -0.043,0.156 -0.02,0.322 0.064,0.46 l 2.578,4.259 c 0.11,0.182 0.303,0.283 0.502,0.283 0.094,0 0.189,-0.022 0.277,-0.068 l 14.812,-7.886 c 0.284,-0.151 0.394,-0.505 0.243,-0.791 l -0.286,-0.544 c -0.071,-0.138 -0.197,-0.242 -0.346,-0.288 -0.057,-0.017 -0.115,-0.026 -0.173,-0.026 -0.095,0 -0.189,0.023 -0.275,0.068 l -0.081,0.043 c -0.49,0.26 -0.917,0.393 -1.267,0.393 -0.129,0 -0.248,-0.019 -0.329,-0.045 -0.29,-0.114 -0.57,-0.421 -0.832,-0.914 l -3.204,-6.019 1.598,-0.851 c 0.286,-0.152 0.395,-0.506 0.242,-0.792 l -0.544,-1.03 c -0.072,-0.137 -0.197,-0.241 -0.345,-0.286 -0.057,-0.018 -0.115,-0.026 -0.173,-0.026 -0.096,0 -0.191,0.023 -0.276,0.068 l -1.603,0.852 -3.137,-5.9 c -0.665,-1.246 -0.777,-1.704 -0.795,-1.84 -0.027,-0.23 0.026,-0.445 0.16,-0.646 0.259,-0.378 0.578,-0.664 0.979,-0.876 l 0.693,-0.37 c 0.285,-0.151 0.394,-0.504 0.244,-0.79 l -0.286,-0.545 c -0.072,-0.139 -0.197,-0.243 -0.346,-0.288 -0.057,-0.018 -0.115,-0.026 -0.173,-0.026 -0.096,0 -0.191,0.023 -0.276,0.068 l -15.438,8.212 c -0.275,0.147 -0.387,0.483 -0.256,0.765 l 2.092,4.517 c 0.066,0.146 0.192,0.258 0.344,0.31 0.062,0.02 0.124,0.03 0.188,0.03 0.095,0 0.189,-0.023 0.274,-0.067 l 0.575,-0.304 c 0.244,-0.13 0.365,-0.414 0.29,-0.68 -0.392,-1.37 -0.444,-2.026 -0.415,-2.341 m -27.321,16.107 c -0.314,0.074 -0.51,0.389 -0.436,0.704 l 0.264,1.136 c 0.036,0.151 0.13,0.283 0.262,0.365 0.094,0.058 0.201,0.088 0.31,0.088 0.045,0 0.09,-0.005 0.134,-0.015 l 1.767,-0.419 1.569,6.636 c 0.13,0.546 0.125,0.96 -0.004,1.205 -0.217,0.37 -0.705,0.647 -1.448,0.825 l -0.085,0.02 c -0.313,0.075 -0.508,0.387 -0.436,0.701 l 0.135,0.599 c 0.036,0.153 0.13,0.285 0.263,0.368 0.094,0.059 0.202,0.089 0.311,0.089 0.045,0 0.091,-0.006 0.134,-0.016 l 16.339,-3.866 c 0.304,-0.072 0.497,-0.368 0.443,-0.675 l -0.877,-4.898 c -0.03,-0.159 -0.121,-0.298 -0.256,-0.387 -0.097,-0.064 -0.209,-0.097 -0.322,-0.097 -0.044,0 -0.09,0.005 -0.134,0.016 l -0.637,0.149 c -0.27,0.063 -0.459,0.307 -0.452,0.586 0.034,1.413 -0.082,2.066 -0.184,2.36 -0.137,0.39 -0.387,0.724 -0.759,1.022 -0.256,0.154 -0.817,0.394 -2.05,0.687 l -5.501,1.301 -1.799,-7.595 4.301,-1.019 c 0.614,-0.144 1.132,-0.217 1.537,-0.217 0.398,0 0.61,0.069 0.713,0.126 0.538,0.301 0.97,0.996 1.282,2.066 0.075,0.255 0.309,0.422 0.564,0.422 0.044,0 0.09,-0.005 0.137,-0.016 l 0.598,-0.143 c 0.314,-0.075 0.508,-0.391 0.434,-0.706 l -1.817,-7.673 c -0.037,-0.152 -0.132,-0.283 -0.265,-0.365 -0.093,-0.057 -0.2,-0.086 -0.307,-0.086 -0.045,0 -0.092,0.005 -0.137,0.016 l -0.598,0.143 c -0.283,0.068 -0.473,0.333 -0.447,0.623 0.125,1.402 0.068,1.858 0.034,1.998 -0.063,0.293 -0.24,0.555 -0.538,0.8 -0.226,0.187 -0.712,0.459 -1.733,0.7 l -4.303,1.019 -1.595,-6.737 c -0.295,-1.247 -0.285,-1.539 -0.282,-1.576 0.019,-0.106 0.07,-0.191 0.169,-0.28 0.041,-0.036 0.229,-0.171 0.933,-0.338 l 4.234,-1.003 c 0.868,-0.205 1.527,-0.309 1.961,-0.309 0.063,0 0.12,0.002 0.174,0.006 0.469,0.098 0.843,0.286 1.139,0.571 0.221,0.214 0.613,0.74 1.225,2.029 0.099,0.209 0.308,0.336 0.53,0.336 0.046,0 0.092,-0.006 0.138,-0.017 l 0.631,-0.152 c 0.156,-0.037 0.29,-0.138 0.371,-0.277 0.08,-0.139 0.1,-0.305 0.055,-0.46 l -1.41,-4.77 c -0.075,-0.254 -0.308,-0.42 -0.563,-0.42 -0.044,0 -0.09,0.005 -0.135,0.016 l -17.014,4.024 c -0.153,0.036 -0.284,0.131 -0.366,0.264 -0.081,0.132 -0.107,0.292 -0.07,0.444 l 0.144,0.602 c 0.064,0.27 0.304,0.45 0.57,0.45 0.045,0 0.091,-0.005 0.137,-0.015 l 0.767,-0.184 c 0.211,-0.05 0.423,-0.075 0.631,-0.075 0.224,0 0.45,0.029 0.669,0.085 0.239,0.065 0.42,0.189 0.554,0.386 0.096,0.137 0.304,0.566 0.621,1.902 l 1.539,6.503 z m -12.938,1.175 c 1.232,-1.095 1.874,-2.473 1.899,-4.092 0.02,-1.219 -0.36,-2.403 -1.128,-3.519 -0.766,-1.115 -1.83,-1.95 -3.161,-2.484 -1.291,-0.517 -3.273,-0.801 -5.893,-0.845 l -10.799,-0.175 h -0.009 c -0.279,0 -0.507,0.223 -0.513,0.504 l -0.011,0.613 c -0.003,0.137 0.048,0.269 0.143,0.367 0.095,0.098 0.225,0.154 0.361,0.157 l 0.854,0.014 c 0.78,0.012 1.307,0.238 1.611,0.692 0.113,0.177 0.308,0.71 0.281,2.199 l -0.235,14.581 c -0.029,1.71 -0.288,2.194 -0.399,2.323 -0.315,0.335 -0.817,0.506 -1.521,0.506 l -0.917,-0.015 c -0.269,-0.001 -0.517,0.22 -0.523,0.504 l -0.011,0.613 c -0.003,0.137 0.049,0.268 0.143,0.367 0.095,0.098 0.225,0.155 0.361,0.157 l 6.507,0.106 c 0.136,-0.009 0.267,-0.05 0.366,-0.145 0.098,-0.094 0.154,-0.224 0.156,-0.361 l 0.01,-0.652 c 1.681,0.755 3.665,1.156 5.912,1.192 l 0.174,0.002 c 2.391,0 4.251,-0.867 5.53,-2.575 0.956,-1.067 1.465,-2.353 1.485,-3.786 0.023,-1.22 -0.349,-2.348 -1.108,-3.35 -0.487,-0.64 -1.179,-1.142 -2.066,-1.5 1.087,-0.402 1.913,-0.865 2.501,-1.398 m -8.228,-17.844 c 61.192,0 110.794,-49.606 110.794,-110.794 0,-16.262 -3.504,-31.707 -9.799,-45.62 -1.14,0.107 -2.271,0.332 -3.389,0.687 -1.806,0.594 -3.2,1.677 -4.156,3.276 -0.96,1.585 -1.92,5.082 -2.87,10.482 l -6.176,35.027 6.703,1.181 0.544,0.096 4.319,0.761 v 0.001 l 0.759,0.134 -9.181,52.05 0.004,0.001 -0.528,2.975 -5.055,-0.891 c 0.755,1.167 1.278,2.523 1.463,4.094 0.186,1.59 -0.527,3.435 -1.956,5.062 -1.674,1.905 -3.974,3.158 -6.115,3.36 0.541,1.633 0.453,3.338 -0.265,4.963 -1.041,2.363 -3.366,4.391 -6.219,5.425 -3.129,1.127 -5.883,1.242 -7.982,0.313 -0.697,-0.315 -1.347,-0.753 -1.905,-1.279 -2.258,3.297 -6.359,5.178 -11.335,5.178 -2.279,0 -4.621,-0.399 -6.774,-1.154 -4.499,-1.572 -7.741,-3.918 -9.638,-6.972 -0.351,-0.568 -0.652,-1.204 -0.879,-1.86 -3.359,1.317 -7.472,0.464 -10.531,-2.138 -2.47,-2.097 -4.749,-6.579 -4.501,-10.234 -1.363,0.41 -3.497,-0.083 -4.874,-0.457 l -0.354,-0.095 c -1.809,-0.477 -3.78,-1.647 -4.807,-3.303 -0.981,4.551 -2.992,8.854 -5.362,12.136 -2.252,3.137 -6.419,6.823 -10.652,7.984 -0.641,0.179 -1.285,0.269 -1.913,0.269 -1.734,0 -3.203,-0.681 -4.107,-1.887 -3.236,3.252 -7.552,4.409 -10.556,4.998 -0.89,0.176 -1.814,0.265 -2.747,0.265 -3.752,0 -8.413,-1.494 -10.45,-5.657 -3.78,1.643 -8.271,3.273 -13.162,3.273 -2.622,0 -5.151,-0.456 -7.733,-1.393 -5.457,-1.981 -7.266,-5.276 -8.612,-10.639 -1.535,-0.372 -3.293,-1.35 -4.171,-2.336 -0.339,-0.372 -0.671,-0.88 -0.927,-1.415 -1.364,-1.897 -1.55,-4.958 -0.971,-7.512 l -5.162,0.91 -5.623,0.992 -0.528,-2.978 0.002,-0.001 -9.177,-52.047 0.754,-0.133 -0.001,-0.002 11.566,-2.038 -6.174,-35.027 c -0.954,-5.4 -1.911,-8.897 -2.875,-10.482 -0.957,-1.599 -2.344,-2.682 -4.153,-3.276 -1.169,-0.372 -2.352,-0.602 -3.548,-0.701 -6.298,13.916 -9.805,29.366 -9.805,45.634 0,61.188 49.602,110.794 110.79,110.794 m -34.44,21.873 3.52,-14.431 c 0.266,-1.078 0.49,-1.445 0.599,-1.568 0.096,-0.093 0.231,-0.161 0.406,-0.192 0.27,0.034 0.831,0.072 2.267,0.421 l 1.552,0.38 c 1.569,0.383 2.636,0.761 3.17,1.124 0.418,0.282 0.547,0.6 0.432,1.066 -0.144,0.606 -0.68,1.677 -1.592,3.188 -0.084,0.14 -0.098,0.312 -0.035,0.462 0.063,0.151 0.193,0.263 0.351,0.302 l 1.187,0.293 c 0.219,0.052 0.447,-0.04 0.562,-0.233 l 3.703,-6.113 c 0.085,-0.14 0.099,-0.311 0.036,-0.463 -0.062,-0.151 -0.193,-0.263 -0.352,-0.302 l -17.765,-4.372 c -0.041,-0.01 -0.082,-0.014 -0.123,-0.014 -0.23,0 -0.439,0.155 -0.497,0.389 l -0.149,0.597 c -0.033,0.132 -0.013,0.272 0.058,0.389 0.071,0.117 0.185,0.201 0.318,0.234 l 0.796,0.194 c 0.73,0.178 1.167,0.514 1.338,1.026 0.044,0.137 0.11,0.639 -0.27,2.213 l -3.45,14.135 c -0.424,1.737 -0.776,2.115 -0.874,2.189 -0.367,0.265 -0.893,0.325 -1.556,0.163 l -0.795,-0.195 c -0.134,-0.033 -0.273,-0.011 -0.39,0.06 -0.117,0.071 -0.2,0.185 -0.232,0.318 l -0.144,0.596 c -0.066,0.275 0.103,0.553 0.378,0.619 l 9.631,2.351 c 0.274,0.069 0.551,-0.1 0.62,-0.375 l 0.148,-0.596 c 0.034,-0.132 0.012,-0.273 -0.059,-0.39 -0.07,-0.117 -0.185,-0.201 -0.318,-0.234 l -0.865,-0.209 c -0.468,-0.114 -1.038,-0.429 -1.696,-0.935 -0.157,-0.494 -0.127,-1.195 0.09,-2.087 m -31.939,-11.69 5.007,-9.815 c 1.232,-2.413 2.598,-3.792 4.062,-4.099 0.595,-0.184 1.11,-0.27 1.576,-0.27 h 0.001 c 0.524,0 1.006,0.11 1.43,0.328 1.563,0.797 2.578,1.94 3.103,3.493 -0.019,1.694 -0.46,3.399 -1.313,5.068 l -6.18,12.11 c -0.976,1.911 -0.804,3.842 0.511,5.74 0.048,0.069 0.113,0.126 0.189,0.165 1.273,0.651 2.256,0.972 3.009,0.979 0.161,-0.004 0.372,-0.106 0.461,-0.279 l 0.281,-0.548 c 0.063,-0.122 0.074,-0.263 0.031,-0.393 -0.042,-0.129 -0.133,-0.237 -0.256,-0.299 l -0.698,-0.355 c -0.326,-0.167 -0.51,-0.589 -0.546,-1.253 -0.092,-0.683 0.062,-1.394 0.454,-2.157 l 5.734,-11.231 c 1.052,-2.064 1.596,-3.905 1.62,-5.471 0.025,-1.582 -0.392,-3.078 -1.24,-4.446 -0.845,-1.364 -2.234,-2.546 -4.13,-3.511 -1.566,-0.753 -2.864,-1.116 -3.982,-1.116 -0.248,0 -0.486,0.018 -0.712,0.055 -1.419,0.071 -2.741,0.628 -3.874,1.65 -0.954,0.838 -1.788,1.892 -2.473,3.131 l -5.505,10.789 c -0.192,0.321 -0.515,0.752 -0.875,0.814 -0.346,0.042 -0.752,0.02 -1.019,-0.097 l -0.666,-0.342 c -0.251,-0.128 -0.56,-0.029 -0.69,0.222 l -0.281,0.545 c -0.062,0.121 -0.074,0.262 -0.033,0.392 0.042,0.131 0.134,0.239 0.256,0.301 l 7.527,3.84 c 0.254,0.13 0.56,0.029 0.69,-0.222 l 0.28,-0.544 c 0.063,-0.121 0.075,-0.263 0.033,-0.392 -0.041,-0.131 -0.133,-0.239 -0.255,-0.301 l -0.699,-0.358 c -0.583,-0.296 -0.959,-0.626 -1.092,-0.958 -0.021,-0.345 0.068,-0.737 0.264,-1.165 m -43.586,-33.539 c -0.059,0.158 -0.036,0.336 0.06,0.474 l 2.993,4.271 c 0.163,0.231 0.482,0.289 0.715,0.126 l 0.418,-0.292 c 0.112,-0.078 0.188,-0.198 0.212,-0.332 0.023,-0.134 -0.007,-0.273 -0.086,-0.384 l -0.372,-0.531 c -0.454,-0.655 -0.34,-1.078 -0.215,-1.339 0.064,-0.135 0.351,-0.541 1.665,-1.458 l 16.528,-11.568 c 1.438,-1.007 1.913,-1.086 2.024,-1.086 0.68,0.005 1.149,0.319 1.487,0.988 0.115,0.226 0.379,0.335 0.618,0.256 l 0.34,-0.111 c 0.261,-0.086 0.408,-0.363 0.334,-0.628 -0.506,-1.78 -1.553,-2.878 -3.112,-3.263 -0.319,-0.053 -0.593,-0.076 -0.864,-0.076 -1.021,0 -1.997,0.322 -2.902,0.957 l -15.458,10.819 3.348,-9.021 c 0.058,-0.158 0.035,-0.335 -0.061,-0.474 l -0.624,-0.891 c -0.101,-0.145 -0.287,-0.225 -0.446,-0.218 l -8.886,0.43 10.713,-7.499 c 1.574,-1.027 2.05,-1.115 2.158,-1.117 0.535,0.005 0.757,0.232 0.876,0.402 l 0.356,0.506 c 0.078,0.112 0.198,0.188 0.332,0.211 0.134,0.024 0.273,-0.008 0.384,-0.087 l 0.47,-0.332 c 0.231,-0.163 0.287,-0.482 0.125,-0.715 l -4.122,-5.89 c -0.079,-0.111 -0.198,-0.187 -0.332,-0.211 -0.03,-0.005 -0.06,-0.007 -0.089,-0.007 -0.105,0 -0.208,0.031 -0.296,0.093 l -0.498,0.349 c -0.232,0.162 -0.288,0.481 -0.127,0.714 l 0.368,0.53 c 0.46,0.693 0.271,1.106 0.003,1.413 l -14.328,10.026 c -0.743,0.522 -1.206,0.632 -1.463,0.632 -0.413,-0.075 -0.692,-0.241 -0.898,-0.505 l -0.317,-0.454 c -0.078,-0.111 -0.198,-0.188 -0.333,-0.211 -0.136,-0.021 -0.273,0.008 -0.384,0.087 l -0.499,0.352 c -0.231,0.163 -0.287,0.482 -0.125,0.714 l 2.792,3.992 c 0.101,0.146 0.273,0.224 0.449,0.22 l 11.077,-0.606 z M 31.443,79.479 c 0.298,11.422 4.907,20.92 10.927,23.758 -0.621,4.523 -1.405,8.991 -2.361,13.396 -6.967,-0.109 -14.985,7.966 -18.886,19.623 -3.627,10.851 -2.541,21.368 2.169,26.085 -2.133,4.013 -4.426,7.925 -6.845,11.752 -6.513,-2.468 -16.798,2.379 -24.438,11.989 -7.118,8.948 -9.694,19.195 -6.894,25.24 -3.361,3.038 -6.864,5.924 -10.452,8.705 -5.279,-4.538 -16.591,-3.494 -27.055,2.917 -9.76,5.976 -15.684,14.733 -15.108,21.373 -4.184,1.701 -8.439,3.26 -12.776,4.644 -3.375,-6.105 -14.383,-9.02 -26.444,-6.564 -11.191,2.273 -19.737,8.45 -21.5,14.867 -2.158,0.078 -4.316,0.164 -6.498,0.164 -2.385,0 -4.746,-0.086 -7.111,-0.181 -1.127,-6.867 -10.462,-13.342 -22.6,-15.154 -11.321,-1.697 -21.497,1.207 -25.32,6.667 -4.328,-1.398 -8.582,-2.958 -12.758,-4.669 1.327,-6.841 -5.231,-16.148 -16.047,-22.021 -10.032,-5.449 -20.551,-6.211 -26.026,-2.424 -3.577,-2.792 -7.079,-5.679 -10.43,-8.729 3.58,-5.979 0.596,-16.962 -7.552,-26.174 -7.573,-8.556 -17.209,-12.871 -23.649,-11.172 -2.408,-3.832 -4.676,-7.759 -6.794,-11.778 5.406,-4.396 6.358,-15.735 1.849,-27.177 -4.193,-10.645 -11.788,-18.003 -18.427,-18.587 -0.94,-4.405 -1.69,-8.88 -2.298,-13.4 6.566,-2.298 11.327,-12.62 11.003,-24.896 -0.298,-11.419 -4.904,-20.917 -10.929,-23.755 0.625,-4.52 1.41,-8.988 2.362,-13.394 6.968,0.108 14.987,-7.965 18.888,-19.627 3.629,-10.85 2.542,-21.363 -2.164,-26.08 2.133,-4.016 4.423,-7.925 6.845,-11.749 6.509,2.462 16.791,-2.382 24.437,-11.995 7.114,-8.945 9.69,-19.189 6.891,-25.235 3.364,-3.04 6.867,-5.924 10.453,-8.704 5.282,4.532 16.59,3.491 27.053,-2.921 9.752,-5.978 15.679,-14.729 15.109,-21.371 4.184,-1.696 8.44,-3.257 12.774,-4.642 3.377,6.099 14.389,9.014 26.45,6.56 11.178,-2.275 19.725,-8.446 21.49,-14.864 2.162,-0.077 4.323,-0.163 6.501,-0.163 2.385,0 4.75,0.086 7.112,0.181 1.131,6.864 10.463,13.336 22.599,15.15 11.319,1.691 21.487,-1.206 25.315,-6.667 4.331,1.398 8.587,2.958 12.765,4.672 -1.326,6.845 5.235,16.148 16.045,22.017 10.03,5.445 20.546,6.209 26.024,2.427 3.58,2.791 7.081,5.68 10.436,8.73 -3.58,5.979 -0.598,16.96 7.553,26.166 7.569,8.558 17.205,12.875 23.645,11.176 2.408,3.834 4.674,7.76 6.796,11.782 -5.406,4.397 -6.358,15.736 -1.851,27.169 4.195,10.648 11.789,18.006 18.429,18.593 0.937,4.406 1.69,8.879 2.299,13.403 -6.57,2.299 -11.327,12.617 -11.006,24.887"
             style="fill:#231f20;fill-opacity:1;fill-rule:nonzero;stroke:none"
             id="path24" />
        </g>
        <g
           id="g26"
           transform="translate(170.1162,194.0537)">
          <path
             d="M 0,0 C 2.416,0.239 4.562,-1.527 4.798,-3.949 5.036,-6.363 3.267,-8.512 0.849,-8.75 -1.57,-8.982 -3.72,-7.217 -3.953,-4.798 -4.187,-2.379 -2.422,-0.232 0,0 m 1.806,-12.053 c 4.185,0.405 7.257,4.136 6.847,8.322 -0.41,4.197 -4.13,7.263 -8.321,6.85 -4.193,-0.398 -7.263,-4.128 -6.855,-8.321 0.407,-4.191 4.135,-7.255 8.329,-6.851"
             style="fill:#231f20;fill-opacity:1;fill-rule:nonzero;stroke:none"
             id="path28" />
        </g>
        <g
           id="g30"
           transform="translate(166.7056,222.1631)">
          <path
             d="M 0,0 C -1.76,0.078 -3.133,1.565 -3.053,3.325 -2.978,5.093 -1.482,6.461 0.275,6.38 2.043,6.303 3.408,4.81 3.331,3.041 3.253,1.29 1.759,-0.077 0,0 m 0.247,8.269 c -3.053,0.129 -5.639,-2.232 -5.776,-5.293 -0.135,-3.05 2.236,-5.639 5.294,-5.77 3.058,-0.138 5.637,2.235 5.773,5.282 0.134,3.055 -2.231,5.646 -5.291,5.781"
             style="fill:#231f20;fill-opacity:1;fill-rule:nonzero;stroke:none"
             id="path32" />
        </g>
        <g
           id="g34"
           transform="translate(188.2246,237.9644)">
          <path
             d="M 0,0 C -0.722,-1.118 -2.224,-1.444 -3.336,-0.722 -4.462,0 -4.786,1.494 -4.058,2.62 -3.347,3.744 -1.846,4.064 -0.728,3.348 0.396,2.62 0.723,1.124 0,0 m -0.028,4.586 c -1.94,1.253 -4.529,0.688 -5.787,-1.253 -1.253,-1.942 -0.691,-4.534 1.258,-5.792 1.949,-1.247 4.535,-0.69 5.787,1.261 1.253,1.94 0.691,4.535 -1.258,5.784"
             style="fill:#231f20;fill-opacity:1;fill-rule:nonzero;stroke:none"
             id="path36" />
        </g>
        <g
           id="g38"
           transform="translate(254.5254,193.8643)">
          <path
             d="M 0,0 C 2.427,-0.243 4.189,-2.395 3.944,-4.814 3.71,-7.233 1.556,-8.993 -0.861,-8.756 -3.278,-8.521 -5.047,-6.365 -4.807,-3.943 -4.567,-1.535 -2.413,0.233 0,0 m -1.827,-12.066 c 4.194,-0.411 7.927,2.654 8.343,6.847 0.415,4.189 -2.647,7.92 -6.835,8.335 -4.194,0.416 -7.927,-2.645 -8.341,-6.839 -0.416,-4.189 2.645,-7.922 6.833,-8.343"
             style="fill:#231f20;fill-opacity:1;fill-rule:nonzero;stroke:none"
             id="path40" />
        </g>
        <g
           id="g42"
           transform="translate(242.9609,239.0396)">
          <path
             d="M 0,0 C 1.763,0.069 3.253,-1.298 3.322,-3.064 3.397,-4.824 2.027,-6.314 0.267,-6.392 -1.496,-6.469 -2.984,-5.091 -3.059,-3.333 -3.136,-1.568 -1.762,-0.078 0,0 m 0.493,-9.184 c 3.058,0.129 5.431,2.709 5.309,5.765 -0.136,3.055 -2.718,5.434 -5.77,5.302 -3.061,-0.126 -5.429,-2.7 -5.303,-5.764 0.126,-3.055 2.707,-5.429 5.764,-5.303"
             style="fill:#231f20;fill-opacity:1;fill-rule:nonzero;stroke:none"
             id="path44" />
        </g>
        <g
           id="g46"
           transform="translate(265.4863,228.6006)">
          <path
             d="M 0,0 C 1.123,0.723 2.617,0.398 3.337,-0.737 4.059,-1.854 3.729,-3.351 2.604,-4.073 1.484,-4.789 -0.021,-4.459 -0.739,-3.342 -1.453,-2.216 -1.126,-0.722 0,0 m 3.818,-5.807 c 1.95,1.25 2.518,3.838 1.268,5.785 -1.25,1.945 -3.839,2.516 -5.784,1.266 -1.95,-1.247 -2.518,-3.838 -1.272,-5.787 1.248,-1.943 3.838,-2.511 5.788,-1.264"
             style="fill:#231f20;fill-opacity:1;fill-rule:nonzero;stroke:none"
             id="path48" />
        </g>
        <g
           id="g50"
           transform="translate(216.0469,340.9287)">
          <path
             d="M 0,0 C -0.769,0.3 -1.906,0.452 -3.385,0.452 L -3.771,0.448 C -4.964,0.429 -6.093,0.156 -7.131,-0.363 L -7,-8.524 c 1.036,-0.194 2.072,-0.292 3.088,-0.292 l 0.255,0.002 c 1.914,0.032 3.366,0.468 4.315,1.295 0.944,0.819 1.392,1.795 1.371,2.986 -0.01,0.798 -0.183,1.724 -0.513,2.756 C 1.214,-0.854 0.718,-0.271 0,0"
             style="fill:#231f20;fill-opacity:1;fill-rule:nonzero;stroke:none"
             id="path52" />
        </g>
        <g
           id="g54"
           transform="translate(229.4775,84.832)">
          <path
             d="M 0,0 1.18,-0.776 C 1.697,-0.169 1.894,0.18 1.965,0.372 2.089,0.701 2.127,1.051 2.086,1.443 2.034,1.927 1.874,2.271 1.594,2.496 1.362,2.681 1.078,2.771 0.727,2.771 0.645,2.771 0.561,2.767 0.474,2.758 0.001,2.705 -0.354,2.539 -0.613,2.25 -0.86,1.972 -0.959,1.691 -0.924,1.37 -0.9,1.149 -0.814,0.926 -0.666,0.702 -0.51,0.456 -0.287,0.222 0,0"
             style="fill:#231f20;fill-opacity:1;fill-rule:nonzero;stroke:none"
             id="path56" />
        </g>
        <g
           id="g58"
           transform="translate(294.9678,312.8843)">
          <path
             d="m 0,0 c 1.388,-1.211 2.696,-1.836 3.89,-1.856 h 0.003 c 1.217,0 2.125,0.409 2.857,1.251 C 7.509,0.263 7.929,1.197 8.001,2.171 8.065,3.102 7.665,3.932 6.777,4.706 6.186,5.08 5.419,5.443 4.533,5.757 l -4.81,-5.513 z"
             style="fill:#231f20;fill-opacity:1;fill-rule:nonzero;stroke:none"
             id="path60" />
        </g>
        <g
           id="g62"
           transform="translate(216.0889,344.6353)">
          <path
             d="M 0,0 C 0.759,0.948 1.143,1.796 1.134,2.518 1.113,3.687 0.62,4.655 -0.371,5.476 -1.329,6.17 -2.271,6.533 -3.145,6.533 V 7.042 7.047 L -3.146,7.042 -3.19,6.533 C -4.849,6.505 -6.238,6.026 -7.323,5.107 l 0.12,-7.244 c 1.131,0.44 2.269,0.671 3.396,0.688 C -2.044,-1.419 -0.763,-0.933 0,0"
             style="fill:#231f20;fill-opacity:1;fill-rule:nonzero;stroke:none"
             id="path64" />
        </g>
        <g
           id="g66"
           transform="translate(135.1626,309.1333)">
          <path
             d="m 0,0 -9.241,5.187 2.817,-7.606 z"
             style="fill:#231f20;fill-opacity:1;fill-rule:nonzero;stroke:none"
             id="path68" />
        </g>
        <g
           id="g70"
           transform="translate(207.3335,76.9326)">
          <path
             d="m 0,0 c 0.473,-0.888 0.898,-0.888 1.037,-0.888 0.299,0.03 0.513,0.158 0.733,0.387 0.232,0.237 0.394,0.675 0.472,1.269 0.17,1.048 0.146,2.53 -0.067,4.419 C 2.007,6.563 1.731,7.696 1.354,8.547 1.042,9.266 0.743,9.57 0.547,9.699 0.416,9.789 0.272,9.83 0.104,9.83 0.062,9.83 0.021,9.827 -0.022,9.823 -0.172,9.806 -0.404,9.742 -0.641,9.393 -0.962,8.916 -1.143,8.166 -1.176,7.164 -1.208,6.086 -1.159,5.012 -1.03,3.973 -0.849,2.3 -0.503,0.966 0,0"
             style="fill:#231f20;fill-opacity:1;fill-rule:nonzero;stroke:none"
             id="path72" />
        </g>
        <g
           id="g74"
           transform="translate(229.4756,80.0459)">
          <path
             d="m 0,0 c -0.164,-0.458 -0.216,-0.929 -0.162,-1.442 0.07,-0.65 0.286,-1.124 0.66,-1.45 0.361,-0.318 0.78,-0.447 1.276,-0.388 0.521,0.056 0.899,0.229 1.157,0.528 0.25,0.29 0.347,0.604 0.306,0.983 C 3.201,-1.447 3.086,-1.172 2.885,-0.932 2.474,-0.441 1.681,0.189 0.523,0.944 0.289,0.638 0.113,0.321 0,0"
             style="fill:#231f20;fill-opacity:1;fill-rule:nonzero;stroke:none"
             id="path76" />
        </g>
        <g
           id="g78"
           transform="translate(335.9707,128.0186)">
          <path
             d="m 0,0 c 0.475,-0.939 0.861,-1.914 1.12,-2.934 0,0 4.42,2.748 4.059,3.72 0,0 -0.427,1.641 -2.109,3.88 -3.181,4.239 -10.859,10.629 -28.67,12.128 0,0 19.897,-5.491 25.6,-16.794"
             style="fill:#231f20;fill-opacity:1;fill-rule:nonzero;stroke:none"
             id="path80" />
        </g>
        <g
           id="g82"
           transform="translate(330.0937,120.0127)">
          <path
             d="m 0,0 c 0.114,-0.407 0.214,-0.82 0.295,-1.239 0,0 4.589,2.382 4.277,3.376 0,0 -0.031,1.172 -0.76,2.93 -1.749,4.214 -7.535,11.818 -26.705,14.892 0,0 19.314,-7.263 22.893,-19.959"
             style="fill:#231f20;fill-opacity:1;fill-rule:nonzero;stroke:none"
             id="path84" />
        </g>
        <g
           id="g86"
           transform="translate(323.6025,112.5996)">
          <path
             d="m 0,0 c 0,0 0.175,0.087 0.451,0.232 1.148,0.606 4.092,2.247 3.843,3.049 0,0 0.169,0.599 0.146,1.587 C 4.361,8.389 1.847,16.847 -19.463,20.64 -19.463,20.64 -2.644,13.457 0,0"
             style="fill:#231f20;fill-opacity:1;fill-rule:nonzero;stroke:none"
             id="path88" />
        </g>
        <g
           id="g90"
           transform="translate(316.7305,105.5625)">
          <path
             d="m 0,0 c 0,0 0.317,0.156 0.777,0.401 1.303,0.696 3.769,2.123 3.544,2.853 0,0 0.116,0.343 0.165,0.926 0.234,2.769 -1.049,11.085 -23.55,15.204 0,0 16.531,-5.909 19.064,-19.384"
             style="fill:#231f20;fill-opacity:1;fill-rule:nonzero;stroke:none"
             id="path92" />
        </g>
        <g
           id="g94"
           transform="translate(310.624,99.5879)">
          <path
             d="m 0,0 c 0.297,-0.871 0.546,-1.776 0.725,-2.729 0,0 4.629,2.272 4.321,3.258 0,0 0.837,1.701 -0.003,4.055 C 3.82,8.018 -0.971,12.84 -17.125,15.8 -17.125,15.8 -3.902,11.43 0,0"
             style="fill:#231f20;fill-opacity:1;fill-rule:nonzero;stroke:none"
             id="path96" />
        </g>
        <g
           id="g98"
           transform="translate(308.793,98.0322)">
          <path
             d="m 0,0 c -2.266,3.183 -7.885,6.93 -21.254,9.377 0,0 11.408,-3.809 16.245,-13.408 0.798,-1.583 1.424,-3.321 1.783,-5.229 0,0 4.621,2.271 4.318,3.265 0,0 1.258,2.694 -1.092,5.995"
             style="fill:#231f20;fill-opacity:1;fill-rule:nonzero;stroke:none"
             id="path100" />
        </g>
        <g
           id="g102"
           transform="translate(91.7021,124.0303)">
          <path
             d="M 0,0 C 0.086,0.305 0.187,0.603 0.287,0.899 4.516,13.494 20.625,20 20.625,20 5.291,18.127 -1.186,10.828 -3.68,6.667 -4.73,4.916 -5.079,3.717 -5.079,3.717 -5.449,2.754 0,0 0,0"
             style="fill:#231f20;fill-opacity:1;fill-rule:nonzero;stroke:none"
             id="path104" />
        </g>
        <g
           id="g106"
           transform="translate(94.0234,122.1816)">
          <path
             d="M 0,0 C -0.066,-0.222 -0.094,-0.345 -0.094,-0.345 -0.276,-0.974 1.518,-2.562 2.849,-3.635 3.609,-4.249 4.22,-4.695 4.22,-4.695 6.839,8.775 24.128,16.993 24.128,16.993 4.69,12.654 0.612,2.038 0,0"
             style="fill:#231f20;fill-opacity:1;fill-rule:nonzero;stroke:none"
             id="path108" />
        </g>
        <g
           id="g110"
           transform="translate(99.1221,115.8281)">
          <path
             d="m 0,0 c -0.008,-0.033 -0.014,-0.056 -0.014,-0.056 -0.244,-0.85 2.825,-3.437 3.749,-4.192 0.163,-0.133 0.267,-0.216 0.267,-0.216 2.66,13.573 20.29,22.7 20.29,22.7 C 3.495,12.534 0.216,0.866 0,0"
             style="fill:#231f20;fill-opacity:1;fill-rule:nonzero;stroke:none"
             id="path112" />
        </g>
        <g
           id="g114"
           transform="translate(104.7417,109.5557)">
          <path
             d="M 0,0 C -0.101,-0.377 -0.133,-0.591 -0.133,-0.591 -0.411,-1.603 3.67,-5.24 3.67,-5.24 3.75,-4.821 3.844,-4.407 3.95,-3.997 7.28,8.901 23.167,17.538 23.167,17.538 4.438,12.293 0.668,2.489 0,0"
             style="fill:#231f20;fill-opacity:1;fill-rule:nonzero;stroke:none"
             id="path116" />
        </g>
        <g
           id="g118"
           transform="translate(109.9189,104.3613)">
          <path
             d="m 0,0 c -0.715,-1.909 -0.635,-3.178 -0.635,-3.178 -0.282,-1.001 3.576,-5.458 3.576,-5.458 0.308,1.622 0.791,3.177 1.397,4.662 C 8.814,6.988 20.202,14.013 20.202,14.013 5.899,10.003 1.406,3.756 0,0"
             style="fill:#231f20;fill-opacity:1;fill-rule:nonzero;stroke:none"
             id="path120" />
        </g>
        <g
           id="g122"
           transform="translate(115.9375,98.9229)">
          <path
             d="m 0,0 c -1.541,-3.16 -1.121,-5.391 -1.271,-4.773 -0.284,-1.014 3.646,-5.054 3.646,-5.054 0.423,2.226 1.123,4.305 1.991,6.226 4.43,9.813 13.337,15.506 13.337,15.506 C 6.332,8.717 1.811,3.715 0,0"
             style="fill:#231f20;fill-opacity:1;fill-rule:nonzero;stroke:none"
             id="path124" />
        </g>
        <g
           id="g126"
           transform="translate(162.8584,126.1367)">
          <path
             d="M 0,0 0.23,1.886 C 0.688,2.528 1.073,2.983 1.382,3.256 1.691,3.528 2.007,3.684 2.328,3.717 2.648,3.754 2.973,3.686 3.302,3.517 3.629,3.347 4.05,3.101 4.558,2.774 4.633,2.662 4.678,2.565 4.704,2.479 4.729,2.393 4.747,2.308 4.756,2.222 4.807,1.754 4.753,1.318 4.592,0.916 4.432,0.513 4.208,0.266 3.921,0.177 3.302,-0.367 2.787,-0.766 2.374,-1.018 1.96,-1.27 1.637,-1.425 1.408,-1.481 L 1.016,-1.525 C 0.634,-1.568 0.378,-1.517 0.242,-1.37 0.109,-1.222 0.03,-1.032 0,-0.798 c -0.017,0.145 -0.022,0.277 -0.022,0.397 0,0.117 0.008,0.252 0.022,0.401 m -27.2,-7.252 c 0.052,-0.347 0.156,-0.701 0.313,-1.066 0.158,-0.361 0.375,-0.7 0.661,-1.015 3.176,-2.442 6.84,-3.358 10.99,-2.752 l 0.613,0.089 4.419,1.718 c 1.099,0.424 2.02,0.96 2.801,1.585 0.455,0.363 0.875,0.751 1.221,1.183 0.894,1.117 1.465,2.495 1.737,4.114 0.024,-0.181 0.048,-0.335 0.072,-0.446 0.028,-0.128 0.057,-0.257 0.085,-0.386 0.029,-0.128 0.063,-0.275 0.095,-0.432 0.032,-0.161 0.066,-0.37 0.095,-0.634 0.028,-0.262 0.109,-0.65 0.24,-1.166 0.132,-0.519 0.23,-0.906 0.287,-1.164 0.522,-0.946 1.124,-1.632 1.806,-2.059 0.682,-0.423 1.576,-0.573 2.689,-0.449 0.785,0.089 1.562,0.28 2.327,0.572 1.594,0.775 2.992,1.73 4.196,2.867 1.199,1.14 2.109,2.5 2.728,4.076 l 0.054,0.299 c 0.076,-0.1 0.164,-0.166 0.273,-0.16 0.058,0.003 0.164,0.093 0.316,0.262 0.149,0.172 0.32,0.375 0.513,0.609 0.191,0.231 0.369,0.455 0.53,0.672 0.163,0.215 0.286,0.37 0.368,0.464 l 0.133,-0.037 c 0.244,-0.132 0.49,-0.32 0.742,-0.569 0.253,-0.247 0.402,-0.77 0.454,-1.56 l 0.295,-4.655 c 0.192,-0.224 0.404,-0.364 0.645,-0.424 0.238,-0.057 0.504,-0.078 0.797,-0.06 l 0.616,0.04 c 0.327,0.404 0.668,0.799 1.026,1.189 0.359,0.391 0.685,0.794 0.982,1.209 0.299,0.416 0.558,0.852 0.778,1.308 0.22,0.456 0.358,0.949 0.412,1.482 0.224,0.192 0.439,0.41 0.643,0.659 0.203,0.246 0.409,0.496 0.616,0.745 0.203,0.247 0.424,0.458 0.664,0.636 0.236,0.178 0.517,0.276 0.84,0.299 l 0.09,0.005 0.767,-6.568 c 0.184,-0.107 0.528,-0.285 1.027,-0.531 0.504,-0.247 0.928,-0.362 1.278,-0.34 l 0.264,0.019 c 0.527,0.034 1.192,0.266 1.987,0.698 0.793,0.434 1.595,1.035 2.398,1.806 0.806,0.772 1.525,1.685 2.167,2.74 0.636,1.058 1.049,2.222 1.232,3.5 L 32.397,1.474 C 32.28,1.465 32.151,1.412 32.011,1.315 31.867,1.218 31.735,1.105 31.612,0.982 31.488,0.856 31.386,0.73 31.305,0.61 c -0.08,-0.124 -0.12,-0.2 -0.118,-0.229 -0.277,-0.722 -0.736,-1.407 -1.37,-2.05 -0.635,-0.644 -1.275,-0.985 -1.92,-1.025 -0.324,-0.021 -0.57,0.155 -0.736,0.524 L 26.203,4.562 25.211,5.56 24.019,5.571 C 23.42,5.3 22.89,4.935 22.434,4.479 21.979,4.024 21.555,3.533 21.159,3.009 20.769,2.481 20.391,1.937 20.03,1.37 19.668,0.802 19.267,0.269 18.832,-0.227 18.502,-0.161 18.259,0 18.092,0.255 17.932,0.51 17.808,0.811 17.729,1.158 17.645,1.505 17.571,1.859 17.508,2.224 17.438,2.588 17.324,2.897 17.158,3.153 16.895,3.605 16.559,3.93 16.149,4.124 15.741,4.319 15.301,4.398 14.831,4.37 14.452,4.348 14.137,4.29 13.896,4.202 13.65,4.113 13.409,3.955 13.174,3.737 12.939,3.514 12.664,3.218 12.349,2.846 12.033,2.473 11.614,1.989 11.096,1.398 l -0.8,-1.33 C 10.249,0.005 10.217,-0.064 10.18,-0.131 10.086,-0.092 9.979,-0.07 9.843,-0.086 9.7,-0.101 9.493,-0.296 9.224,-0.666 8.955,-1.035 8.65,-1.468 8.307,-1.964 7.962,-2.463 7.579,-2.97 7.149,-3.491 6.721,-4.013 6.26,-4.435 5.764,-4.755 L 5.068,-4.878 C 4.661,-4.925 4.202,-5.108 3.692,-5.433 3.182,-5.756 2.677,-5.944 2.185,-6.002 1.806,-6.045 1.497,-5.982 1.256,-5.818 1.016,-5.652 0.867,-5.323 0.809,-4.827 l -0.023,0.218 c 0.398,0.134 0.837,0.296 1.318,0.482 0.481,0.186 0.946,0.401 1.39,0.645 0.445,0.24 0.84,0.53 1.187,0.865 0.347,0.332 0.582,0.731 0.708,1.186 1.736,1.113 2.493,2.646 2.27,4.598 C 7.645,3.313 7.63,3.444 7.616,3.562 7.602,3.709 7.567,3.852 7.522,3.995 L 6.856,4.407 6.1,6.402 5.271,7.062 5.14,7.047 C 4.845,7.044 4.558,7.033 4.28,7.016 4.002,7.002 3.715,6.977 3.422,6.941 2.87,6.882 2.328,6.762 1.804,6.583 1.275,6.405 0.8,6.116 0.373,5.712 -0.715,4.644 -1.713,3.468 -2.619,2.184 -3.521,0.899 -4.107,-0.391 -4.373,-1.691 c -0.086,-0.276 -0.132,-0.547 -0.129,-0.812 0,-0.142 0.014,-0.282 0.023,-0.422 -0.058,0.071 -0.146,0.117 -0.301,0.115 -0.221,-0.003 -0.418,-0.016 -0.594,-0.042 -0.06,-0.008 -0.111,-0.061 -0.154,-0.158 -1.554,-1.713 -3.194,-2.963 -4.918,-3.759 -0.997,-0.46 -2.021,-0.77 -3.074,-0.924 -2.353,-0.347 -4.906,0.081 -7.661,1.278 -0.653,0.41 -1.14,0.843 -1.459,1.301 -0.318,0.457 -0.521,0.975 -0.604,1.556 -0.087,0.583 -0.081,1.19 0.02,1.829 0.1,0.636 0.226,1.293 0.378,1.969 0.152,0.673 0.301,1.337 0.441,1.995 0,0.001 0,0.002 0.001,0.003 0.14,0.659 0.194,1.298 0.162,1.917 1.887,3.924 4.865,6.187 8.931,6.779 1.365,0.201 2.841,0.238 4.432,0.118 0.349,0.258 0.625,0.49 0.831,0.699 0.206,0.21 0.353,0.436 0.436,0.685 0.08,0.25 0.126,0.53 0.143,0.845 0.011,0.313 0.03,0.708 0.046,1.188 l -0.026,0.483 -1.528,0.4 c -0.389,0.033 -0.782,0.033 -1.177,0.004 -0.398,-0.028 -0.783,-0.068 -1.161,-0.126 -1.422,-0.206 -2.786,-0.57 -4.091,-1.085 -1.304,-0.519 -2.571,-1.135 -3.8,-1.849 -1.026,-1.101 -1.995,-2.228 -2.909,-3.385 -0.912,-1.155 -1.746,-2.353 -2.499,-3.592 -0.146,-0.24 -0.272,-0.494 -0.41,-0.738 -0.575,-1.016 -1.106,-2.06 -1.557,-3.154 -0.556,-1.356 -0.962,-2.781 -1.221,-4.271 l 0.551,-3.746 z"
             style="fill:#231f20;fill-opacity:1;fill-rule:nonzero;stroke:none"
             id="path128" />
        </g>
        <g
           id="g130"
           transform="translate(195.562,131.0713)">
          <path
             d="m 0,0 c -0.074,-0.028 -0.108,-0.073 -0.108,-0.131 0,-0.031 0.073,-0.178 0.223,-0.438 0.146,-0.264 0.352,-0.453 0.619,-0.571 l 2.82,-0.464 C 3.611,-1.779 3.646,-2.028 3.646,-2.353 3.649,-2.677 3.629,-3.021 3.589,-3.388 3.545,-3.754 3.526,-4.083 3.529,-4.379 L 3.532,-4.774 C 3.299,-5.305 3.119,-5.803 2.993,-6.273 2.861,-6.746 2.798,-7.23 2.803,-7.729 c 0.009,-1.379 0.545,-2.638 1.612,-3.775 l 0.968,0.006 c 0.407,0.003 0.995,0.126 1.757,0.363 0.76,0.24 1.557,0.591 2.393,1.052 0.831,0.459 1.629,1.038 2.385,1.731 0.76,0.697 1.341,1.485 1.749,2.369 0.086,0.412 0.169,0.784 0.254,1.126 0.086,0.336 0.13,0.621 0.127,0.857 -0.003,0.353 -0.12,0.527 -0.356,0.527 -0.263,-0.003 -0.504,-0.172 -0.722,-0.51 -0.22,-0.341 -0.53,-0.725 -0.94,-1.153 -0.41,-0.429 -0.978,-0.828 -1.708,-1.2 C 9.591,-6.709 8.564,-6.927 7.247,-6.996 L 7.2,-6.907 c -0.18,0.468 -0.272,0.98 -0.275,1.54 l 0.149,4.316 c 0.173,0.324 0.602,0.553 1.293,0.691 0.688,0.134 1.399,0.229 2.133,0.278 0.734,0.048 1.401,0.082 2.003,0.101 0.601,0.019 0.9,0.085 0.9,0.203 L 13.259,1.895 C 13.202,1.953 13.133,2.137 13.059,2.443 12.984,2.752 12.87,2.904 12.726,2.904 12.577,2.901 12.308,2.93 11.91,2.987 11.514,3.042 11.185,3.07 10.92,3.067 10.657,3.064 10.462,3.07 10.348,3.085 10.228,3.1 10.112,3.113 9.992,3.128 9.877,3.142 9.729,3.153 9.553,3.168 9.379,3.183 9.098,3.188 8.716,3.186 L 8.232,3.183 7.788,3.839 7.971,9.431 6.914,9.777 C 6.209,9.448 5.632,9.026 5.183,8.511 4.73,7.994 4.369,7.413 4.094,6.765 3.818,6.117 3.624,5.427 3.512,4.69 3.399,3.956 3.317,3.194 3.263,2.399 L 1.239,2.21 C 0.797,2.207 0.557,2.271 0.511,2.402 0.464,2.534 0.338,2.646 0.135,2.732 0.018,2.611 -0.054,2.423 -0.08,2.159 -0.108,1.893 -0.12,1.657 -0.12,1.454 V 1.145 L 0.109,0.268 C 0.109,0.119 0.072,0.029 0,0"
             style="fill:#231f20;fill-opacity:1;fill-rule:nonzero;stroke:none"
             id="path132" />
        </g>
        <g
           id="g134"
           transform="translate(213.6196,127.4063)">
          <path
             d="M 0,0 0.917,1.025 C 1.386,1.038 1.845,1.058 2.287,1.086 2.729,1.114 3.17,1.12 3.608,1.106 4.105,1.089 4.589,1.035 5.057,0.943 5.52,0.854 5.956,0.685 6.358,0.436 6.644,0.16 6.809,-0.117 6.859,-0.398 6.908,-0.68 6.925,-1.012 6.91,-1.39 L 6.888,-2.053 C 6.575,-4.242 5.317,-5.3 3.119,-5.22 2.705,-5.205 2.305,-5.119 1.915,-4.959 1.524,-4.799 1.126,-4.635 0.722,-4.475 0.448,-3.878 0.252,-3.268 0.126,-2.646 0,-2.026 -0.048,-1.379 -0.023,-0.702 Z m -3.789,-3.741 c 0.04,-0.53 0.08,-1.052 0.12,-1.567 0.041,-0.516 0.118,-1.012 0.232,-1.486 0.115,-0.472 0.313,-0.905 0.593,-1.298 0.278,-0.388 0.694,-0.714 1.244,-0.969 0.522,-0.105 1.05,-0.168 1.577,-0.189 0.587,-0.02 1.153,0.003 1.699,0.072 0.546,0.07 1.116,0.181 1.709,0.335 l 0.531,0.113 c 3.965,2.444 6.024,5.806 6.179,10.088 l 0.004,0.221 C 9.214,3.901 7.598,5.104 5.25,5.187 4.812,5.205 4.353,5.162 3.88,5.062 L 0.905,4.331 c -3.106,-1.448 -4.711,-3.638 -4.817,-6.569 -0.009,-0.236 0.003,-0.485 0.037,-0.751 0.034,-0.264 0.063,-0.516 0.086,-0.752"
             style="fill:#231f20;fill-opacity:1;fill-rule:nonzero;stroke:none"
             id="path136" />
        </g>
        <g
           id="g138"
           transform="translate(243.2158,126.3604)">
          <path
             d="m 0,0 c 0.029,0.117 0.062,0.246 0.106,0.39 l 0.62,1.797 c 0.581,0.53 1.052,0.897 1.413,1.097 0.358,0.201 0.7,0.287 1.019,0.255 C 3.479,3.508 3.783,3.373 4.07,3.139 4.356,2.902 4.715,2.573 5.146,2.149 5.194,2.026 5.216,1.92 5.222,1.831 5.228,1.742 5.228,1.654 5.222,1.567 5.177,1.097 5.03,0.685 4.786,0.326 4.546,-0.034 4.275,-0.229 3.978,-0.259 3.263,-0.659 2.671,-0.94 2.216,-1.102 1.756,-1.265 1.411,-1.348 1.173,-1.354 L 0.78,-1.313 c -0.382,0.038 -0.623,0.14 -0.723,0.312 -0.103,0.172 -0.14,0.376 -0.117,0.61 C -0.046,-0.246 -0.025,-0.115 0,0 m -18.854,-6.466 c 0.045,-0.388 0.104,-0.72 0.169,-1.007 0.07,-0.283 0.159,-0.458 0.273,-0.524 0.567,-0.277 1.175,-0.439 1.817,-0.484 0.676,-0.049 1.347,-0.141 2.013,-0.276 l 2.32,0.981 c 0.826,0.003 1.56,0.131 2.214,0.395 0.651,0.264 1.258,0.616 1.816,1.061 0.561,0.447 1.078,0.968 1.549,1.567 0.469,0.6 0.934,1.236 1.392,1.909 l 0.337,0.776 c -0.013,-0.153 -0.022,-0.286 -0.022,-0.382 0.006,-0.133 0.006,-0.268 0.006,-0.4 0.004,-0.133 0.004,-0.281 0,-0.443 0,-0.161 -0.011,-0.373 -0.04,-0.637 -0.023,-0.263 -0.029,-0.663 -0.006,-1.193 0.023,-0.533 0.035,-0.934 0.038,-1.197 0.312,-1.035 0.753,-1.828 1.334,-2.387 0.581,-0.56 1.426,-0.896 2.536,-1.004 0.787,-0.078 1.585,-0.051 2.395,0.074 1.723,0.422 3.288,1.061 4.7,1.927 1.413,0.862 2.588,2 3.523,3.413 l 0.173,0.424 c 0.115,0.256 0.229,0.511 0.343,0.763 0.113,0.256 0.181,0.499 0.203,0.733 0.038,0.379 -0.134,0.588 -0.512,0.625 C 9.566,-1.737 9.326,-1.884 8.989,-2.188 8.648,-2.494 8.258,-2.854 7.82,-3.268 7.381,-3.684 6.896,-4.1 6.369,-4.518 5.841,-4.939 5.303,-5.254 4.749,-5.467 L 4.045,-5.44 C 3.635,-5.4 3.148,-5.483 2.58,-5.695 2.015,-5.904 1.484,-5.985 0.985,-5.936 c -0.378,0.037 -0.67,0.163 -0.867,0.373 -0.201,0.211 -0.278,0.567 -0.226,1.062 l 0.019,0.218 c 0.416,0.05 0.879,0.115 1.39,0.195 0.511,0.083 1.01,0.198 1.494,0.341 0.485,0.143 0.931,0.345 1.345,0.597 0.406,0.255 0.719,0.593 0.94,1.014 1.926,0.726 2.986,2.064 3.18,4.022 C 8.275,2.031 8.289,2.163 8.301,2.28 8.313,2.428 8.313,2.573 8.297,2.723 L 7.733,3.265 7.41,5.377 6.736,6.193 6.607,6.208 C 6.318,6.265 6.034,6.314 5.758,6.356 5.48,6.399 5.2,6.435 4.906,6.463 4.351,6.518 3.799,6.511 3.245,6.448 2.694,6.385 2.166,6.202 1.666,5.898 0.376,5.081 -0.846,4.139 -1.997,3.072 -3.146,2.006 -3.99,0.865 -4.522,-0.35 -4.637,-0.551 -4.715,-0.755 -4.772,-0.961 l -0.381,0.668 c -0.172,0.012 -0.536,-0.206 -1.084,-0.65 -0.544,-0.448 -1.207,-0.938 -1.978,-1.471 -0.772,-0.533 -1.616,-1.012 -2.531,-1.43 -0.912,-0.421 -1.821,-0.599 -2.731,-0.534 -0.145,0.01 -0.275,0.027 -0.391,0.05 -0.118,0.022 -0.245,0.069 -0.389,0.137 l -0.871,0.769 c -0.168,0.541 -0.272,1.057 -0.31,1.544 -0.04,0.49 -0.043,0.951 -0.011,1.393 0.136,1.9 1.02,3.396 2.661,4.489 0.142,-0.041 0.286,-0.066 0.435,-0.075 0.174,-0.014 0.335,-0.026 0.482,-0.033 l 1.231,-0.09 c 0.488,-0.153 0.898,-0.284 1.227,-0.396 0.333,-0.111 0.597,-0.206 0.798,-0.277 0.085,-0.038 0.172,-0.072 0.259,-0.108 0.085,-0.036 0.141,-0.053 0.17,-0.056 0.089,-0.006 0.143,0.04 0.166,0.143 0.02,0.101 0.043,0.313 0.068,0.633 l 0.019,0.265 c 0.028,0.438 0.039,0.887 0.028,1.344 -0.012,0.456 -0.085,0.762 -0.221,0.919 l -0.747,0.672 c -0.574,0.189 -1.096,0.3 -1.565,0.332 -0.585,0.042 -1.142,0 -1.663,-0.123 -0.524,-0.124 -1.003,-0.365 -1.442,-0.714 -1.871,-1.044 -3.224,-2.316 -4.067,-3.815 -0.842,-1.498 -1.332,-3.202 -1.467,-5.103 -0.024,-0.293 -0.043,-0.586 -0.063,-0.878 -0.023,-0.293 -0.029,-0.603 -0.023,-0.927 0.068,-0.297 0.124,-0.642 0.171,-1.026 0.048,-0.386 0.093,-0.771 0.138,-1.157"
             style="fill:#231f20;fill-opacity:1;fill-rule:nonzero;stroke:none"
             id="path140" />
        </g>
        <g
           id="g142"
           transform="translate(254.3379,116.7295)">
          <path
             d="m 0,0 c 0.142,-0.298 0.306,-0.56 0.487,-0.788 0.179,-0.227 0.43,-0.358 0.751,-0.396 0.028,-0.003 0.073,0 0.134,0.006 0.06,0.009 0.118,0.009 0.178,0.003 0.668,0.157 1.281,0.427 1.843,0.805 C 3.955,0.009 4.499,0.447 5.029,0.949 5.56,1.447 6.082,1.978 6.588,2.54 7.095,3.102 7.629,3.646 8.197,4.173 L 8.711,5.219 C 8.771,5.716 8.792,6.082 8.774,6.32 8.759,6.558 8.65,6.689 8.443,6.713 8.329,6.727 8.146,6.606 7.894,6.357 7.641,6.105 7.365,5.818 7.062,5.501 6.76,5.18 6.45,4.867 6.133,4.566 5.817,4.262 5.565,4.062 5.38,3.967 L 3.822,3.525 C 3.531,3.56 3.379,3.784 3.367,4.199 3.222,5.987 3.237,7.684 3.422,9.29 c 0.241,2.068 0.742,4.041 1.507,5.918 0.762,1.877 1.817,3.651 3.164,5.328 0.13,0.37 0.246,0.754 0.352,1.158 0.107,0.399 0.239,0.792 0.405,1.172 0.161,0.379 0.356,0.735 0.585,1.061 0.229,0.33 0.522,0.619 0.878,0.874 0,0.267 0.017,0.516 0.042,0.748 0.032,0.264 0.06,0.511 0.085,0.742 0.204,1.78 0.688,3.409 1.452,4.888 L 11.47,31.758 C 11.389,31.826 11.234,31.875 11,31.901 10.564,31.952 10.135,31.898 9.719,31.74 9.303,31.58 8.875,31.422 8.443,31.265 5.059,28.556 3.123,25.1 2.636,20.9 2.527,19.939 2.498,18.923 2.551,17.854 L 2.566,17.587 C 1.548,16.699 0.854,15.673 0.481,14.503 0.108,13.334 -0.149,12.124 -0.294,10.869 L -0.617,8.071 C -0.432,7.636 -0.327,7.203 -0.302,6.773 -0.28,6.341 -0.294,5.875 -0.351,5.383 L -0.807,2.597 C -0.824,2.451 -0.84,2.305 -0.857,2.161 -0.871,2.016 -0.877,1.865 -0.863,1.717 -0.68,1.519 -0.526,1.259 -0.402,0.935 -0.276,0.608 -0.142,0.299 0,0"
             style="fill:#231f20;fill-opacity:1;fill-rule:nonzero;stroke:none"
             id="path144" />
        </g>
        <g
           id="g146"
           transform="translate(277.8164,122.7139)">
          <path
             d="M 0,0 0.687,1.771 C 1.287,2.282 1.772,2.631 2.139,2.82 2.504,3.007 2.847,3.078 3.164,3.035 3.437,3 3.688,2.875 3.932,2.692 3.976,2.659 4.021,2.64 4.065,2.603 4.339,2.359 4.687,2.015 5.102,1.573 5.144,1.45 5.165,1.345 5.169,1.256 5.171,1.164 5.165,1.078 5.153,0.989 5.09,0.524 4.933,0.114 4.678,-0.235 4.424,-0.584 4.146,-0.771 3.847,-0.788 3.117,-1.164 2.518,-1.424 2.053,-1.567 1.589,-1.711 1.238,-1.782 1.004,-1.779 l -0.393,0.05 c -0.379,0.053 -0.617,0.167 -0.708,0.342 -0.098,0.175 -0.126,0.378 -0.098,0.614 0.024,0.142 0.048,0.275 0.075,0.389 0.001,0.003 0.002,0.007 0.003,0.01 C -0.086,-0.264 -0.046,-0.139 0,0 m -11.051,10.434 c -1.027,-0.877 -1.731,-1.898 -2.115,-3.062 -0.385,-1.167 -0.655,-2.373 -0.809,-3.625 l -0.352,-2.796 c 0.181,-0.438 0.283,-0.871 0.302,-1.304 0.019,-0.429 0,-0.893 -0.064,-1.389 l -0.483,-2.778 c -0.016,-0.146 -0.037,-0.292 -0.057,-0.439 -0.016,-0.145 -0.021,-0.291 -0.012,-0.441 0.185,-0.201 0.337,-0.464 0.459,-0.787 0.12,-0.328 0.252,-0.64 0.391,-0.938 0.14,-0.298 0.298,-0.562 0.478,-0.795 0.14,-0.177 0.336,-0.282 0.565,-0.347 0.061,-0.017 0.114,-0.047 0.183,-0.056 0.03,-0.002 0.075,0 0.132,0.006 0.063,0.008 0.12,0.008 0.177,0 0.671,0.151 1.289,0.416 1.852,0.788 0.565,0.373 1.115,0.805 1.651,1.3 0.173,0.16 0.337,0.343 0.507,0.508 0.359,0.35 0.72,0.693 1.066,1.069 0.513,0.557 1.055,1.095 1.625,1.617 l 0.414,0.815 c -0.022,-0.175 -0.036,-0.326 -0.038,-0.434 -0.004,-0.132 -0.008,-0.266 -0.008,-0.399 -0.005,-0.132 -0.011,-0.28 -0.017,-0.441 -0.004,-0.103 -0.016,-0.232 -0.031,-0.373 -0.01,-0.083 -0.019,-0.166 -0.033,-0.263 -0.035,-0.261 -0.05,-0.659 -0.05,-1.192 0.002,-0.533 0,-0.935 -0.006,-1.199 0.273,-1.045 0.687,-1.857 1.25,-2.435 0.555,-0.58 1.386,-0.943 2.493,-1.093 0.785,-0.106 1.581,-0.112 2.395,-0.014 1.737,0.359 3.326,0.943 4.771,1.754 1.443,0.811 2.655,1.907 3.642,3.282 l 0.192,0.419 c 0.12,0.249 0.243,0.502 0.367,0.751 0.12,0.249 0.201,0.49 0.229,0.722 0.05,0.378 -0.109,0.593 -0.488,0.645 C 9.38,-2.471 9.132,-2.607 8.782,-2.9 8.434,-3.192 8.029,-3.539 7.576,-3.936 7.121,-4.334 6.624,-4.734 6.082,-5.133 5.538,-5.534 4.987,-5.83 4.426,-6.022 L 3.724,-5.97 C 3.316,-5.916 2.827,-5.981 2.254,-6.171 1.68,-6.36 1.147,-6.42 0.65,-6.354 c -0.378,0.051 -0.662,0.186 -0.855,0.407 -0.193,0.218 -0.252,0.574 -0.19,1.069 l 0.033,0.218 c 0.418,0.032 0.884,0.08 1.395,0.143 0.513,0.063 1.014,0.158 1.504,0.287 0.491,0.124 0.946,0.306 1.362,0.547 0.418,0.239 0.746,0.565 0.98,0.978 1.952,0.653 3.061,1.954 3.324,3.903 0.022,0.147 0.041,0.276 0.055,0.393 0.019,0.146 0.026,0.292 0.013,0.442 L 7.728,2.597 7.481,4.718 7.06,5.271 6.839,5.561 6.707,5.578 C 6.421,5.645 6.141,5.704 5.867,5.759 5.593,5.81 5.309,5.856 5.02,5.896 4.465,5.971 3.913,5.985 3.359,5.942 2.804,5.898 2.271,5.733 1.761,5.449 0.441,4.679 -0.814,3.78 -2.003,2.757 -3.191,1.734 -4.074,0.625 -4.654,-0.57 -4.795,-0.802 -4.896,-1.038 -4.96,-1.28 c 0.008,0.148 0.013,0.285 0.008,0.386 -0.018,0.238 -0.126,0.37 -0.327,0.396 -0.12,0.015 -0.304,-0.104 -0.556,-0.351 -0.252,-0.249 -0.532,-0.533 -0.838,-0.848 -0.309,-0.318 -0.619,-0.627 -0.938,-0.925 -0.32,-0.301 -0.574,-0.499 -0.763,-0.594 l -1.56,-0.424 c -0.292,0.037 -0.441,0.263 -0.447,0.679 -0.132,1.789 -0.097,3.485 0.107,5.088 0.259,2.066 0.778,4.036 1.561,5.904 0.782,1.869 1.857,3.635 3.219,5.297 0.135,0.367 0.255,0.751 0.367,1.152 0.108,0.402 0.246,0.791 0.412,1.169 0.163,0.379 0.364,0.732 0.599,1.055 0.232,0.327 0.528,0.613 0.887,0.866 0.002,0.267 0.02,0.516 0.047,0.748 0.036,0.261 0.064,0.51 0.093,0.743 0.223,1.777 0.726,3.399 1.502,4.87 l -0.414,0.584 c -0.079,0.069 -0.24,0.117 -0.469,0.149 -0.439,0.054 -0.865,0.003 -1.283,-0.149 -0.42,-0.155 -0.846,-0.31 -1.279,-0.461 -3.415,-2.677 -5.382,-6.112 -5.91,-10.305 -0.121,-0.963 -0.161,-1.977 -0.119,-3.049 z"
             style="fill:#231f20;fill-opacity:1;fill-rule:nonzero;stroke:none"
             id="path148" />
        </g>
        <g
           id="g150"
           transform="translate(225.8066,231.0181)">
          <path
             d="M 0,0 C 1.319,-29.678 9.419,-53.401 9.419,-53.401 3.274,-29.169 0,0 0,0"
             style="fill:#231f20;fill-opacity:1;fill-rule:nonzero;stroke:none"
             id="path152" />
        </g>
      </g>
    </g>
  </g>
</svg>
